<?xml version="1.0" encoding="utf-8"?>
<!-- Generator: Adobe Illustrator 19.0.0, SVG Export Plug-In . SVG Version: 6.00 Build 0)  -->
<svg version="1.1" id="Camada_1" xmlns="http://www.w3.org/2000/svg" xmlns:xlink="http://www.w3.org/1999/xlink" x="0px" y="0px"
	 viewBox="0 0 800 400" style="enable-background:new 0 0 800 400;" xml:space="preserve">
<style type="text/css">
	.st0{fill:#FFFFFF;}
	.st1{fill:url(#XMLID_3_);}
	.st2{fill:#353031;}
	.st3{display:none;fill:#848484;}
	.st4{fill:#FF508F;}
	.st5{fill:#B7B7B7;}
	.st6{fill:#43D6CB;}
	.st7{fill:#231F20;}
	.st8{fill:#4C4C4C;}
	.st9{fill:#848484;}
	.st10{fill:#8DC63F;}
	.st11{fill:#81B530;}
	.st12{fill:#76AD1F;}
	.st13{fill:#8B5E3C;}
	.st14{fill:#E0E0E0;}
	.st15{fill:#8726D3;}
	.st16{filter:url(#Adobe_OpacityMaskFilter);}
	.st17{fill:url(#XMLID_5_);}
	.st18{mask:url(#XMLID_4_);}
	.st19{opacity:0.5;clip-path:url(#XMLID_6_);}
	.st20{fill:#9B8579;}
	.st21{fill:#DBDBDB;}
	.st22{fill:#726658;}
	.st23{fill:#C49A6C;}
	.st24{clip-path:url(#XMLID_6_);}
	.st25{fill:#1E1E1E;}
</style>
<rect id="XMLID_227_" y="-0.2" class="st0" width="800" height="400.2"/>
<linearGradient id="XMLID_3_" gradientUnits="userSpaceOnUse" x1="851.2542" y1="14.1135" x2="-168.6949" y2="434.0925">
	<stop  offset="0" style="stop-color:#FF7FCD"/>
	<stop  offset="1" style="stop-color:#FFB855"/>
</linearGradient>
<rect id="XMLID_398_" y="-0.2" class="st1" width="800" height="400.2"/>
<polygon id="XMLID_226_" class="st2" points="238.9,338.4 800,338.4 800,294 294.2,294 "/>
<ellipse id="XMLID_328_" class="st3" cx="443.8" cy="309.3" rx="71.6" ry="2.8"/>
<g id="XMLID_263_">
	<path id="XMLID_266_" class="st4" d="M507.5,288.1H378.4c-0.9,0-1.8,0.3-2.5,0.8l-2.3,1.5c-1.3,0.9-2.1,2.3-2.1,3.9V305
		c0,2.6,2.1,4.6,4.6,4.6h133.7c2.6,0,4.6-2.1,4.6-4.6v-10.8c0-1.6-0.8-3-2.1-3.9l-2.3-1.5C509.3,288.4,508.4,288.1,507.5,288.1z"/>
	<path id="XMLID_267_" class="st5" d="M373.6,290.4c-0.5,0.4-1,0.8-1.3,1.4h141.4c-0.3-0.5-0.8-1-1.3-1.4l-2.3-1.5
		c-0.8-0.5-1.6-0.8-2.5-0.8H378.4c-0.9,0-1.8,0.3-2.5,0.8L373.6,290.4z"/>
</g>
<g id="XMLID_265_">
	<path id="XMLID_269_" class="st6" d="M502,266.6H372.9c-0.9,0-1.8,0.3-2.5,0.8l-2.3,1.5c-1.3,0.9-2.1,2.3-2.1,3.9v10.8
		c0,2.6,2.1,4.6,4.6,4.6h133.7c2.6,0,4.6-2.1,4.6-4.6v-10.8c0-1.6-0.8-3-2.1-3.9l-2.3-1.5C503.8,266.9,502.9,266.6,502,266.6z"/>
	<path id="XMLID_268_" class="st5" d="M368.1,268.8c-0.5,0.4-1,0.8-1.3,1.4h141.4c-0.3-0.5-0.8-1-1.3-1.4l-2.3-1.5
		c-0.8-0.5-1.6-0.8-2.5-0.8H372.9c-0.9,0-1.8,0.3-2.5,0.8L368.1,268.8z"/>
</g>
<g id="XMLID_270_">
	<path id="XMLID_272_" class="st7" d="M513.2,245.4H384.1c-0.9,0-1.8,0.3-2.5,0.8l-2.3,1.5c-1.3,0.9-2.1,2.3-2.1,3.9v10.8
		c0,2.6,2.1,4.6,4.6,4.6h133.7c2.6,0,4.6-2.1,4.6-4.6v-10.8c0-1.6-0.8-3-2.1-3.9l-2.3-1.5C515,245.7,514.1,245.4,513.2,245.4z"/>
	<path id="XMLID_271_" class="st8" d="M379.3,247.6c-0.5,0.4-1,0.8-1.3,1.4h141.4c-0.3-0.5-0.8-1-1.3-1.4l-2.3-1.5
		c-0.8-0.5-1.6-0.8-2.5-0.8H384.1c-0.9,0-1.8,0.3-2.5,0.8L379.3,247.6z"/>
</g>
<rect id="XMLID_124_" x="238.9" y="338.4" class="st7" width="561.1" height="19"/>
<rect id="XMLID_123_" x="308.5" y="357.4" class="st2" width="491.5" height="42.6"/>
<g id="XMLID_273_">
	<ellipse id="XMLID_262_" class="st9" cx="366" cy="325.6" rx="41.6" ry="2.8"/>
	<g id="XMLID_196_">
		<path id="XMLID_198_" class="st10" d="M334.2,231.7c1.5,5.4-5.8,21.5-2.2,32.2c3.6,10.7,9.7,15.4,9.7,15.4l7.7-2.6l7.7-2.6
			c0,0,1.9-7.5-1.7-18.1C351.9,245.4,336.3,237,334.2,231.7z"/>
		<path id="XMLID_197_" class="st11" d="M349.4,276.8l7.7-2.6c0,0,1.9-7.5-1.7-18.1c-3.6-10.7-19.2-19-21.3-24.3L349.4,276.8z"/>
	</g>
	<g id="XMLID_199_">
		<path id="XMLID_201_" class="st10" d="M391.7,247c-1.4,3.6-12.1,9.2-14.5,16.4c-2.5,7.2-1.2,12.3-1.2,12.3l5.2,1.8l5.2,1.8
			c0,0,4.1-3.2,6.6-10.5S390.6,250.7,391.7,247z"/>
		<path id="XMLID_200_" class="st11" d="M381.2,277.6l5.2,1.8c0,0,4.1-3.2,6.6-10.5c2.5-7.2-2.4-18.2-1.4-21.9L381.2,277.6z"/>
	</g>
	<g id="XMLID_202_">
		<path id="XMLID_204_" class="st10" d="M395.6,253.1c-1.2,3-10.1,7.7-12.1,13.7c-2.1,6-1,10.3-1,10.3l4.4,1.5l4.4,1.5
			c0,0,3.5-2.7,5.5-8.7S394.7,256.2,395.6,253.1z"/>
		<path id="XMLID_203_" class="st11" d="M386.8,278.6l4.4,1.5c0,0,3.5-2.7,5.5-8.7c2.1-6-2-15.2-1.1-18.3L386.8,278.6z"/>
	</g>
	<g id="XMLID_119_">
		<path id="XMLID_195_" class="st10" d="M366,201.6c-0.4,8.7-19.2,28.8-19.2,46.2s6.5,27.5,6.5,27.5H366h12.6c0,0,6.5-10,6.5-27.5
			S366.4,210.3,366,201.6z"/>
		<path id="XMLID_194_" class="st12" d="M366,275.3h12.6c0,0,6.5-10,6.5-27.5s-18.8-37.5-19.2-46.2V275.3z"/>
	</g>
	<path id="XMLID_120_" class="st13" d="M332,271c8.5,0,8.5,2.6,17,2.6c8.5,0,8.5-2.6,17-2.6c8.5,0,8.5,2.6,17,2.6
		c8.5,0,8.5-2.6,17-2.6v6.3h-68V271z"/>
	<path id="XMLID_121_" class="st14" d="M332,277.3h68v23.2c0,13.9-11.3,25.2-25.2,25.2h-17.7c-13.9,0-25.2-11.3-25.2-25.2V277.3z"/>
	<rect id="XMLID_193_" x="332" y="277.3" class="st5" width="68" height="4.2"/>
</g>
<g id="XMLID_260_">
	<ellipse id="XMLID_261_" class="st9" cx="594.6" cy="306.5" rx="41.6" ry="2.8"/>
	<polygon id="XMLID_207_" class="st14" points="618.3,295.4 571,295.4 573.3,249.5 615.9,249.5 	"/>
	<path id="XMLID_220_" class="st14" d="M618.3,288.2l-23.7,1.3l-23.7-1.3c0,4.3-6.4,10.1-11.3,12.7c-1.8,0.9-2.9,2.8-2.9,4.8v0.2
		h37.9h37.9v-0.2c0-2-1.2-3.8-2.9-4.8C624.7,298.3,618.3,292.5,618.3,288.2z"/>
	<polygon id="XMLID_219_" class="st5" points="572.6,264.8 616.7,264.8 616.4,258.4 572.9,258.4 	"/>
	<path id="XMLID_118_" class="st0" d="M722.3,57.6H467c-13.3,0-24,10.8-24,24v152.7c0,13.3,10.8,24,24,24h255.3
		c13.3,0,24-10.8,24-24V81.6C746.3,68.4,735.6,57.6,722.3,57.6z"/>
	<path id="XMLID_206_" class="st14" d="M442.9,215.9v26.7c0,8.7,7.1,15.8,15.8,15.8h271.9c8.7,0,15.8-7.1,15.8-15.8v-26.7H442.9z"/>
	<path id="XMLID_209_" class="st7" d="M730.7,57.6h-272c-8.7,0-15.7,7-15.7,15.7v142.7h303.4V73.3C746.3,64.6,739.3,57.6,730.7,57.6
		z"/>
	<rect id="XMLID_205_" x="454.3" y="69.8" class="st15" width="280.7" height="134"/>
	<circle id="XMLID_210_" class="st5" cx="592.8" cy="237.2" r="6.4"/>
	<defs>
		<filter id="Adobe_OpacityMaskFilter" filterUnits="userSpaceOnUse" x="426.1" y="69.8" width="333.3" height="138.6">
			<feColorMatrix  type="matrix" values="1 0 0 0 0  0 1 0 0 0  0 0 1 0 0  0 0 0 1 0"/>
		</filter>
	</defs>
	<mask maskUnits="userSpaceOnUse" x="426.1" y="69.8" width="333.3" height="138.6" id="XMLID_4_">
		<g id="XMLID_77_" class="st16">
			<linearGradient id="XMLID_5_" gradientUnits="userSpaceOnUse" x1="594.637" y1="73.232" x2="594.637" y2="203.2423">
				<stop  offset="0" style="stop-color:#FFFFFF"/>
				<stop  offset="1" style="stop-color:#000000"/>
			</linearGradient>
			<rect id="XMLID_78_" x="454.3" y="69.8" class="st17" width="280.7" height="134"/>
		</g>
	</mask>
	<g id="XMLID_217_" class="st18">
		<defs>
			<rect id="XMLID_222_" x="454.3" y="69.8" width="280.7" height="134"/>
		</defs>
		<clipPath id="XMLID_6_">
			<use xlink:href="#XMLID_222_"  style="overflow:visible;"/>
		</clipPath>
		<g id="XMLID_253_" class="st19">
			<polygon id="XMLID_259_" class="st20" points="625.3,112 582.6,185.1 625.3,185.1 668.1,185.1 			"/>
			<polygon id="XMLID_258_" class="st21" points="668.1,185.1 625.3,112 634.3,152.3 625.3,154.5 625.3,185.1 			"/>
			<polygon id="XMLID_257_" class="st22" points="675.1,95.6 622.7,185.1 675.1,185.1 727.4,185.1 			"/>
			<polygon id="XMLID_256_" class="st21" points="727.4,185.1 675.1,95.6 686.1,144.9 675.1,147.7 675.1,185.1 			"/>
			<polygon id="XMLID_255_" class="st23" points="723.4,123.6 687.4,185.1 723.4,185.1 759.4,185.1 			"/>
			<polygon id="XMLID_254_" class="st21" points="759.4,185.1 723.4,123.6 731,157.5 723.4,159.4 723.4,185.1 			"/>
		</g>
		<g id="XMLID_246_" class="st19">
			<polygon id="XMLID_252_" class="st20" points="476.5,112 433.7,185.1 476.5,185.1 519.2,185.1 			"/>
			<polygon id="XMLID_251_" class="st21" points="519.2,185.1 476.5,112 485.5,152.3 476.5,154.5 476.5,185.1 			"/>
			<polygon id="XMLID_250_" class="st22" points="526.2,95.6 473.8,185.1 526.2,185.1 578.6,185.1 			"/>
			<polygon id="XMLID_249_" class="st21" points="578.6,185.1 526.2,95.6 537.2,144.9 526.2,147.7 526.2,185.1 			"/>
			<polygon id="XMLID_248_" class="st23" points="574.5,123.6 538.5,185.1 574.5,185.1 610.5,185.1 			"/>
			<polygon id="XMLID_247_" class="st21" points="610.5,185.1 574.5,123.6 582.1,157.5 574.5,159.4 574.5,185.1 			"/>
		</g>
		<g id="XMLID_223_" class="st24">
			<polygon id="XMLID_245_" class="st20" points="505.8,113.7 426.1,208.4 505.8,208.4 585.5,208.4 			"/>
			<polygon id="XMLID_244_" class="st21" points="585.5,208.4 505.8,113.7 522.6,165.9 505.8,168.8 505.8,208.4 			"/>
			<polygon id="XMLID_243_" class="st22" points="598.5,92.3 500.9,208.4 598.5,208.4 696.1,208.4 			"/>
			<polygon id="XMLID_242_" class="st21" points="696.1,208.4 598.5,92.3 619.1,156.3 598.5,159.9 598.5,208.4 			"/>
			<polygon id="XMLID_234_" class="st23" points="688.6,128.6 621.5,208.4 688.6,208.4 755.7,208.4 			"/>
			<polygon id="XMLID_224_" class="st21" points="755.7,208.4 688.6,128.6 702.7,172.6 688.6,175 688.6,208.4 			"/>
		</g>
	</g>
</g>
<g id="XMLID_325_">
	<ellipse id="XMLID_324_" class="st9" cx="582.5" cy="327.5" rx="123.3" ry="2.8"/>
	<g id="XMLID_225_">
		<polygon id="XMLID_351_" class="st14" points="689.8,312 475,312 459.3,323.9 705.5,323.9 		"/>
		<path id="XMLID_323_" class="st14" d="M461,327.2h242.8c1.1-0.9,1.7-2.1,1.7-3.3H582.4H459.3C459.3,325.1,459.9,326.3,461,327.2z"
			/>
		<g id="XMLID_274_">
			<polygon id="XMLID_322_" class="st7" points="528.3,317.6 536.7,317.6 538.4,314.1 530.3,314.1 			"/>
			<polygon id="XMLID_321_" class="st7" points="519.2,317.6 527.5,317.6 529.5,314.1 521.5,314.1 			"/>
			<polygon id="XMLID_320_" class="st7" points="573.7,314.1 565.6,314.1 565,317.6 573.4,317.6 			"/>
			<polygon id="XMLID_319_" class="st7" points="537.5,317.6 545.9,317.6 547.2,314.1 539.1,314.1 			"/>
			<polygon id="XMLID_318_" class="st7" points="546.6,317.6 555.1,317.6 556.1,314.1 547.9,314.1 			"/>
			<polygon id="XMLID_317_" class="st7" points="564.9,314.1 556.8,314.1 555.8,317.6 564.2,317.6 			"/>
			<polygon id="XMLID_316_" class="st7" points="500.9,317.6 509.2,317.6 511.8,314.1 503.8,314.1 			"/>
			<polygon id="XMLID_315_" class="st7" points="482.6,317.6 490.8,317.6 494.1,314.1 486.2,314.1 			"/>
			<polygon id="XMLID_314_" class="st7" points="510,317.6 518.4,317.6 520.6,314.1 512.7,314.1 			"/>
			<polygon id="XMLID_313_" class="st7" points="478.3,321.8 486.9,321.8 490.2,318.3 481.9,318.3 			"/>
			<polygon id="XMLID_312_" class="st7" points="574.1,317.6 582.6,317.6 582.6,314.1 574.4,314.1 			"/>
			<polygon id="XMLID_311_" class="st7" points="491.8,317.6 500,317.6 502.9,314.1 495,314.1 			"/>
			<polygon id="XMLID_310_" class="st7" points="619.8,317.6 628.3,317.6 626.6,314.1 618.5,314.1 			"/>
			<polygon id="XMLID_309_" class="st7" points="647.4,317.6 655.7,317.6 653.1,314.1 645.1,314.1 			"/>
			<polygon id="XMLID_308_" class="st7" points="656.6,317.6 664.8,317.6 661.9,314.1 654,314.1 			"/>
			<polygon id="XMLID_307_" class="st7" points="665.8,317.6 674,317.6 670.7,314.1 662.8,314.1 			"/>
			<polygon id="XMLID_306_" class="st7" points="638.2,317.6 646.6,317.6 644.3,314.1 636.2,314.1 			"/>
			<polygon id="XMLID_305_" class="st7" points="683.1,317.6 679.5,314.1 671.7,314.1 674.9,317.6 			"/>
			<polygon id="XMLID_304_" class="st7" points="592.3,317.6 600.8,317.6 600.1,314.1 592,314.1 			"/>
			<polygon id="XMLID_303_" class="st7" points="601.5,317.6 609.9,317.6 609,314.1 600.8,314.1 			"/>
			<polygon id="XMLID_302_" class="st7" points="583.3,317.6 591.6,317.6 591.3,314.1 583.3,314.1 			"/>
			<polygon id="XMLID_301_" class="st7" points="610.7,317.6 619.1,317.6 617.8,314.1 609.7,314.1 			"/>
			<polygon id="XMLID_300_" class="st7" points="629,317.6 637.4,317.6 635.4,314.1 627.4,314.1 			"/>
			<polygon id="XMLID_299_" class="st7" points="499.4,318.3 491.1,318.3 487.8,321.8 496.5,321.8 			"/>
			<polygon id="XMLID_298_" class="st7" points="674.6,318.3 666.3,318.3 669.3,321.8 677.9,321.8 			"/>
			<polygon id="XMLID_297_" class="st7" points="647,318.3 638.6,318.3 640.6,321.8 649.3,321.8 			"/>
			<polygon id="XMLID_296_" class="st7" points="656.2,318.3 647.8,318.3 650.1,321.8 658.8,321.8 			"/>
			<polygon id="XMLID_295_" class="st7" points="637.8,318.3 629.4,318.3 631,321.8 639.8,321.8 			"/>
			<polygon id="XMLID_294_" class="st7" points="628.6,318.3 620.1,318.3 621.4,321.8 630.2,321.8 			"/>
			<polygon id="XMLID_293_" class="st7" points="665.4,318.3 657.1,318.3 659.7,321.8 668.4,321.8 			"/>
			<polygon id="XMLID_292_" class="st7" points="694.6,318.3 694.6,318.3 684.8,318.3 688.4,321.8 699.2,321.8 			"/>
			<polygon id="XMLID_291_" class="st7" points="481.6,317.6 485.2,314.1 475.7,314.1 471,317.6 			"/>
			<polygon id="XMLID_290_" class="st7" points="480.9,318.3 470.1,318.3 465.5,321.8 477.3,321.8 			"/>
			<polygon id="XMLID_289_" class="st7" points="619.4,318.3 610.9,318.3 611.8,321.8 620.7,321.8 			"/>
			<polygon id="XMLID_288_" class="st7" points="683.8,318.3 675.6,318.3 678.9,321.8 687.4,321.8 			"/>
			<polygon id="XMLID_287_" class="st7" points="684.1,317.6 693.7,317.6 689.1,314.1 680.5,314.1 			"/>
			<polygon id="XMLID_286_" class="st7" points="508.7,318.3 500.3,318.3 497.4,321.8 506,321.8 			"/>
			<polygon id="XMLID_285_" class="st7" points="545.6,318.3 537.2,318.3 535.5,321.8 544.3,321.8 			"/>
			<polygon id="XMLID_284_" class="st7" points="536.4,318.3 528,318.3 526,321.8 534.8,321.8 			"/>
			<polygon id="XMLID_283_" class="st7" points="554.9,318.3 546.4,318.3 545.1,321.8 553.9,321.8 			"/>
			<polygon id="XMLID_282_" class="st7" points="527.2,318.3 518.7,318.3 516.5,321.8 525.2,321.8 			"/>
			<polygon id="XMLID_281_" class="st7" points="517.9,318.3 509.5,318.3 506.9,321.8 515.6,321.8 			"/>
			<polygon id="XMLID_280_" class="st7" points="564.1,318.3 555.6,318.3 554.6,321.8 563.5,321.8 			"/>
			<polygon id="XMLID_279_" class="st7" points="600.9,318.3 592.4,318.3 592.7,321.8 601.6,321.8 			"/>
			<polygon id="XMLID_278_" class="st7" points="591.7,318.3 583.3,318.3 583.3,321.8 592,321.8 			"/>
			<polygon id="XMLID_277_" class="st7" points="573.4,318.3 564.8,318.3 564.2,321.8 573,321.8 			"/>
			<polygon id="XMLID_276_" class="st7" points="610.1,318.3 601.6,318.3 602.3,321.8 611.1,321.8 			"/>
			<polygon id="XMLID_275_" class="st7" points="582.6,318.3 574.1,318.3 573.7,321.8 582.6,321.8 			"/>
		</g>
		<path id="XMLID_126_" class="st5" d="M461,327.2h242.8c1.1-0.9,1.7-2.1,1.7-3.3H582.4H459.3C459.3,325.1,459.9,326.3,461,327.2z"
			/>
	</g>
</g>
<g id="XMLID_327_">
	<ellipse id="XMLID_326_" class="st9" cx="733.7" cy="318.2" rx="17" ry="1.8"/>
	<path id="XMLID_264_" class="st14" d="M734.6,300.7h-1.7c-8.9,0-16.1,7.2-16.1,16.1v1.2h34v-1.2
		C750.7,307.9,743.5,300.7,734.6,300.7z"/>
</g>
<path id="XMLID_330_" class="st5" d="M508.9,283.5v-10.8c0-1.2-0.5-2.4-1.3-3.2c0,0,0,0-0.1-0.1c-0.2-0.2-0.4-0.4-0.7-0.6
	c0,0,0,0,0,0l-2.3-1.5c-0.1-0.1-0.3-0.2-0.4-0.2c0,0-0.1-0.1-0.1-0.1c-0.1,0-0.2-0.1-0.3-0.1h-84.5l51.6,21.2h33.5
	C506.8,288.1,508.9,286,508.9,283.5z"/>
<path id="XMLID_331_" class="st5" d="M514.4,305v-10.8c0-1.2-0.5-2.4-1.3-3.2c0,0,0,0-0.1-0.1c-0.2-0.2-0.4-0.4-0.7-0.6c0,0,0,0,0,0
	l-2.3-1.5c-0.1-0.1-0.3-0.2-0.4-0.2c0,0-0.1-0.1-0.1-0.1c-0.3-0.2-0.7-0.3-1.1-0.3c-0.3-0.1-0.6-0.1-0.9-0.1H436l55.8,21.5h18
	C512.3,309.6,514.4,307.6,514.4,305z"/>
<rect id="XMLID_1_" x="308.5" y="357.4" class="st25" width="491.2" height="5.9"/>
</svg>
