<?xml version="1.0" encoding="utf-8"?>
<!-- Generator: Adobe Illustrator 19.0.0, SVG Export Plug-In . SVG Version: 6.00 Build 0)  -->
<svg version="1.1" id="Camada_1" xmlns="http://www.w3.org/2000/svg" xmlns:xlink="http://www.w3.org/1999/xlink" x="0px" y="0px"
	 viewBox="0 0 792 612" style="enable-background:new 0 0 792 612;" xml:space="preserve">
<style type="text/css">
	.st0{fill:url(#XMLID_10_);}
	.st1{opacity:0.49;}
	.st2{opacity:0.35;fill:url(#XMLID_11_);}
	.st3{opacity:0.35;fill:url(#XMLID_12_);}
	.st4{opacity:0.35;fill:url(#XMLID_13_);}
	.st5{opacity:0.35;fill:url(#XMLID_14_);}
	.st6{fill-rule:evenodd;clip-rule:evenodd;fill:#A75451;}
	.st7{fill-rule:evenodd;clip-rule:evenodd;fill:#FCD2CC;}
	.st8{fill-rule:evenodd;clip-rule:evenodd;fill:#FCCBB8;}
	.st9{fill-rule:evenodd;clip-rule:evenodd;fill:#FCD9D7;}
	.st10{fill-rule:evenodd;clip-rule:evenodd;fill:#FBCEC5;}
	.st11{fill-rule:evenodd;clip-rule:evenodd;fill:#6F6164;}
	.st12{fill-rule:evenodd;clip-rule:evenodd;fill:#645355;}
	.st13{fill-rule:evenodd;clip-rule:evenodd;fill:#F7F3F6;}
	.st14{fill-rule:evenodd;clip-rule:evenodd;fill:#EBE5E8;}
	.st15{fill-rule:evenodd;clip-rule:evenodd;fill:#A97C97;}
	.st16{fill-rule:evenodd;clip-rule:evenodd;fill:#F1884E;}
	.st17{fill-rule:evenodd;clip-rule:evenodd;fill:#FFFFFF;}
	.st18{fill-rule:evenodd;clip-rule:evenodd;fill:#F16A8D;}
	.st19{fill-rule:evenodd;clip-rule:evenodd;fill:#C86765;}
	.st20{fill-rule:evenodd;clip-rule:evenodd;fill:#7E8BA8;}
	.st21{fill-rule:evenodd;clip-rule:evenodd;fill:#57C8E0;}
	.st22{fill-rule:evenodd;clip-rule:evenodd;fill:#FFCB35;}
	.st23{fill-rule:evenodd;clip-rule:evenodd;fill:#FDD1B8;}
	.st24{fill-rule:evenodd;clip-rule:evenodd;fill:#F5864C;}
	.st25{fill-rule:evenodd;clip-rule:evenodd;fill:#A8534E;}
	.st26{fill-rule:evenodd;clip-rule:evenodd;fill:#494A57;}
	.st27{fill-rule:evenodd;clip-rule:evenodd;fill:#4D4D59;}
	.st28{fill-rule:evenodd;clip-rule:evenodd;fill:#545561;}
	.st29{fill-rule:evenodd;clip-rule:evenodd;fill:#464751;}
	.st30{fill-rule:evenodd;clip-rule:evenodd;fill:#52525F;}
	.st31{fill-rule:evenodd;clip-rule:evenodd;fill:#535560;}
	.st32{fill-rule:evenodd;clip-rule:evenodd;fill:#595A66;}
	.st33{fill-rule:evenodd;clip-rule:evenodd;fill:#565664;}
	.st34{fill-rule:evenodd;clip-rule:evenodd;fill:#595B67;}
	.st35{fill-rule:evenodd;clip-rule:evenodd;fill:#565662;}
	.st36{fill-rule:evenodd;clip-rule:evenodd;fill:url(#XMLID_15_);}
</style>
<g id="XMLID_2_">
	
		<radialGradient id="XMLID_10_" cx="225.6861" cy="153.6706" r="305.1983" gradientTransform="matrix(1.5965 0 0 1.2241 -10.984 1.2191)" gradientUnits="userSpaceOnUse">
		<stop  offset="0" style="stop-color:#FFFFFF"/>
		<stop  offset="1" style="stop-color:#ABDFED"/>
	</radialGradient>
	<rect id="XMLID_8_" x="-5.1" class="st0" width="798.3" height="612.1"/>
	<g id="XMLID_3_" class="st1">
		
			<radialGradient id="XMLID_11_" cx="415.5402" cy="509.3443" r="353.5005" gradientTransform="matrix(2.3338 0 0 1.7117 -122.1877 -446.6339)" gradientUnits="userSpaceOnUse">
			<stop  offset="0" style="stop-color:#FFFFFF"/>
			<stop  offset="1" style="stop-color:#ABDFED"/>
		</radialGradient>
		<path id="XMLID_7_" class="st2" d="M793.2,612.1v-472c-332.2,41.7-583.4,234.5-583.4,466c0,2,0,4,0.1,6H793.2z"/>
		
			<radialGradient id="XMLID_12_" cx="380.5254" cy="483.69" r="353.4996" gradientTransform="matrix(2.3338 0 0 1.7117 -122.1877 -446.6339)" gradientUnits="userSpaceOnUse">
			<stop  offset="0" style="stop-color:#FFFFFF"/>
			<stop  offset="1" style="stop-color:#ABDFED"/>
		</radialGradient>
		<path id="XMLID_6_" class="st3" d="M793.2,612.1V89.1C421.3,107.1,128,312,128,562.2c0,16.8,1.3,33.5,3.9,49.9H793.2z"/>
		
			<radialGradient id="XMLID_13_" cx="347.7697" cy="444.3134" r="353.5008" gradientTransform="matrix(2.3338 0 0 1.7117 -122.1877 -446.6339)" gradientUnits="userSpaceOnUse">
			<stop  offset="0" style="stop-color:#FFFFFF"/>
			<stop  offset="1" style="stop-color:#ABDFED"/>
		</radialGradient>
		<path id="XMLID_5_" class="st4" d="M793.2,612.1V20.7c-7.7-0.2-15.5-0.3-23.3-0.3c-396.7,0-718.3,212.4-718.3,474.4
			c0,40.5,7.7,79.8,22.1,117.3H793.2z"/>
		
			<radialGradient id="XMLID_14_" cx="303.7189" cy="432.3813" r="353.5031" gradientTransform="matrix(2.3338 0 0 1.7117 -122.1877 -446.6339)" gradientUnits="userSpaceOnUse">
			<stop  offset="0" style="stop-color:#FFFFFF"/>
			<stop  offset="1" style="stop-color:#ABDFED"/>
		</radialGradient>
		<path id="XMLID_4_" class="st5" d="M667.1,0C359.7,0,97.5,127.5-5.1,306.7v305.3h798.3V7.3C752.2,2.5,710.1,0,667.1,0z"/>
	</g>
</g>
<g id="Background">
	<g id="XMLID_93_">
		<path id="XMLID_179_" class="st6" d="M539,312.2c-4.9,6.8-8.8,29.4-10.9,48.8l2.9,0c1.6-1.8,0.6-34.8,9.8-47.4L539,312.2z"/>
		<path id="XMLID_178_" class="st7" d="M654.5,209.9c0.2-0.2,3.2-0.8,3.6-0.5c0.4,0.3,1.4,3.1,0.9,3.9s-1.3,1-2.2,1.4
			c-1,0.4-1.6,0.2-1.6,0.2L654.5,209.9z"/>
		<path id="XMLID_177_" class="st8" d="M657.9,210.5c0,0.1-0.1,0.3-0.2,0.3c-0.4,0.3-0.8,0.2-1.1,0c-0.1-0.1-0.2-0.1-0.3-0.2
			c-0.4-0.2-0.6-0.5-0.6-0.5c-0.1,0.2,0.2,0.6,0.4,1.1c0,0-0.8-1.3-0.7-1.5c0.1-0.1,0.4,0.1,0.8,0.3c0.1,0,0.2,0.1,0.2,0.1
			c0.1,0,0.1,0,0.2,0.1C657,210.4,657.5,210.5,657.9,210.5z"/>
		<path id="XMLID_176_" class="st7" d="M657.8,210.6c0,0.1-0.1,0.2-0.2,0.2c-0.9,0.7-2-0.7-2.1-0.6c-0.2,0.3,1.1,1.4,0.6,2.6
			c0,0-0.7,2.1-0.8,2.1c0,0,0.3-2,0.3-2.9c0-0.9-0.7-2.5-0.7-2.5s0.7,0.4,1.3,0.7C656.7,210.4,657.4,210.6,657.8,210.6z"/>
		<path id="XMLID_175_" class="st9" d="M498.6,357.3c0,0-0.4-3-0.1-3.4c0.3-0.4,3.8-2,4-2.3c0.2-0.4,2.6-4,2.6-4l3.2,2.1
			c0,0-2.9,5.3-2.9,5.6c0,0.3-0.1,2.5-0.7,3.7c-0.6,1.1-2.5,1.9-2.5,1.9s-2.7-2.2-3-2.6C498.8,357.8,498.6,357.3,498.6,357.3z"/>
		<path id="XMLID_174_" class="st10" d="M496,361.9c0,0,0.7-2.5,1.4-4.2c0.6-1.6,0.8-2,0.8-2s4-3.2,4.3-2.5c0.3,0.7,0.2,1.7-0.7,2.7
			c-0.9,1-1.3,1.4-1.3,1.5c0,0.1,0.3,1.8,0.7,2.4c0.4,0.5,1,1,1,1s-0.9,1.8-1.9,2.8c-1,1-2,0.9-2,0.9L496,361.9z"/>
		<path id="XMLID_173_" class="st9" d="M501.6,359.4l-0.1,0.9c0,0,0.6,1.6,0.8,1.5c0.2,0,0.9-0.6,0.9-0.7c0.1-0.1,0-0.2,0-0.2
			s0.8-0.1,0.9-0.3c0.2-0.2,0.4-0.9,0.4-0.9s0.6-0.1,0.6-0.3c0-0.2,0-0.9,0-0.9s0.6-0.5,0.7-0.8c0-0.3-0.7-3.6-0.7-3.6L501.6,359.4z
			"/>
		<path id="XMLID_172_" class="st11" d="M554.8,346.7l2.3,0.2c6.8,2,25.7,13.2,27.8,18.2c0.5,1.2-3.2,30-3.3,30.1h0
			c0.2,0.4,0.6,1,0.9,1.1c0.4,0.1,4,0.7,5.3,0.3c1.3-0.4,1.2,0.4,0.7,0.8c-0.5,0.4-7.7,3.2-7.7,3.2l-1-0.8l-0.4,0.8l-3.8-1.1
			c0-1.2,0.2-2.5,0.6-3.6l0.4-26.4c0,0-21-8.2-22.2-7.6c-1.2,0.6-1.3,26.3-1.3,26.3l-18.7,26.4c0,0,0.6,1.2,1,1.4
			c0.4,0.1,4,0.7,5.3,0.3c1.3-0.4,1.2,0.4,0.7,0.8c-0.5,0.4-7.8,3.1-7.8,3.1l-0.9-0.7l-0.4,0.8l-3.8-1.1c0-1.4,0.3-3,0.8-4.3h0l0,0
			c0.1-0.1,0.1-0.3,0.2-0.4l14.2-29.3l-3.9-31.4L554.8,346.7z"/>
		<path id="XMLID_171_" class="st12" d="M529.7,419.6l-1.3-0.4c0-1.4,0.3-3,0.8-4.3h0l0,0c0.1-0.1,0.1-0.3,0.2-0.4l14.2-29.3
			l-3.9-31.4l5.1-2.4c0.3,0.4,9.7-3,9.7-3s-9.1,4.7-9,5.9c0.7,5.9,2.7,22.9,2.8,23.1c0.1,0.3-4.2,2.2-4.2,2.2l0.7,6l1.6,1.8
			l-2.5,0.8c0,0-13.4,26.8-13.5,27.2C530.4,415.9,529.9,418.5,529.7,419.6z"/>
		<path id="XMLID_170_" class="st12" d="M576.6,399.9l-1.1-0.3c0-1.2,0.2-2.5,0.6-3.6l0.4-26.4c0,0-21-8.2-22.2-7.6
			c0.2-0.5,0.5-3.5,0.5-3.5s21.6,9.6,22.1,9.4c0.4-0.2,2.6-0.1,2.6-0.1l-1.4,1.7l-0.5,25.8l2.3,1.2l-2.6,0.8L576.6,399.9z"/>
		<polygon id="XMLID_169_" class="st13" points="537.3,307.8 553.2,290.4 564,274.4 567.2,271.5 569.2,273.3 566.2,277.1 
			557.9,294.8 543.4,315.5 		"/>
		<path id="XMLID_168_" class="st11" d="M627.5,242.6l2.3,0.2c6.8,2,28.3,10.8,31.1,16.1c0.6,1.2,1,30.7,1,30.7
			c0.2,0.4,0.6,0.9,0.8,1c0.4,0.1,3.7,0.2,5-0.1c1.3-0.4,1.2,0.6,0.7,1c-0.5,0.4-7.2,3.7-7.2,3.7l-1.2-1l-0.4,0.8l-3.8-1.1
			c0-1.3,0.2-2.7,0.7-4l-4.9-27.1c0,0-25-4.6-26.2-4c-1.2,0.6-16.5,23.2-16.5,23.2l-10.7,29.3c0.3,1.1,0.5,2.2,0.5,3.3l-3.8,1.1
			l-0.4-0.8l-1.2,1.2c0,0-6.2,2.4-6.7,1.9c-0.5-0.4-0.5-1.1,1.5-2.2c1.2-0.6,4.2-3.7,4.7-5.5l-0.1,0l6-33.7l13.8-26.9L627.5,242.6z"
			/>
		<polygon id="XMLID_167_" class="st13" points="594,215.7 592.5,218.1 593.2,221.3 596,219.7 595.2,218 		"/>
		<path id="XMLID_166_" class="st7" d="M589,202.2c2.7,3.5,5.2,6.5,12.7,9.6c-2.3,4.1-3.7,5.5-6,9.7c0,0-0.2-2.8-2.7-5.5
			c-2.6-2.7-6.3-3.7-6.3-3.7C586.9,209.4,588.8,205.1,589,202.2z"/>
		<path id="XMLID_165_" class="st9" d="M574.6,210.4c0.9,1.4,3.2,2,3.2,2c0.8,3.2,0.2,5.6,0.1,6.1c0.3,1.1,2.4,0.1,2.9-0.1
			c0.5-0.2,3.8,1.9,5.8,2.2c2,0.3,6.3-4.1,6.8-7.4c0.5-3.3-0.4-6.1-0.4-6.1c-5-12.3-16.1-15.6-20.3-4.7
			C571.9,204.3,574,209.6,574.6,210.4z"/>
		<path id="XMLID_164_" class="st7" d="M577.8,218.6c0.3,1.1,2.4,0.1,2.9-0.1c0,0,0.1,0,0.2,0c0.1-0.3,0.2-0.5,0.2-0.7
			c0-0.4-0.6-1.1-0.6-1.1s0,1.2-0.4,1.4C579.7,218.3,577.8,218.6,577.8,218.6z"/>
		<path id="XMLID_163_" class="st13" d="M613.5,215.6c4.5,7.8,10.8,18.6,14.5,27.1c0,0-14.1,9.8-16.6,10.4
			c-1.5,0.4-11.2-14.1-16.3-24.1l-22,38.4l-2.8-3.4c3.2-9.5,15.1-33.1,22.3-44.8c0.1-0.2,1.4,0.2,2.9,0.7c0.7-0.3,1.3-0.7,1.9-1.3
			c1.7-2,1.8-7.2,3.8-8.6c2-1.4,6-2.5,7.4-2.5c0,0,0,0,0,0c0.2,0,0.3,0,0.4,0c9.4,0.8,19.9,3.9,20.8,3.9l22.9-0.1
			c-0.3,1.3,0.1,2.4,0.6,4c-7.5,0.6-15.1,1.6-22.6,2.1C630.7,217.5,619.9,216.3,613.5,215.6z"/>
		<path id="XMLID_162_" class="st14" d="M623.2,245.9c-4.3,2.9-10.3,6.7-11.8,7.1c-1.5,0.4-11.2-14.1-16.3-24.1l-22,38.4l-0.7-0.9
			l20.2-37.6l2.3-4.6l3.5,7.3l0.8-8l0.3-2.3c0,0,11.9,26.2,12.5,27.4C612.8,249.7,623.2,245.9,623.2,245.9z"/>
		<path id="XMLID_161_" class="st15" d="M597.2,220.8c1.1,6.5,2.7,18.7,5.7,35.1l3,4.7l2.4-6.1c-3.5-14.1-4.1-21.4-9.5-35.3
			L597.2,220.8z"/>
		<path id="XMLID_160_" class="st15" d="M598.7,216.9l0.6,3.1l-1.8,1.5c0,0-2.4-2.1-2.4-2.3s1.4-1.5,1.4-1.5L598.7,216.9z"/>
		<path id="XMLID_159_" class="st16" d="M586.4,195.3c-2.2-1-4.6-0.8-4.6-0.8s-1.5-1-3-1c-1.6,0-6.6,5.2-8.2,7.6
			c-1.6,2.4-3.6,3.1-3.6,3.1s1.7,1.9,4.8,2c3.2,0.1,8.2-5.2,8.8-5.5c0.6-0.3,4.3,3.7,4.7,4.9c0.5,1.5,1.3,0.9,1.3-0.2
			c0-1-1.3-2.8-0.7-3.5c3.1-3.6,5.6,2.9,6.3,5.6C594.3,205,591.1,197.4,586.4,195.3z"/>
		<path id="XMLID_158_" class="st7" d="M586.7,203.1c0,0,0.1-0.3,0.3-0.6c0.1-0.2,0.3-0.3,0.5-0.4c0.6-0.2,1.9,1.4,2.2,2.3
			c0.4,0.9-0.8,1.7-1.3,1.7c-0.5-0.1-0.4-0.5-0.4-1c0-0.6-0.2-0.6-0.8-0.6C586.5,204.5,586.6,203.6,586.7,203.1z"/>
		<path id="XMLID_157_" class="st7" d="M591.2,204.9c0,0,0.3,0.7,0,1.1c-0.3,0.5-0.9,1-0.9,1c2.4,0.7,3.6,4.9,3.6,4.7
			c0-0.2,1.1-3.7,0.3-4.1C593.4,207.2,591.2,204.9,591.2,204.9z"/>
		<polygon id="XMLID_156_" class="st17" points="598.4,209.2 601.6,209.7 601.1,217.2 597.1,217.4 		"/>
		<path id="XMLID_155_" class="st17" d="M593.1,220.7l-0.6-2.5l3.3,0c0,0,0.3,3.6,0.3,3.7C596,222,593.1,220.7,593.1,220.7z"/>
		<polygon id="XMLID_154_" class="st13" points="533,307.6 535.7,306.9 538.9,307.3 537.2,309.1 535.4,308.5 		"/>
		<path id="XMLID_153_" class="st7" d="M519.1,303.9c3.7,2.4,7,4.6,10.8,11.7c3.9-2.7,5.1-4.2,9-6.9c0,0-2.8,0.1-5.8-2.2
			c-2.9-2.3-4.3-5.9-4.3-5.9C526.1,301.1,521.9,303.4,519.1,303.9z"/>
		<path id="XMLID_152_" class="st9" d="M525.9,288.7c1.5,0.8,2.3,3,2.3,3c3.3,0.5,5.6-0.4,6.1-0.5c1.1,0.2,0.3,2.4,0.2,2.8
			c-0.1,0.5,2.3,3.5,2.8,5.5c0.5,2-3.5,6.7-6.7,7.5c-3.2,0.8-6.2,0.2-6.2,0.2c-12.8-3.7-17.1-14.5-6.7-19.7
			C519.5,286.7,525,288.3,525.9,288.7z"/>
		<path id="XMLID_151_" class="st7" d="M534.3,291.2c1.1,0.2,0.3,2.4,0.2,2.8c0,0,0,0.1,0,0.2c-0.3,0.1-0.5,0.2-0.7,0.2
			c-0.4,0.1-1.1-0.5-1.1-0.5s1.2-0.1,1.4-0.5C534.2,293,534.3,291.2,534.3,291.2z"/>
		<path id="XMLID_150_" class="st13" d="M520.3,321.8c0.1,0,0.2,0.1,0.2,0.1L511,335l-9.3,16.6l4,3.8c0,0,9.3-15.4,10.5-16.2
			c0.8-0.6,7.4-7.5,11.6-11.8c6.9,7.1,10.7,17.6,11.7,27.2c0,0,15.7-6.1,17.6-7.7c1.6-1.3-0.6-18.5-10.6-39.4
			c-0.6-0.6-7.3,0.5-7.5,0.5c-2.6,0.2-8.9,4.4-11.2,5.9c-1.1,0.7-2.7,2.3-4.2,3.8l-0.1,0l-0.4,0.5
			C521.6,320,520.4,321.4,520.3,321.8z"/>
		<path id="XMLID_149_" class="st14" d="M504.5,354.3l1.2,1.2c0,0,9.3-15.4,10.5-16.2c0.8-0.6,7.4-7.5,11.6-11.8
			c6.9,7.1,10.7,17.6,11.7,27.2c0,0,15.7-6.1,17.6-7.7c0.1,0,0.1-0.1,0.1-0.2l0.1-0.3l0,0c-4.7,1.7-10.2,4.2-15.2,3.3
			c0,0-2.3-5.4-3.6-9c-1.3-3.6-9.4-19.3-9.4-19.3l-2.9,5.2c0,0-11.6,10.9-12,11.4C513.9,338.5,507.1,349.9,504.5,354.3z"/>
		<polygon id="XMLID_148_" class="st18" points="538.3,311.1 550.4,344.4 548.6,352.7 543.9,345 535.9,312 		"/>
		<path id="XMLID_147_" class="st18" d="M534.7,312.1l3.2,0.3l1.1-2.7c0,0-2.2-1.3-2.4-1.3c-0.2,0-2,1.1-2,1.1L534.7,312.1z"/>
		<path id="XMLID_146_" class="st19" d="M512,302.1c-1.2-2-1.2-4.5-1.2-4.5s-1.1-1.4-1.3-2.9c-0.3-4.9,15.7-13.9,13.7-7.2
			c-1,3.5-6.1,7.7-6.4,8.3c-0.3,0.6,4.1,3.9,5.3,4.2c1.6,0.4,1,1.2,0,1.3c-1,0.1-2.9-1-3.5-0.4c-3.3,3.4,3.4,5.3,6.2,5.8
			C522.5,308.9,514.6,306.5,512,302.1z"/>
		<path id="XMLID_145_" class="st7" d="M519.8,301.6c0,0-0.3,0.1-0.6,0.3c-0.1,0.1-0.3,0.3-0.3,0.6c-0.1,0.6,1.5,1.7,2.5,2
			c0.9,0.3,1.7-1,1.5-1.5c-0.1-0.5-0.5-0.3-1.1-0.3c-0.6,0-0.6-0.1-0.6-0.7C521.1,301.2,520.3,301.4,519.8,301.6z"/>
		<path id="XMLID_144_" class="st7" d="M522,305.8c0,0,0.7,0.2,1.1-0.2c0.5-0.4,0.9-1,0.9-1c0.9,2.3,5.2,3.1,5.1,3.1
			c-0.2,0-3.6,1.5-4.1,0.7C524.6,307.8,522,305.8,522,305.8z"/>
		<polygon id="XMLID_143_" class="st17" points="526.4,311.4 526.5,315.3 535.3,314.4 534.9,309.4 		"/>
		<path id="XMLID_142_" class="st17" d="M538.9,307.3l-3.2-0.5l0.5,1.8c0,0,3.2,2.5,3.3,2.5C539.6,311.1,538.9,307.3,538.9,307.3z"
			/>
		<path id="XMLID_141_" class="st11" d="M487.1,432.1l2.3,0.2c6.8,2,21.6,12.7,24.4,17.9c0.5,1-0.5,19.7-0.8,25.8h0
			c0,0,0.9,1,1.3,1.1c0.4,0.1,4-0.2,5.2-0.8c1.2-0.7,1.2,0.1,0.9,0.6c-0.4,0.5-7,4.7-7,4.7l-1-0.5l-0.2,0.9l-3.9-0.3
			c-0.3-1.7-0.4-3.5,0.1-5.1l-1.2-23c0,0-19.2-8.2-20.3-7.6c-1.2,0.6,2.5,23.7,1.1,27.5l-9.9,25.8c1.5,0.4,3,0.9,3.1,3.6l-7.5,4.9
			c-0.9-1.7-0.4-4.4,0.1-6.8l-0.1,0l5.3-28.8c-1.9-11.9-8-25.3-7.8-36.6L487.1,432.1z"/>
		<path id="XMLID_140_" class="st11" d="M487.1,432.1l2.3,0.2c0.2,0.1,0.4,0.1,0.6,0.2c-0.9,0.9-3.9,3.6-4.8,4.4
			c-1.1,0.9-10.1,4.3-10.1,4.3l6.3,28.8l2.7,1.9l-3.4,2.5c0,0-4.5,26.2-4.7,26.6c-0.2,0.4,0.6,4.1,0.6,4.1l1.7-0.2l-4.7,3.1
			c-0.9-1.7-0.4-4.4,0.1-6.8l-0.1,0l5.3-28.8c-1.8-11.3-7.4-23.9-7.8-34.8c1.9-0.9,4.7-2.2,7.3-3.5L487.1,432.1z"/>
		<path id="XMLID_139_" class="st12" d="M487.1,432.1l2.3,0.2c0,0-4,3.7-5.1,4.6c-1.1,0.9-10.1,4.3-10.1,4.3l6.3,28.8l2.7,1.9
			l-3.4,2.5c0,0-4.5,26.2-4.7,26.6c-0.2,0.4,0.6,4.1,0.6,4.1l2.6-0.3l-4.7,3.1c-0.9-1.7-0.4-4.4,0.1-6.8l-0.1,0l5.3-28.8
			c-1.8-11.4-7.5-24.1-7.8-35.1c1.7-0.8,3.8-1.8,6-2.9L487.1,432.1z"/>
		<polygon id="XMLID_138_" class="st13" points="469.6,393.2 485.5,375.9 496.2,361.5 498.8,364.5 490.2,380.2 475.7,400.9 		"/>
		<polygon id="XMLID_137_" class="st13" points="458.7,396.8 468,392.3 471.1,393 469.5,394.6 467.7,393.9 460.2,397.6 		"/>
		<path id="XMLID_136_" class="st7" d="M454.4,385.6c2.8,3.4,5.2,6.5,6.7,14.5c4.5-1.3,6.2-2.5,10.7-3.8c0,0-2.7-0.8-4.8-3.8
			c-2.1-3.1-2.3-6.9-2.3-6.9C461.9,385,457.2,386,454.4,385.6z"/>
		<path id="XMLID_135_" class="st9" d="M465.5,373.2c1.2,1.2,1.3,3.5,1.3,3.5c2.9,1.5,5.5,1.4,6,1.4c1,0.5-0.4,2.3-0.7,2.8
			c-0.3,0.4,1.1,4.1,1,6.1c-0.1,2.1-5.3,5.3-8.7,5.1c-3.3-0.2-5.9-1.7-5.9-1.7c-11-7.4-11.9-19.1-0.4-20.8
			C460,369.3,464.7,372.5,465.5,373.2z"/>
		<path id="XMLID_134_" class="st7" d="M472.7,378.1c1,0.5-0.4,2.3-0.7,2.8c0,0,0,0.1,0,0.1c-0.3,0-0.6,0-0.7,0
			c-0.4-0.1-1-0.8-1-0.8s1.2,0.3,1.5-0.1C472.1,379.8,472.7,378.1,472.7,378.1z"/>
		<path id="XMLID_133_" class="st13" d="M454.6,405.3c10.5,7.5,11.2,34,17.5,33.9c0,0,15.4-5.2,17.4-6.8c1.6-1.3-0.6-18.5-10.6-39.4
			c-0.6-0.6-7.3,0.5-7.5,0.5c-2.6,0.2-8.9,4.4-11.2,5.9C457.8,400.9,454.7,404.6,454.6,405.3z"/>
		<polygon id="XMLID_132_" class="st20" points="470.3,396.7 482.7,429.8 480.9,438.1 476.2,430.5 468.6,397.3 		"/>
		<path id="XMLID_131_" class="st20" d="M467,397.5l1.8,0.5l1.9-0.5l0.6-2.4c0,0-2.2-1.3-2.4-1.3c-0.2,0-2,1.1-2,1.1L467,397.5z"/>
		<path id="XMLID_130_" class="st11" d="M448.2,381.7c-0.5-2.3,0.2-4.7,0.2-4.7s-0.7-1.6-0.3-3.1c0.4-1.5,6.5-5.4,9.2-6.4
			c2.7-1,3.8-2.9,3.8-2.9s1.5,2,0.9,5.1c-0.6,3.1-6.8,6.9-7.2,7.5c-0.5,0.5,2.8,5,3.8,5.6c1.4,0.8,0.6,1.4-0.4,1.2
			c-1-0.2-2.4-1.9-3.2-1.5c-4.2,2.3,1.7,6,4.1,7.4C456,391.4,449.3,386.7,448.2,381.7z"/>
		<path id="XMLID_129_" class="st7" d="M455.7,383.6c0,0-0.3,0-0.6,0.2c-0.2,0.1-0.4,0.2-0.5,0.4c-0.3,0.6,0.9,2.1,1.7,2.7
			c0.8,0.6,1.9-0.4,1.9-0.9c0-0.5-0.4-0.5-0.9-0.6c-0.6-0.2-0.5-0.3-0.4-0.9C457.1,383.6,456.3,383.6,455.7,383.6z"/>
		<path id="XMLID_128_" class="st7" d="M456.6,388.3c0,0,0.6,0.4,1.1,0.2c0.5-0.2,1.2-0.6,1.2-0.6c0.2,2.5,4,4.5,3.9,4.5
			c-0.2,0-3.9,0.3-4.1-0.6C458.4,391,456.6,388.3,456.6,388.3z"/>
		<polygon id="XMLID_127_" class="st17" points="458.7,396.8 458.9,400.7 468.4,399.6 467.2,394.8 		"/>
		<path id="XMLID_126_" class="st17" d="M472.3,393.1l-4.3-0.8l0.5,1.8c0,0,4.2,3.1,4.3,3.1C472.9,397.2,472.3,393.1,472.3,393.1z"
			/>
		<rect id="XMLID_125_" x="445.1" y="423.6" class="st21" width="28.2" height="20.3"/>
		<rect id="XMLID_124_" x="450.8" y="430.6" class="st22" width="19" height="13.7"/>
		<path id="XMLID_123_" class="st23" d="M461.3,439.4c0.1,0,0.6,2.1,0.6,2.1s3.6,2.9,4.4,3.8c0.8,0.9-1.5,0.4-1.5,0.4l-1.3-1
			c0,0-0.1,1.7-0.5,2c-0.1,0.1-4.3,0.4-4.4,0.3c-1.6-0.5-1.2-5.8-1.2-5.8L461.3,439.4z"/>
		<path id="XMLID_122_" class="st13" d="M458.9,400.3c-2.4,1.2-3.6,2.7-4.3,4.7c-2.2,6.7-3.2,16.7-2.4,21.1c1.3,7.3,3,10.9,4.8,16.2
			l5-1.2c0,0-4-12.7-4.2-15.6c-0.2-2.9,1.9-18,4.7-20.4L458.9,400.3z"/>
		<path id="XMLID_121_" class="st14" d="M456.9,441.7l0.2,0.7l5-1.2c0,0-4-12.7-4.2-15.6c-0.1-2.2,1-11.6,2.8-16.9
			c-0.4-1.8-0.7-3.8-0.7-3.8l-1,4.4c0,0-2.8,14.4-2.8,17s4,13.5,4,13.5S457.8,441.2,456.9,441.7z"/>
		<path id="XMLID_120_" class="st9" d="M566.5,269.8c0,0-0.4-3-0.1-3.4c0.3-0.4,3.9-2.4,4-2.3c0.2,0.1,2.8,2.3,2.9,3.8
			c0,0.3-0.1,2.5-0.7,3.7c-0.6,1.1-2.5,1.9-2.5,1.9s-2.7-2.2-3-2.6C566.7,270.3,566.5,269.8,566.5,269.8z"/>
		<path id="XMLID_119_" class="st10" d="M564,274.4c0,0,0.7-2.5,1.4-4.2c0.6-1.6,0.8-2,0.8-2s4-3.2,4.3-2.5c0.3,0.7,0.2,1.7-0.7,2.7
			c-0.9,1-1.3,1.4-1.3,1.5c0,0.1,0.3,1.8,0.7,2.4c0.4,0.5,1,1,1,1s-0.9,1.8-1.9,2.8c-1,1-2,0.9-2,0.9L564,274.4z"/>
		<path id="XMLID_118_" class="st9" d="M569.5,271.9l-0.1,0.9c0,0,0.6,1.6,0.8,1.5c0.2,0,0.9-0.6,0.9-0.7c0.1-0.1,0-0.2,0-0.2
			s0.8-0.1,0.9-0.3c0.2-0.2,0.4-0.9,0.4-0.9s0.6-0.1,0.6-0.3c0-0.2,0-0.9,0-0.9s0.6-0.5,0.7-0.8s-0.9-3.3-0.9-3.3L569.5,271.9z"/>
		<path id="XMLID_117_" class="st11" d="M643.3,100.6l24.9,193.1L666,294c-8.3-64.4-16.6-128.7-24.9-193.1
			C640.9,100,643.1,99.7,643.3,100.6z"/>
		<path id="XMLID_116_" class="st9" d="M659.4,210.3c0.3,0.5,0.1,0.9-1,1.1c-1.1,0.2-1.8,0.4-2.1-0.2
			C655.7,210.2,658.9,209.5,659.4,210.3z"/>
		<path id="XMLID_115_" class="st7" d="M658.2,211.2c1-0.2,1.3-0.5,1.1-1c0,0,0.1,0.1,0.1,0.1c0.3,0.5,0.1,0.9-1,1.1
			c-0.2,0-0.4,0.1-0.5,0.1c-0.8,0.1-1.3,0.2-1.6-0.3c0,0,0,0,0,0c0.3,0.3,0.8,0.2,1.5,0.1C657.9,211.2,658,211.2,658.2,211.2z"/>
		<path id="XMLID_114_" class="st9" d="M659.6,211.5c0.3,0.5,0.1,0.9-1,1.1c-1.1,0.2-1.8,0.4-2.1-0.2
			C655.8,211.4,659.1,210.8,659.6,211.5z"/>
		<path id="XMLID_113_" class="st7" d="M658.4,212.4c1-0.2,1.3-0.5,1.1-1c0,0,0.1,0.1,0.1,0.1c0.3,0.5,0.1,0.9-1,1.1
			c-0.2,0-0.4,0.1-0.5,0.1c-0.8,0.1-1.3,0.2-1.6-0.3c0,0,0,0,0,0c0.3,0.3,0.8,0.2,1.5,0.1C658.1,212.4,658.2,212.4,658.4,212.4z"/>
		<path id="XMLID_112_" class="st9" d="M659.7,212.6c0.3,0.4,0.1,0.8-1,1c-1,0.2-1.6,0.4-1.9-0.2
			C656.3,212.5,659.2,211.9,659.7,212.6z"/>
		<path id="XMLID_111_" class="st7" d="M658.6,213.4c0.9-0.2,1.2-0.5,1-0.9c0,0,0.1,0.1,0.1,0.1c0.3,0.4,0.1,0.8-1,1
			c-0.2,0-0.3,0.1-0.5,0.1c-0.7,0.1-1.2,0.2-1.4-0.3c0,0,0,0,0,0c0.3,0.3,0.7,0.2,1.4,0.1C658.3,213.5,658.4,213.5,658.6,213.4z"/>
		<path id="XMLID_110_" class="st7" d="M657.9,209.9c1-0.2,1.3-0.5,1.1-1c0,0,0.1,0.1,0.1,0.1c0.3,0.5,0.1,0.9-1,1.1
			c-0.2,0-0.4,0.1-0.5,0.1c-0.8,0.1-1.3,0.2-1.6-0.3c0,0,0,0,0,0c0.3,0.3,0.8,0.2,1.5,0.1C657.6,210,657.8,209.9,657.9,209.9z"/>
		<path id="XMLID_109_" class="st9" d="M659.1,209c0.3,0.5,0.1,0.9-1,1.1c-1.1,0.2-1.8,0.4-2.1-0.2
			C655.4,208.9,658.7,208.3,659.1,209z"/>
		<path id="XMLID_108_" class="st9" d="M653.8,209.4c0.8-0.8,2.1-1.5,2.9-0.7c0.8,0.8,1.4,1.7,0.9,2.1c-0.9,0.7-2-0.7-2.1-0.6
			c-0.2,0.3,0.3,3.5-0.1,4.7c-1,0.3-2.1,0.5-2.3,0.3c-0.3-0.3-0.7-3.4-0.4-3.9C653.1,210.3,653.5,209.8,653.8,209.4z"/>
		<path id="XMLID_107_" class="st7" d="M657.8,210.7c0,0.1-0.1,0.1-0.1,0.2c-0.9,0.7-2-0.7-2.1-0.6c-0.2,0.3,0.3,3.5-0.1,4.7
			c-0.4,0.1-0.8,0.3-1.2,0.3c0.9-1.6,0.9-5.5,0.9-5.5l0.8-0.1L657.8,210.7z"/>
		<path id="XMLID_106_" class="st24" d="M641.2,102c-5.5,16.1-0.7,26.8,6.6,44.2c0,0-29.9-0.8-41.7-1s-9.4,13.6-22.7,13.8
			c-13.3,0.2-34.8-10.8-42.9-9.8c-8.1,1-1.9,13.8-12.1,13.6c-10.2-0.2-26.9-10.3-26.9-10.3s25.1,1,23.9-5.6
			c-1.2-6.6-12.4-26.5,6.7-23.7c19,2.8,48.3,3.8,51.4-0.8c3.1-4.6-8.3-15.1,5.4-18.1C602.5,101.3,641.2,102,641.2,102z"/>
		<path id="XMLID_105_" class="st19" d="M541.3,303.4c4.7,15.5,4.7,36.4-0.8,51.6l-2.1-0.8c5.4-14.8,5.4-33.5,0.8-48.5
			C538.5,304.5,541,302.9,541.3,303.4z"/>
		<polygon id="XMLID_104_" class="st25" points="543.5,350.9 526.3,355.4 521,357.4 523.6,377.6 542.3,378.5 546.5,377.4 		"/>
		<polygon id="XMLID_103_" class="st19" points="541.1,351.8 521,357.4 522.4,377.5 542.3,378.5 		"/>
		<path id="XMLID_102_" class="st25" d="M541.1,351.8c0,0-3,9.1-4.4,11.5c-1.4,2.4-11.3,2.4-12.9,2.2c-1.6-0.2-2.8-8-2.8-8l21.4-6.3
			L541.1,351.8z"/>
		<path id="XMLID_101_" class="st14" d="M486.4,432.3c-1.2,0.6-2.9,1.3-4.6,2l-0.3,1.6c3.6-1.4,7.1-2.8,8-3.5
			c0.4-0.3,0.6-1.7,0.4-3.9c-0.6,1.2-1.3,2.4-2,3C487.6,431.7,487.1,432,486.4,432.3z"/>
		<path id="XMLID_100_" class="st14" d="M479.9,436.5l-0.7-1.2c-2.5,0.9-4.5,1.6-4.6,1.5c-0.1-0.1-0.1-0.7-0.2-1.7
			c-0.2-3.8-0.4-12.2-0.4-12.2l-8.4,0c0,0-3.4-10.2-4-11.8c-0.2-0.5-0.5-1.5-0.7-2.4c-0.3,1-0.7,2.1-0.9,3.3
			c1.9,3.5,3.3,7.7,4.5,11.7h8.9v11.7v3.5C474.8,438.3,477.3,437.4,479.9,436.5z"/>
		<path id="XMLID_99_" class="st14" d="M490.2,380.2l8.6-15.7l-1.3-1.5c0,0-0.1,0.1-0.2,0.4c-1.3,2.3-8.7,15.1-9.7,16.8
			c-1.1,1.8-8.8,12.8-8.8,12.8c0,0,0,0,0,0c0.3,0.7,0.7,1.4,1,2.1L490.2,380.2z"/>
		<path id="XMLID_98_" class="st12" d="M486.8,446.2c1.2-0.6,20.3,7.6,20.3,7.6l1.2,23c-0.5,1.6-0.4,3.4-0.1,5.1l1.1,0.1l-0.3-0.8
			c0,0-0.1-2.3-0.1-2.5c0.1-0.2,2.1-1.8,2.1-1.8l-1.9-1l0.5-24.6h-3.2l-19.1-8.4L486.8,446.2z"/>
		<path id="XMLID_97_" class="st14" d="M547.5,309.7l10.4-14.9l8.4-17.7l-1.1-1.3l-8.5,17.5l-10.5,14.2c0.2,0,0.3,0.1,0.4,0.1
			C546.8,308.3,547.2,309,547.5,309.7z"/>
		<path id="XMLID_96_" class="st14" d="M617.5,225c0,0,7.4,12.6,9.3,17.3c0.1,0.3-2.3,2.4-2.2,2.7c2-1.3,3.3-2.3,3.3-2.3
			c-3.7-8.4-10-19.3-14.5-27.1c6.4,0.7,17.2,1.9,17.2,1.9c7.5-0.6,15.1-1.6,22.6-2.1c0,0,0,0,0,0c-0.1,0-0.1,0-0.2-0.1
			c-0.1-0.1-0.3-0.8-0.4-1.6l-21.2,2.7l-14.3-1.6l-6-0.5L617.5,225z"/>
		<path id="XMLID_95_" class="st12" d="M609,281.8c0,0,15.3-22.6,16.5-23.2c1.2-0.6,26.2,4,26.2,4l4.9,27.1c-0.5,1.2-0.7,2.6-0.7,4
			l1.6,0.5l-0.3-1.2l1.6-3.6l-4.6-29.2c0,0-1.5-0.1-2.6,0.4c-1.1,0.4-28.3-5.2-28.3-5.2L608.4,277l-2.4,3.5l-10,30.3l1.1,4.2
			l1.7-0.5c0-1.1-0.2-2.2-0.5-3.3L609,281.8z"/>
		<path id="XMLID_94_" class="st16" d="M580.9,199.2c0,0-2,5.1-4.3,7.3c-2.3,2.2-5.4,2.2-6.8,1.8c-1.5-0.4-1.8-0.8-1.8-0.8l2.4-0.4
			c0,0-0.6,0-1.8-0.7c-1.2-0.7-1.6-1-1.6-1s1.8,0.2,4.8-1.2c3-1.4,6.7-4.6,7.4-4.8C579.8,199.1,580.9,199.2,580.9,199.2z"/>
	</g>
	<g id="XMLID_61_">
		<polygon id="XMLID_92_" class="st26" points="793.2,206.9 675.6,249 672.8,289.3 657,297.3 590,317.1 594.4,367.6 588.9,397.3 
			524.7,424.2 523,475.3 485.6,500 442.8,528.2 443.3,569.8 398.1,612.1 793.2,612.1 		"/>
		<polygon id="XMLID_91_" class="st27" points="793.2,418.9 793.2,330.7 717.3,327.2 737.5,334.8 713.9,391.2 		"/>
		<polygon id="XMLID_90_" class="st27" points="793.2,307.6 793.2,264.4 737.3,288.6 		"/>
		<path id="XMLID_89_" class="st28" d="M793.2,206.9L675.6,249l-2.8,40.3l-15.8,7.9l-67,19.8l4.4,50.5l-5.5,29.7l-64.3,26.9
			l-1.6,51.1L485.6,500l-42.8,28.2l0.5,41.6l-45.3,42.3h94.7c3.7-16.2,7.3-32.3,7.3-32.3l18.6-54.9l78.1-17.7l-45.6-20.7l8.4-29.5
			l46.8-25.7l-32.1-8.4l54.9-24.5l-5.9-40.1l35-16.9l-29.5-16l61.4-28.9c0,0,46-7.4,47.1-7.8c1.1-0.4-28.7-11.2-28.7-11.2l7-32.9
			l77.6-28.2V206.9z"/>
		<path id="XMLID_88_" class="st27" d="M672.8,289.3l-15.8,7.9l33.2-0.9c0,0,46-7.4,47.1-7.8c1.1-0.4-28.7-11.2-28.7-11.2
			L672.8,289.3z"/>
		<polygon id="XMLID_87_" class="st29" points="590,317.1 594.4,367.6 623.4,358.2 658.4,341.3 628.9,325.3 		"/>
		<polygon id="XMLID_86_" class="st27" points="588.9,397.3 524.7,424.2 524.4,433.1 572.5,428.8 583.7,425.2 574.4,422.8 
			629.3,398.3 		"/>
		<polygon id="XMLID_85_" class="st30" points="523,475.3 485.6,500 442.8,528.2 443,546.3 510.3,549.7 518.7,524.9 596.8,507.2 
			551.2,486.5 		"/>
		<path id="XMLID_84_" class="st27" d="M442.8,528.2l0.5,41.6l-45.3,42.3h94.7c3.7-16.2,7.3-32.3,7.3-32.3l18.6-54.9L442.8,528.2z"
			/>
		<polygon id="XMLID_83_" class="st27" points="524.7,424.2 523,475.3 551.2,486.5 559.7,457 		"/>
		<polygon id="XMLID_82_" class="st30" points="574.4,422.8 524.7,424.2 559.7,457 606.5,431.2 		"/>
		<path id="XMLID_81_" class="st30" d="M658.4,341.3l-29.5-16l-38.5-8.2c-0.1,0-0.2,0.1-0.3,0.1l4.4,50.4l29-9.4L658.4,341.3z"/>
		<polygon id="XMLID_80_" class="st30" points="793.2,206.9 675.6,249 715.6,244.5 793.2,216.3 		"/>
		<polygon id="XMLID_79_" class="st27" points="628.9,325.3 658.4,341.3 739.1,334.7 690.3,296.4 		"/>
		<path id="XMLID_76_" class="st30" d="M793.2,342v-34.4V342L793.2,342z M690.3,296.4l48.8,38.3l54.1,7.3l0-34.4l-55.8-19
			C736.3,289,690.3,296.4,690.3,296.4z"/>
		<polygon id="XMLID_75_" class="st27" points="713.9,391.2 658.4,341.3 623.4,358.2 629.3,398.3 		"/>
		<polygon id="XMLID_74_" class="st28" points="629.3,398.3 574.4,422.8 583.7,425.2 606.5,431.2 666.9,435.9 		"/>
		<polygon id="XMLID_73_" class="st30" points="713.9,391.2 629.3,398.3 666.9,435.9 695.3,456.2 		"/>
		<polygon id="XMLID_72_" class="st31" points="713.9,391.2 695.3,456.2 793.2,418.9 		"/>
		<path id="XMLID_71_" class="st30" d="M443.3,569.8l-45.2,42.3l94.7,0c3.7-16.2,7.3-32.3,7.3-32.3l0.7-2L443.3,569.8z"/>
		<polygon id="XMLID_70_" class="st28" points="551.2,486.5 596.8,507.2 645.5,503.3 559.7,457 		"/>
		<polygon id="XMLID_69_" class="st27" points="559.7,457 645.5,503.3 607.7,431.3 606.5,431.2 		"/>
		<polygon id="XMLID_68_" class="st32" points="695.3,456.2 666.9,435.9 607.7,431.3 645.5,503.3 		"/>
		<path id="XMLID_67_" class="st27" d="M492.8,612.1h165.5l-11.6-48l-145.9,13.8l-0.7,2C500.1,579.8,496.5,595.9,492.8,612.1z"/>
		<polygon id="XMLID_66_" class="st33" points="500.8,577.9 646.7,564 596.8,507.2 518.7,524.9 510.3,549.7 		"/>
		<polygon id="XMLID_65_" class="st28" points="695.3,456.2 645.5,503.3 727,521.2 751.9,488.9 		"/>
		<polygon id="XMLID_64_" class="st34" points="727,521.2 645.5,503.3 596.8,507.2 646.7,564 		"/>
		<polygon id="XMLID_63_" class="st35" points="727,521.2 646.7,564 658.3,612.1 751.7,612.1 		"/>
		<polygon id="XMLID_62_" class="st34" points="793.2,495.1 793.2,418.9 695.3,456.2 751.9,488.9 		"/>
	</g>
</g>
<linearGradient id="XMLID_15_" gradientUnits="userSpaceOnUse" x1="611.8747" y1="222.2195" x2="607.8886" y2="217.4428" gradientTransform="matrix(0.7845 -0.6202 0.6202 0.7845 -6.4651 425.0914)">
	<stop  offset="0" style="stop-color:#6CC17D"/>
	<stop  offset="0.5215" style="stop-color:#48BFEA"/>
	<stop  offset="1" style="stop-color:#137DC1"/>
</linearGradient>
<path id="XMLID_1_" class="st36" d="M609.5,220.4L609.5,220.4L609.5,220.4L609.5,220.4c-0.3,0.5-0.5,0.7-1,1.1
	c-0.5,0.4-2.3,1.3-2.7,0c0.2,1,1.3,1,2.4,0.6c0.7,0,1.5-0.2,2.1-0.7c1.3-1.1,1.6-3,0.5-4.4c-1.1-1.3-3-1.6-4.4-0.5
	c-1.3,1.1-1.6,3-0.5,4.4c0.1,0.2,0.3,0.4,0.5,0.5c0.9,0.1,2.1-1.5,1.4-2.5l-0.3,0.1l0.4-1l0.9,0.7l-0.3,0.1c0.5,1.1-0.5,2.3-1.3,2.8
	c-0.7,0.3-1.2,0.2-1.4-0.5c0.2,2.6,5.2-0.7,3.2-3.5l-0.3,0.1l0,0l0,0l0.2-1l0,0l0,0l1,0.5l-0.3,0.1c0.1,0.3,0.3,0.5,0.3,0.7l0,0
	c0,0,0,0,0,0.1c0.2,0.7,0.1,1.3-0.1,1.9l0,0c0,0,0,0,0,0C609.6,220.2,609.6,220.3,609.5,220.4z"/>
</svg>
