<?xml version="1.0" encoding="utf-8"?>
<!-- Generator: Adobe Illustrator 19.0.0, SVG Export Plug-In . SVG Version: 6.00 Build 0)  -->
<svg version="1.1" id="Camada_1" xmlns="http://www.w3.org/2000/svg" xmlns:xlink="http://www.w3.org/1999/xlink" x="0px" y="0px"
	 viewBox="0 0 792 612" style="enable-background:new 0 0 792 612;" xml:space="preserve">
<style type="text/css">
	.st0{fill:#0D1F47;}
	.st1{fill:none;stroke:#00B2E7;stroke-width:2;stroke-miterlimit:10;}
	.st2{fill:#00B2E7;}
	.st3{fill:none;stroke:#00B2E7;stroke-width:2;stroke-linecap:round;stroke-linejoin:round;}
	.st4{fill:#FDFCEB;stroke:#00B2E7;stroke-width:2;stroke-miterlimit:10;}
	.st5{fill:none;stroke:#00B2E7;stroke-width:1.8954;stroke-miterlimit:10;}
	.st6{fill:none;stroke:#00B2E7;stroke-width:2;stroke-linecap:round;stroke-linejoin:round;stroke-miterlimit:10;}
	.st7{fill:#FFFAE1;stroke:#00B2E7;stroke-width:2;stroke-linecap:round;stroke-linejoin:round;stroke-miterlimit:10;}
	.st8{fill:none;stroke:#00598F;stroke-width:2;stroke-linecap:round;stroke-linejoin:round;}
	.st9{fill:#00598F;}
	.st10{fill:none;stroke:#00598F;stroke-width:2;stroke-miterlimit:10;}
</style>
<rect id="XMLID_575_" x="-5" y="52.4" class="st0" width="804.2" height="526.1"/>
<g id="XMLID_258_">
	<g id="XMLID_207_">
		<line id="XMLID_211_" class="st1" x1="193" y1="578.5" x2="193" y2="557"/>
		<g id="XMLID_208_">
			<circle id="XMLID_210_" class="st2" cx="193" cy="557.3" r="4.5"/>
		</g>
	</g>
</g>
<g id="XMLID_215_">
	<g id="XMLID_212_">
		<line id="XMLID_216_" class="st3" x1="50.1" y1="578.5" x2="50.1" y2="564.1"/>
		<g id="XMLID_213_">
			<circle id="XMLID_214_" class="st2" cx="50.1" cy="564.3" r="4.5"/>
		</g>
	</g>
</g>
<g id="XMLID_551_">
	<path id="XMLID_562_" class="st1" d="M133.3,511.5h-29c-3.4,0-6.1-2.7-6.1-6.1v-59.6c0-3.4,2.7-6.1,6.1-6.1h29
		c3.4,0,6.1,2.7,6.1,6.1v59.6C139.4,508.8,136.7,511.5,133.3,511.5z"/>
	<line id="XMLID_561_" class="st1" x1="98.2" y1="448.4" x2="139.4" y2="448.4"/>
	<line id="XMLID_560_" class="st1" x1="98.2" y1="498.6" x2="139.4" y2="498.6"/>
	<path id="XMLID_559_" class="st1" d="M123.2,507.1h-8.7c-0.8,0-1.4-0.6-1.4-1.4l0,0c0-0.7,0.6-1.4,1.4-1.4h8.7
		c0.8,0,1.4,0.6,1.4,1.4l0,0C124.5,506.5,123.9,507.1,123.2,507.1z"/>
	<ellipse id="XMLID_558_" class="st4" cx="118.8" cy="444.1" rx="1.2" ry="1.2"/>
	<rect id="XMLID_557_" x="105.4" y="483.1" class="st1" width="26.8" height="6.6"/>
	<line id="XMLID_556_" class="st1" x1="105.4" y1="476.4" x2="132.2" y2="476.4"/>
	<line id="XMLID_555_" class="st1" x1="105.4" y1="472.1" x2="132.2" y2="472.1"/>
	<line id="XMLID_554_" class="st1" x1="105.4" y1="467.8" x2="132.2" y2="467.8"/>
	<line id="XMLID_553_" class="st1" x1="105.4" y1="463.4" x2="132.2" y2="463.4"/>
	<line id="XMLID_552_" class="st1" x1="105.4" y1="459.1" x2="132.2" y2="459.1"/>
</g>
<g id="XMLID_520_">
	<g id="XMLID_535_">
		<rect id="XMLID_539_" x="263.1" y="465.7" class="st5" width="54.1" height="17.3"/>
		<rect id="XMLID_538_" x="268.8" y="473.1" class="st1" width="14" height="3.2"/>
		<ellipse id="XMLID_537_" class="st1" cx="300.4" cy="474.7" rx="2.2" ry="2.1"/>
		<ellipse id="XMLID_536_" class="st1" cx="308.2" cy="474.7" rx="2.2" ry="2.1"/>
	</g>
	<g id="XMLID_521_">
		<g id="XMLID_529_">
			<path id="XMLID_534_" class="st6" d="M296.2,430.1c2.7,0,4.8,2.1,4.8,4.7c0,2.6-2.1,4.7-4.8,4.7"/>
			<path id="XMLID_533_" class="st6" d="M296.2,439.6c2.7,0,4.8-2.1,4.8-4.7c0-2.6-2.1-4.7-4.8-4.7"/>
			<path id="XMLID_532_" class="st6" d="M301,425.8L301,425.8c3.3,1.7,5.5,5.1,5.5,9.1c0,3.9-2.2,7.3-5.5,9"/>
			<path id="XMLID_531_" class="st6" d="M306.8,422.8c3.4,2.9,5.6,7.2,5.6,12c0,4.8-2.2,9.1-5.6,12"/>
			<path id="XMLID_530_" class="st6" d="M301.1,443.9c3.3-1.7,5.5-5.1,5.5-9c0-3.9-2.2-7.3-5.5-9.1h0"/>
		</g>
		<g id="XMLID_523_">
			<path id="XMLID_528_" class="st6" d="M284.2,430.1c-2.7,0-4.8,2.1-4.8,4.7c0,2.6,2.1,4.7,4.8,4.7"/>
			<path id="XMLID_527_" class="st6" d="M284.2,439.6c-2.7,0-4.8-2.1-4.8-4.7c0-2.6,2.1-4.7,4.8-4.7"/>
			<path id="XMLID_526_" class="st6" d="M279.4,443.9c-3.3-1.7-5.5-5.1-5.5-9c0-3.9,2.2-7.3,5.5-9.1h0"/>
			<path id="XMLID_525_" class="st6" d="M273.7,446.8c-3.4-2.9-5.6-7.2-5.6-12c0-4.8,2.2-9.1,5.6-12"/>
			<path id="XMLID_524_" class="st6" d="M279.4,425.8L279.4,425.8c-3.3,1.7-5.5,5.1-5.5,9.1c0,3.9,2.2,7.3,5.5,9"/>
		</g>
		<polygon id="XMLID_522_" class="st1" points="292.4,465.7 288.1,465.7 289.2,433.9 291.2,433.9 		"/>
	</g>
</g>
<g id="XMLID_500_">
	<g id="XMLID_504_">
		<path id="XMLID_509_" class="st6" d="M612.7,448.8c0-3.1,2.5-5.5,5.6-5.5c3.1,0,5.6,2.5,5.6,5.5"/>
		<path id="XMLID_508_" class="st6" d="M624,448.8c0-3.1-2.5-5.5-5.6-5.5c-3.1,0-5.6,2.5-5.6,5.5"/>
		<path id="XMLID_507_" class="st6" d="M607.6,443.2L607.6,443.2c2.1-3.8,6.1-6.4,10.8-6.4c4.7,0,8.7,2.6,10.7,6.4"/>
		<path id="XMLID_506_" class="st6" d="M604,436.6c3.5-4,8.6-6.5,14.3-6.5c5.7,0,10.8,2.5,14.3,6.5"/>
		<path id="XMLID_505_" class="st6" d="M629.1,443.2c-2-3.8-6.1-6.4-10.7-6.4c-4.7,0-8.7,2.6-10.8,6.4v0"/>
	</g>
	<path id="XMLID_503_" class="st6" d="M646.9,489.2h-57.1c-2.3,0-4.2-1.9-4.2-4.2v-73.2c0-2.3,1.9-4.2,4.2-4.2h57.1
		c2.3,0,4.2,1.9,4.2,4.2V485C651.1,487.3,649.2,489.2,646.9,489.2z"/>
	<rect id="XMLID_502_" x="591" y="412.7" class="st6" width="54.7" height="65.3"/>
	<ellipse id="XMLID_501_" class="st6" cx="618.3" cy="484.1" rx="2.7" ry="2.7"/>
</g>
<g id="XMLID_456_">
	<rect id="XMLID_477_" x="406.6" y="453.8" class="st1" width="44.6" height="62.3"/>
	<rect id="XMLID_476_" x="412" y="458.6" class="st1" width="33.8" height="28"/>
	<g id="XMLID_473_">
		<ellipse id="XMLID_475_" class="st1" cx="428.9" cy="500.8" rx="10" ry="9.9"/>
		<ellipse id="XMLID_474_" class="st1" cx="428.9" cy="500.8" rx="4.9" ry="4.8"/>
	</g>
	<g id="XMLID_457_">
		<g id="XMLID_466_">
			<line id="XMLID_472_" class="st7" x1="434.6" y1="482.1" x2="440.9" y2="482.1"/>
			<line id="XMLID_471_" class="st7" x1="434.6" y1="478.9" x2="440.9" y2="478.9"/>
			<line id="XMLID_470_" class="st7" x1="434.6" y1="475.8" x2="440.9" y2="475.8"/>
			<line id="XMLID_469_" class="st7" x1="434.6" y1="472.6" x2="440.9" y2="472.6"/>
			<line id="XMLID_468_" class="st7" x1="434.6" y1="469.5" x2="440.9" y2="469.5"/>
			<line id="XMLID_467_" class="st7" x1="434.6" y1="466.3" x2="440.9" y2="466.3"/>
		</g>
		<g id="XMLID_461_">
			<line id="XMLID_465_" class="st7" x1="425.8" y1="482.1" x2="432.1" y2="482.1"/>
			<line id="XMLID_464_" class="st7" x1="425.8" y1="478.9" x2="432.1" y2="478.9"/>
			<line id="XMLID_463_" class="st7" x1="425.8" y1="475.8" x2="432.1" y2="475.8"/>
			<line id="XMLID_462_" class="st7" x1="425.8" y1="472.6" x2="432.1" y2="472.6"/>
		</g>
		<g id="XMLID_458_">
			<line id="XMLID_460_" class="st7" x1="417" y1="482.1" x2="423.3" y2="482.1"/>
			<line id="XMLID_459_" class="st7" x1="417" y1="478.9" x2="423.3" y2="478.9"/>
		</g>
	</g>
</g>
<g id="XMLID_252_">
	<g id="XMLID_201_">
		<polyline id="XMLID_205_" class="st1" points="209.9,578.5 209.9,508.1 198.6,497.8 198.6,415.3 		"/>
		<g id="XMLID_202_">
			<circle id="XMLID_204_" class="st2" cx="198.6" cy="415.6" r="4.5"/>
		</g>
	</g>
</g>
<g id="XMLID_246_">
	<g id="XMLID_218_">
		<polyline id="XMLID_222_" class="st8" points="158.1,377.4 158.1,527.2 149.5,534.8 149.5,577.5 		"/>
		<g id="XMLID_219_">
			<circle id="XMLID_220_" class="st9" cx="158.1" cy="377.6" r="4.5"/>
		</g>
	</g>
</g>
<g id="XMLID_240_">
	<g id="XMLID_193_">
		<line id="XMLID_199_" class="st8" x1="136.1" y1="577.5" x2="136.1" y2="537.1"/>
		<g id="XMLID_194_">
			<circle id="XMLID_198_" class="st9" cx="136.1" cy="537.3" r="4.5"/>
		</g>
	</g>
</g>
<line id="XMLID_239_" class="st6" x1="119.7" y1="577.5" x2="119.7" y2="510.7"/>
<g id="XMLID_233_">
	<g id="XMLID_187_">
		<line id="XMLID_191_" class="st3" x1="103.2" y1="577.5" x2="103.2" y2="530.6"/>
		<g id="XMLID_188_">
			<circle id="XMLID_190_" class="st2" cx="103.2" cy="530.8" r="4.5"/>
		</g>
	</g>
</g>
<g id="XMLID_227_">
	<g id="XMLID_181_">
		<polyline id="XMLID_185_" class="st8" points="84,577.5 84,528.2 71.1,515.8 71.1,402.4 		"/>
		<g id="XMLID_182_">
			<circle id="XMLID_184_" class="st9" cx="71.1" cy="402.6" r="4.5"/>
		</g>
	</g>
</g>
<g id="XMLID_221_">
	<g id="XMLID_175_">
		<polyline id="XMLID_179_" class="st3" points="69,577.5 69,542.8 50.8,525.4 50.8,437.2 		"/>
		<g id="XMLID_176_">
			<circle id="XMLID_178_" class="st2" cx="50.8" cy="437.4" r="4.5"/>
		</g>
	</g>
</g>
<g id="XMLID_209_">
	<g id="XMLID_168_">
		<polyline id="XMLID_172_" class="st3" points="28.5,577.5 28.5,525.5 35.5,518.7 35.5,406.1 		"/>
		<g id="XMLID_169_">
			<circle id="XMLID_170_" class="st2" cx="35.5" cy="406.3" r="4.5"/>
		</g>
	</g>
</g>
<g id="XMLID_203_">
	<g id="XMLID_162_">
		<polyline id="XMLID_166_" class="st3" points="6.9,577.5 6.9,520.6 21.3,506.9 21.3,459.2 		"/>
		<g id="XMLID_163_">
			<circle id="XMLID_164_" class="st2" cx="21.3" cy="459.4" r="4.5"/>
		</g>
	</g>
</g>
<g id="XMLID_197_">
	<g id="XMLID_157_">
		<line id="XMLID_161_" class="st3" x1="4" y1="498" x2="4" y2="422.6"/>
		<g id="XMLID_158_">
			<circle id="XMLID_160_" class="st2" cx="4" cy="422.8" r="4.5"/>
		</g>
	</g>
</g>
<path id="XMLID_196_" class="st6" d="M427.2,516.2c0,4,0,61,0,61"/>
<line id="XMLID_195_" class="st6" x1="618.3" y1="491.4" x2="618.3" y2="577.2"/>
<g id="XMLID_189_">
	<g id="XMLID_151_">
		<polyline id="XMLID_155_" class="st3" points="633.7,577.2 633.7,524.1 646,513.5 646,513.2 		"/>
		<g id="XMLID_152_">
			<circle id="XMLID_154_" class="st2" cx="646" cy="513.4" r="4.5"/>
		</g>
	</g>
</g>
<g id="XMLID_183_">
	<g id="XMLID_145_">
		<line id="XMLID_149_" class="st8" x1="670" y1="577.2" x2="670" y2="365.3"/>
		<g id="XMLID_146_">
			<circle id="XMLID_148_" class="st9" cx="670" cy="365.5" r="4.5"/>
		</g>
	</g>
</g>
<g id="XMLID_177_">
	<g id="XMLID_139_">
		<polyline id="XMLID_143_" class="st3" points="687.1,577.2 687.1,514.1 700.7,501.4 700.7,384.8 		"/>
		<g id="XMLID_140_">
			<circle id="XMLID_142_" class="st2" cx="700.7" cy="385.1" r="4.5"/>
		</g>
	</g>
</g>
<g id="XMLID_171_">
	<g id="XMLID_133_">
		<line id="XMLID_137_" class="st3" x1="704.9" y1="577.2" x2="704.9" y2="547.9"/>
		<g id="XMLID_134_">
			<circle id="XMLID_136_" class="st2" cx="704.9" cy="548.1" r="4.5"/>
		</g>
	</g>
</g>
<g id="XMLID_165_">
	<g id="XMLID_127_">
		<polyline id="XMLID_131_" class="st8" points="733.4,577.2 733.4,532.6 721.3,521.4 721.3,443.8 		"/>
		<g id="XMLID_128_">
			<circle id="XMLID_130_" class="st9" cx="721.3" cy="444" r="4.5"/>
		</g>
	</g>
</g>
<g id="XMLID_159_">
	<g id="XMLID_121_">
		<polyline id="XMLID_125_" class="st3" points="755.4,577.2 755.4,526 742,513.4 742,405.2 		"/>
		<g id="XMLID_122_">
			<circle id="XMLID_124_" class="st2" cx="742" cy="405.4" r="4.5"/>
		</g>
	</g>
</g>
<g id="XMLID_153_">
	<g id="XMLID_115_">
		<line id="XMLID_119_" class="st3" x1="771.6" y1="577.2" x2="771.6" y2="450.6"/>
		<g id="XMLID_116_">
			<circle id="XMLID_118_" class="st2" cx="771.6" cy="450.8" r="4.5"/>
		</g>
	</g>
</g>
<g id="XMLID_147_">
	<g id="XMLID_109_">
		<line id="XMLID_113_" class="st8" x1="787.4" y1="577.2" x2="787.4" y2="506.5"/>
		<g id="XMLID_110_">
			<circle id="XMLID_112_" class="st9" cx="787.4" cy="506.8" r="4.5"/>
		</g>
	</g>
</g>
<g id="XMLID_141_">
	<g id="XMLID_103_">
		<line id="XMLID_107_" class="st3" x1="302.4" y1="578" x2="302.4" y2="520.5"/>
		<g id="XMLID_104_">
			<circle id="XMLID_106_" class="st2" cx="302.4" cy="520.7" r="4.5"/>
		</g>
	</g>
</g>
<g id="XMLID_135_">
	<g id="XMLID_97_">
		<polyline id="XMLID_101_" class="st8" points="315.7,578 315.7,500.9 325.4,491.9 325.4,415.3 		"/>
		<g id="XMLID_98_">
			<circle id="XMLID_100_" class="st9" cx="325.4" cy="415.6" r="4.5"/>
		</g>
	</g>
</g>
<g id="XMLID_129_">
	<g id="XMLID_91_">
		<polyline id="XMLID_95_" class="st3" points="336.3,577.2 336.3,515.4 350.6,502.2 350.6,443.8 		"/>
		<g id="XMLID_92_">
			<circle id="XMLID_94_" class="st2" cx="350.6" cy="444" r="4.5"/>
		</g>
	</g>
</g>
<g id="XMLID_123_">
	<g id="XMLID_85_">
		<polyline id="XMLID_89_" class="st8" points="359.8,577.2 359.8,554.2 351.4,548 351.4,533.4 		"/>
		<g id="XMLID_86_">
			<circle id="XMLID_88_" class="st9" cx="351.4" cy="533.6" r="4.5"/>
		</g>
	</g>
</g>
<g id="XMLID_117_">
	<g id="XMLID_79_">
		<polyline id="XMLID_83_" class="st3" points="378.4,577.2 378.4,535.6 365,523.1 365,420.6 		"/>
		<g id="XMLID_80_">
			<circle id="XMLID_82_" class="st2" cx="365" cy="420.8" r="4.5"/>
		</g>
	</g>
</g>
<g id="XMLID_111_">
	<g id="XMLID_73_">
		<polyline id="XMLID_77_" class="st3" points="405.1,577.2 405.1,547.3 389.1,515.4 389.1,443.8 		"/>
		<g id="XMLID_74_">
			<circle id="XMLID_76_" class="st2" cx="389.1" cy="444" r="4.5"/>
		</g>
	</g>
</g>
<g id="XMLID_105_">
	<g id="XMLID_68_">
		<polyline id="XMLID_71_" class="st3" points="444.2,577.2 444.2,538.8 463.8,519.8 463.8,437.2 		"/>
		<g id="XMLID_69_">
			<circle id="XMLID_70_" class="st2" cx="463.8" cy="437.4" r="4.5"/>
		</g>
	</g>
</g>
<g id="XMLID_99_">
	<g id="XMLID_63_">
		<polyline id="XMLID_66_" class="st8" points="471.1,577.2 471.1,548.2 484.4,535.5 484.4,395 		"/>
		<g id="XMLID_64_">
			<circle id="XMLID_65_" class="st9" cx="484.4" cy="395.2" r="4.5"/>
		</g>
	</g>
</g>
<g id="XMLID_93_">
	<g id="XMLID_58_">
		<line id="XMLID_61_" class="st8" x1="594.1" y1="577.2" x2="594.1" y2="515.8"/>
		<g id="XMLID_59_">
			<circle id="XMLID_60_" class="st9" cx="594.1" cy="516" r="4.5"/>
		</g>
	</g>
</g>
<g id="XMLID_87_">
	<g id="XMLID_53_">
		<polyline id="XMLID_56_" class="st3" points="567.7,577.2 567.7,528.5 542.3,505 542.3,438.6 		"/>
		<g id="XMLID_54_">
			<circle id="XMLID_55_" class="st2" cx="542.3" cy="438.9" r="4.5"/>
		</g>
	</g>
</g>
<g id="XMLID_81_">
	<g id="XMLID_48_">
		<polyline id="XMLID_51_" class="st8" points="542.3,577.2 542.3,543.1 519.9,522 519.9,415.3 		"/>
		<g id="XMLID_49_">
			<circle id="XMLID_50_" class="st9" cx="519.9" cy="415.6" r="4.5"/>
		</g>
	</g>
</g>
<g id="XMLID_75_">
	<g id="XMLID_43_">
		<line id="XMLID_46_" class="st3" x1="500.1" y1="577.2" x2="500.1" y2="446.9"/>
		<g id="XMLID_44_">
			<circle id="XMLID_45_" class="st2" cx="500.1" cy="447.1" r="4.5"/>
		</g>
	</g>
</g>
<g id="XMLID_38_">
	<g id="XMLID_37_">
		<polyline id="XMLID_41_" class="st1" points="166.8,578.5 166.8,530.2 178.9,521 178.9,420.6 		"/>
		<g id="XMLID_39_">
			<circle id="XMLID_40_" class="st2" cx="178.9" cy="420.8" r="4.5"/>
		</g>
	</g>
</g>
<g id="XMLID_32_">
	<g id="XMLID_31_">
		<line id="XMLID_35_" class="st10" x1="220.5" y1="578.5" x2="220.5" y2="482.9"/>
		<g id="XMLID_33_">
			<circle id="XMLID_34_" class="st9" cx="220.5" cy="483.1" r="4.5"/>
		</g>
	</g>
</g>
<g id="XMLID_26_">
	<g id="XMLID_25_">
		<polyline id="XMLID_29_" class="st1" points="233.7,578.5 233.7,543.5 242.6,535.2 242.6,446.9 		"/>
		<g id="XMLID_27_">
			<circle id="XMLID_28_" class="st2" cx="242.6" cy="447.1" r="4.5"/>
		</g>
	</g>
</g>
<g id="XMLID_20_">
	<g id="XMLID_19_">
		<line id="XMLID_23_" class="st1" x1="232.6" y1="534.9" x2="232.6" y2="420.6"/>
		<g id="XMLID_21_">
			<circle id="XMLID_22_" class="st2" cx="232.6" cy="420.8" r="4.5"/>
		</g>
	</g>
</g>
<g id="XMLID_10_">
	<g id="XMLID_14_">
		<polyline id="XMLID_17_" class="st10" points="259.3,578.5 259.3,534.9 254.3,526.8 254.3,474.3 		"/>
		<g id="XMLID_15_">
			<circle id="XMLID_16_" class="st9" cx="254.3" cy="474.5" r="4.5"/>
		</g>
	</g>
</g>
<polyline id="XMLID_9_" class="st1" points="277.1,578.5 277.1,513.4 289.1,502.1 289.1,483 "/>
</svg>
