<?xml version="1.0" encoding="utf-8"?>
<!-- Generator: Adobe Illustrator 19.0.0, SVG Export Plug-In . SVG Version: 6.00 Build 0)  -->
<svg version="1.1" id="Camada_1" xmlns="http://www.w3.org/2000/svg" xmlns:xlink="http://www.w3.org/1999/xlink" x="0px" y="0px"
	 viewBox="0 0 400 400" style="enable-background:new 0 0 400 400;" xml:space="preserve">
<style type="text/css">
	.st0{opacity:0.35;fill-rule:evenodd;clip-rule:evenodd;fill:#EFEFEF;}
	.st1{opacity:0.45;fill-rule:evenodd;clip-rule:evenodd;fill:#EFEFEF;}
	.st2{fill-rule:evenodd;clip-rule:evenodd;fill:#EFEFEF;}
</style>
<circle id="XMLID_6_" class="st0" cx="197.3" cy="202.1" r="107.5"/>
<circle id="XMLID_2_" class="st1" cx="199.3" cy="200.1" r="142.3"/>
<path id="XMLID_4_" class="st2" d="M200.2,241.9L200.2,241.9l-0.9,0.3l0.1,0c-11.5,4.2-19.8,6.7-35.6,5.8
	c-15.8-0.9-62.7-10.4-52.7-40.2c-12,21.9,9.5,39.1,37.5,47.6c13.4,12,31.1,19.4,50.6,19.4c41.8,0,75.7-33.9,75.7-75.7
	c0-41.8-33.9-75.7-75.7-75.7c-41.8,0-75.7,33.9-75.7,75.7c0,5.8,0.7,11.5,1.9,17c15.7,15.4,62.8,2.4,65.8-26.6l-7.1-3.5l22.4-12.5
	l5.9,26.3l-7.1-3.5c-7.2,27.3-45,37.3-67.5,33.3c-18.9-4.8-25.8-14.2-19.6-32.1c-35.8,51.7,109.5,64,113.3-19.1l-7.6-1.9l0,0l-0.1,0
	l19.4-16.8l0,0.1l0,0l11.2,24.6l-7.7-1.9c-1,7-2.7,13.4-4.9,19.1l-0.2,0.5c-0.2,0.6-0.5,1.1-0.7,1.7c-6.7,15.9-17.8,26.6-30.5,33.5
	l-0.4,0.2c-0.3,0.2-0.6,0.3-0.8,0.5C206.5,239.4,203.4,240.8,200.2,241.9z"/>
</svg>
