<?xml version="1.0" encoding="utf-8"?>
<!-- Generator: Adobe Illustrator 19.0.0, SVG Export Plug-In . SVG Version: 6.00 Build 0)  -->
<svg version="1.1" id="Camada_1" xmlns="http://www.w3.org/2000/svg" xmlns:xlink="http://www.w3.org/1999/xlink" x="0px" y="0px"
	 viewBox="0 0 200 100" style="enable-background:new 0 0 200 100;" xml:space="preserve">
<style type="text/css">
	.st0{fill:url(#XMLID_5_);}
	.st1{fill:url(#XMLID_6_);}
	.st2{fill:url(#XMLID_7_);}
	.st3{fill:url(#XMLID_8_);}
	.st4{fill:url(#XMLID_9_);}
	.st5{fill:url(#XMLID_10_);}
	.st6{fill:url(#XMLID_11_);}
	.st7{fill-rule:evenodd;clip-rule:evenodd;fill:url(#XMLID_12_);}
</style>
<g id="XMLID_4_">
	<g id="XMLID_2_">
		<g id="XMLID_70_">
			<linearGradient id="XMLID_5_" gradientUnits="userSpaceOnUse" x1="60.4136" y1="47.0667" x2="188.4531" y2="47.0667">
				<stop  offset="0" style="stop-color:#71C4D8"/>
				<stop  offset="0.1931" style="stop-color:#4DA4CC"/>
				<stop  offset="0.4043" style="stop-color:#1182BC"/>
				<stop  offset="0.5415" style="stop-color:#1E8DB8"/>
				<stop  offset="0.8264" style="stop-color:#3AA9A8"/>
				<stop  offset="1" style="stop-color:#49BD99"/>
				<stop  offset="1" style="stop-color:#98CF91"/>
			</linearGradient>
			<path id="XMLID_86_" class="st0" d="M60.4,61.1v-4.2c0.3,0.4,0.8,0.8,1.2,1.1c0.5,0.3,1,0.6,1.5,0.9c0.5,0.2,1.1,0.4,1.6,0.5
				s1,0.2,1.5,0.2c1.6,0,2.7-0.4,3.5-1.2c0.8-0.8,1.2-2,1.2-3.5c0-0.8-0.1-1.5-0.4-2.1c-0.3-0.6-0.6-1.2-1.1-1.7s-1-1-1.6-1.4
				c-0.6-0.5-1.3-0.9-2-1.5c-0.8-0.5-1.5-1.1-2.1-1.6c-0.7-0.6-1.2-1.2-1.7-1.8c-0.5-0.7-0.9-1.4-1.1-2.3c-0.3-0.8-0.4-1.8-0.4-3
				c0-1.4,0.2-2.6,0.7-3.6c0.4-1,1-1.9,1.7-2.5c0.7-0.7,1.5-1.2,2.4-1.5c0.9-0.3,1.8-0.5,2.8-0.5c2.1,0,3.7,0.4,4.7,1.1v4
				c-1.3-1.2-2.9-1.9-5-1.9c-0.6,0-1.1,0.1-1.7,0.2c-0.6,0.2-1.1,0.4-1.5,0.8c-0.4,0.4-0.8,0.8-1.1,1.4c-0.3,0.6-0.4,1.3-0.4,2.1
				c0,0.8,0.1,1.5,0.3,2s0.5,1.1,0.9,1.6c0.4,0.5,0.9,0.9,1.5,1.4c0.6,0.4,1.3,0.9,2,1.4c0.8,0.5,1.5,1.1,2.2,1.7
				c0.7,0.6,1.3,1.3,1.8,2c0.5,0.7,0.9,1.5,1.3,2.4c0.3,0.9,0.5,1.9,0.5,3c0,1.5-0.2,2.8-0.6,3.8c-0.4,1-1,1.9-1.7,2.5
				s-1.5,1.1-2.5,1.4c-0.9,0.3-1.9,0.4-2.9,0.4c-0.3,0-0.8,0-1.3-0.1c-0.5-0.1-1-0.2-1.5-0.3c-0.5-0.1-1-0.3-1.5-0.6
				C61.1,61.6,60.7,61.4,60.4,61.1z"/>
			<linearGradient id="XMLID_6_" gradientUnits="userSpaceOnUse" x1="60.4136" y1="47.0667" x2="188.4531" y2="47.0667">
				<stop  offset="0" style="stop-color:#71C4D8"/>
				<stop  offset="0.1931" style="stop-color:#4DA4CC"/>
				<stop  offset="0.4043" style="stop-color:#1182BC"/>
				<stop  offset="0.5415" style="stop-color:#1E8DB8"/>
				<stop  offset="0.8264" style="stop-color:#3AA9A8"/>
				<stop  offset="1" style="stop-color:#49BD99"/>
				<stop  offset="1" style="stop-color:#98CF91"/>
			</linearGradient>
			<path id="XMLID_84_" class="st1" d="M92.6,50c0,8.6-2.8,12.9-8.3,12.9c-5.3,0-7.9-4.1-7.9-12.4V31.8H79v18.4
				c0,6.3,1.9,9.4,5.6,9.4c3.6,0,5.5-3,5.5-9.1V31.8h2.6V50z"/>
			<linearGradient id="XMLID_7_" gradientUnits="userSpaceOnUse" x1="60.4136" y1="47.0667" x2="188.4531" y2="47.0667">
				<stop  offset="0" style="stop-color:#71C4D8"/>
				<stop  offset="0.1931" style="stop-color:#4DA4CC"/>
				<stop  offset="0.4043" style="stop-color:#1182BC"/>
				<stop  offset="0.5415" style="stop-color:#1E8DB8"/>
				<stop  offset="0.8264" style="stop-color:#3AA9A8"/>
				<stop  offset="1" style="stop-color:#49BD99"/>
				<stop  offset="1" style="stop-color:#98CF91"/>
			</linearGradient>
			<path id="XMLID_81_" class="st2" d="M99.4,50.8v11.5h-2.6V31.8h6c2.3,0,4.1,0.8,5.4,2.4c1.3,1.6,1.9,3.8,1.9,6.7
				s-0.7,5.3-2.1,7.1c-1.4,1.8-3.3,2.8-5.8,2.8H99.4z M99.4,35v12.5h2.7c1.8,0,3.1-0.6,4-1.7c0.9-1.1,1.4-2.7,1.4-4.8
				c0-4-1.7-6-5.1-6H99.4z"/>
			<linearGradient id="XMLID_8_" gradientUnits="userSpaceOnUse" x1="60.4136" y1="47.0667" x2="188.4531" y2="47.0667">
				<stop  offset="0" style="stop-color:#71C4D8"/>
				<stop  offset="0.1931" style="stop-color:#4DA4CC"/>
				<stop  offset="0.4043" style="stop-color:#1182BC"/>
				<stop  offset="0.5415" style="stop-color:#1E8DB8"/>
				<stop  offset="0.8264" style="stop-color:#3AA9A8"/>
				<stop  offset="1" style="stop-color:#49BD99"/>
				<stop  offset="1" style="stop-color:#98CF91"/>
			</linearGradient>
			<path id="XMLID_78_" class="st3" d="M128.6,62.3h-3l-3.6-8.6c-0.3-0.8-0.7-1.5-1-2c-0.3-0.6-0.6-1-1-1.4
				c-0.3-0.4-0.7-0.6-1.1-0.8c-0.4-0.2-0.8-0.2-1.3-0.2h-2.1v13H113V31.8h6.5c1,0,1.8,0.2,2.6,0.5c0.8,0.3,1.5,0.8,2.1,1.5
				c0.6,0.7,1.1,1.5,1.4,2.5c0.3,1,0.5,2.2,0.5,3.6c0,1.1-0.1,2-0.3,2.9c-0.2,0.9-0.6,1.7-1,2.4c-0.4,0.7-0.9,1.3-1.5,1.8
				c-0.6,0.5-1.3,0.9-2,1.1v0.1c0.4,0.2,0.7,0.5,0.9,0.8c0.3,0.3,0.5,0.6,0.8,1c0.2,0.4,0.5,0.8,0.7,1.4c0.2,0.5,0.5,1.1,0.8,1.8
				L128.6,62.3z M115.6,35v11.1h3.5c0.6,0,1.2-0.1,1.8-0.4c0.5-0.3,1-0.7,1.4-1.2c0.4-0.5,0.7-1.1,0.9-1.9s0.3-1.6,0.3-2.5
				c0-1.6-0.4-2.9-1.1-3.8c-0.8-0.9-1.8-1.4-3.3-1.4H115.6z"/>
			<linearGradient id="XMLID_9_" gradientUnits="userSpaceOnUse" x1="60.4136" y1="47.0667" x2="188.4531" y2="47.0667">
				<stop  offset="0" style="stop-color:#71C4D8"/>
				<stop  offset="0.1931" style="stop-color:#4DA4CC"/>
				<stop  offset="0.4043" style="stop-color:#1182BC"/>
				<stop  offset="0.5415" style="stop-color:#1E8DB8"/>
				<stop  offset="0.8264" style="stop-color:#3AA9A8"/>
				<stop  offset="1" style="stop-color:#49BD99"/>
				<stop  offset="1" style="stop-color:#98CF91"/>
			</linearGradient>
			<path id="XMLID_76_" class="st4" d="M141.9,62.3h-11.5V31.8h11.1V35H133v10.2h7.9v3.2H133v10.7h9V62.3z"/>
			<linearGradient id="XMLID_10_" gradientUnits="userSpaceOnUse" x1="60.4136" y1="47.0667" x2="188.4531" y2="47.0667">
				<stop  offset="0" style="stop-color:#71C4D8"/>
				<stop  offset="0.1931" style="stop-color:#4DA4CC"/>
				<stop  offset="0.4043" style="stop-color:#1182BC"/>
				<stop  offset="0.5415" style="stop-color:#1E8DB8"/>
				<stop  offset="0.8264" style="stop-color:#3AA9A8"/>
				<stop  offset="1" style="stop-color:#49BD99"/>
				<stop  offset="1" style="stop-color:#98CF91"/>
			</linearGradient>
			<path id="XMLID_74_" class="st5" d="M167.1,62.3h-2.5V41.9c0-1.6,0.1-3.6,0.2-5.9h-0.1c-0.2,1.4-0.5,2.4-0.7,3l-7.4,23.5h-1.2
				L148,39c-0.2-0.7-0.4-1.7-0.7-3.1h-0.1c0.1,1.2,0.1,3.2,0.1,6v20.4h-2.5V31.8h3.4l6.7,21.3c0.5,1.6,0.9,2.9,1,3.7h0.1
				c0.4-1.7,0.8-2.9,1-3.7l6.8-21.2h3.2V62.3z"/>
			<linearGradient id="XMLID_11_" gradientUnits="userSpaceOnUse" x1="60.4136" y1="47.0667" x2="188.4531" y2="47.0667">
				<stop  offset="0" style="stop-color:#71C4D8"/>
				<stop  offset="0.1931" style="stop-color:#4DA4CC"/>
				<stop  offset="0.4043" style="stop-color:#1182BC"/>
				<stop  offset="0.5415" style="stop-color:#1E8DB8"/>
				<stop  offset="0.8264" style="stop-color:#3AA9A8"/>
				<stop  offset="1" style="stop-color:#49BD99"/>
				<stop  offset="1" style="stop-color:#98CF91"/>
			</linearGradient>
			<path id="XMLID_71_" class="st6" d="M188.5,62.3h-2.8l-2.3-8.6h-9.2l-2.2,8.6h-2.8l8.4-30.5h2.6L188.5,62.3z M182.5,50.6l-3.4-13
				c-0.1-0.4-0.2-1.1-0.3-2h-0.1c-0.1,0.9-0.2,1.5-0.3,2l-3.4,13H182.5z"/>
		</g>
	</g>
	<linearGradient id="XMLID_12_" gradientUnits="userSpaceOnUse" x1="43.4693" y1="64.2323" x2="16.9201" y2="32.4172">
		<stop  offset="0" style="stop-color:#6CC17D"/>
		<stop  offset="0.5215" style="stop-color:#48BFEA"/>
		<stop  offset="1" style="stop-color:#137DC1"/>
	</linearGradient>
	<path id="XMLID_1_" class="st7" d="M31.9,58.9L31.9,58.9L31.6,59l0,0c-3.1,1.1-5.4,1.8-9.7,1.6c-4.3-0.3-17.1-2.9-14.4-11
		c-3.3,6,2.6,10.7,10.3,13c3.7,3.3,8.5,5.3,13.8,5.3c11.4,0,20.7-9.3,20.7-20.7c0-11.4-9.3-20.7-20.7-20.7
		c-11.4,0-20.7,9.3-20.7,20.7c0,1.6,0.2,3.1,0.5,4.6c4.3,4.2,17.2,0.6,18-7.3l-1.9-0.9l6.1-3.4l1.6,7.2l-1.9-0.9
		c-2,7.5-12.3,10.2-18.5,9.1c-5.2-1.3-7.1-3.9-5.4-8.8c-9.8,14.1,30,17.5,31-5.2L38.4,41l0,0l0,0l5.3-4.6l0,0l0,0l3.1,6.7l-2.1-0.5
		c-0.3,1.9-0.7,3.7-1.3,5.2L43.3,48c-0.1,0.2-0.1,0.3-0.2,0.5c-1.8,4.4-4.9,7.3-8.3,9.2l-0.1,0.1c-0.1,0-0.2,0.1-0.2,0.1
		C33.6,58.2,32.7,58.6,31.9,58.9z"/>
</g>
</svg>
