<?xml version="1.0" encoding="utf-8"?>
<!-- Generator: Adobe Illustrator 19.0.0, SVG Export Plug-In . SVG Version: 6.00 Build 0)  -->
<svg version="1.1" id="Camada_1" xmlns="http://www.w3.org/2000/svg" xmlns:xlink="http://www.w3.org/1999/xlink" x="0px" y="0px"
	 viewBox="0 0 800 400" style="enable-background:new 0 0 800 400;" xml:space="preserve">
<style type="text/css">
	.st0{display:none;fill:#848484;}
	.st1{fill:#FFFFFF;}
	.st2{fill:#31CCD8;}
	.st3{fill:#FFCD28;}
	.st4{fill:#31C0D8;}
	.st5{fill:none;stroke:#231F20;stroke-width:4.5;stroke-linejoin:round;stroke-miterlimit:10;}
	.st6{fill:none;stroke:#231F20;stroke-width:4;stroke-linejoin:round;stroke-miterlimit:10;}
</style>
<ellipse id="XMLID_328_" class="st0" cx="443.8" cy="309.3" rx="71.6" ry="2.8"/>
<g>
	<rect x="499" y="287" class="st1" width="70" height="7"/>
	<polygon class="st2" points="399.2,284.2 357,254.6 357,272 239,272 239,298 357,298 357,313.8 	"/>
	<polygon class="st2" points="596.2,182.8 554,153.3 554,171 437,171 437,196 554,196 554,212.4 	"/>
	<polygon class="st2" points="595.8,277.9 638,307.4 638,290 756,290 756,265 638,265 638,248.3 	"/>
	<polygon class="st2" points="90.8,182.8 133,212.4 133,195 250,195 250,170 133,170 133,153.3 	"/>
	<g>
		<circle class="st3" cx="406.4" cy="189.5" r="45.2"/>
		<circle class="st4" cx="405.9" cy="190" r="26.7"/>
	</g>
	<g>
		<circle class="st3" cx="518.6" cy="192.9" r="18"/>
		<circle class="st3" cx="518.4" cy="193.1" r="10.6"/>
	</g>
	<g>
		<circle class="st1" cx="734.8" cy="153.7" r="10.4"/>
		<circle class="st3" cx="734.7" cy="153.8" r="6.2"/>
	</g>
	<g>
		<circle class="st3" cx="248.3" cy="196.1" r="18"/>
		<circle class="st3" cx="248.1" cy="196.3" r="10.6"/>
	</g>
	<g>
		<circle class="st3" cx="598.8" cy="265.8" r="18"/>
		<circle class="st3" cx="598.6" cy="266" r="10.6"/>
	</g>
	<g>
		<circle class="st3" cx="323.3" cy="268.9" r="18"/>
		<circle class="st3" cx="323" cy="269.1" r="10.6"/>
	</g>
	<g>
		<path class="st1" d="M125.6,269.4v-43.1l-13.5,35.4H95.1l-13.5-35.4v43.1H59v-78.6h27.5l17.2,41.1l17.2-41.1h27.5v78.6H125.6z"/>
		<path class="st1" d="M183.5,258.3l-4,11.1h-26.7l33.2-78.6h26.7l32,78.6h-27.7l-3.9-11.1H183.5z M198.6,216.7l-8.3,23h16.4
			L198.6,216.7z"/>
		<path class="st1" d="M284.9,249h-9.8v20.4h-26v-78.6h38c21.3,0,33.5,10.2,33.5,28.2c0,11.4-4.4,20-12.5,24.9l15.5,25.6h-29.4
			L284.9,249z M287.2,229.3c5.6,0,8.9-3.5,8.9-9.5c0-5.8-3.3-9.2-8.9-9.2h-12v18.7H287.2z"/>
		<path class="st1" d="M364.1,242.4l-7.6,8.5v18.5h-26v-78.6h26V218l23.4-27.3h30l-28,31.6l29.7,47h-31.1L364.1,242.4z"/>
		<path class="st1" d="M443.2,210.5v9.6H480v19.7h-36.8v9.8h41.5v19.7h-67.5v-78.6h66.5v19.7H443.2z"/>
		<path class="st1" d="M537.9,211.3v58.1h-26v-58.1h-22.3v-20.5h70.8v20.5H537.9z"/>
		<path class="st1" d="M566.5,269.4v-78.6h26v78.6H566.5z"/>
		<path class="st1" d="M658.4,269.4l-31-40.2v40.2h-23.7v-78.6h21.8l31.1,40.4v-40.4h23.6v78.6H658.4z"/>
		<path class="st1" d="M764.5,228v32.4c-8.7,5.8-23.2,10.1-34.4,10.1c-24.7,0-42.6-17.1-42.6-40.4c0-23.2,18.6-40.2,44.3-40.2
			c12.2,0,25.6,4.7,34,12.1l-14.7,17.8c-5.3-5-12.9-8.3-19.4-8.3c-10.1,0-17.5,7.9-17.5,18.5c0,10.9,7.5,18.7,17.7,18.7
			c2.7,0,6.5-1,10.3-2.6V228H764.5z"/>
	</g>
	<g>
		<circle class="st5" cx="406.3" cy="189.8" r="42"/>
		<line class="st6" x1="364" y1="189" x2="448" y2="189"/>
		<line class="st6" x1="370" y1="168" x2="443" y2="168"/>
		<line class="st6" x1="370" y1="211" x2="443" y2="211"/>
		<line class="st6" x1="406" y1="148" x2="406" y2="232"/>
		<line class="st6" x1="428" y1="153" x2="428" y2="227"/>
		<line class="st6" x1="385" y1="153" x2="385" y2="227"/>
	</g>
	<g>
		<polyline class="st6" points="484,203 514,203 514,211.7 535.7,196.5 514,181.3 514,190 456,190 		"/>
	</g>
	<g>
		<polyline class="st6" points="358,257 328,257 328,247.8 306.3,263 328,278.2 328,270 385,270 		"/>
	</g>
	<line class="st6" x1="357" y1="219" x2="310" y2="219"/>
	<line class="st6" x1="443" y1="249" x2="499" y2="249"/>
	<g>
		<polyline class="st5" points="495,244.7 499.7,249.5 495.1,254.1 		"/>
	</g>
	<g>
		<polyline class="st5" points="315,223.5 310.2,218.8 314.9,214.1 		"/>
	</g>
	<line class="st6" x1="393" y1="270" x2="410" y2="270"/>
	<polyline class="st6" points="198.6,217 190.2,240 206,240 	"/>
	<g>
		<g>
			<polygon class="st3" points="598,156 598,194 626,194 626,208.7 640.7,194 653,194 653,156 			"/>
		</g>
		<line class="st6" x1="647" y1="188" x2="642" y2="188"/>
		<line class="st6" x1="638" y1="188" x2="633" y2="188"/>
		<line class="st6" x1="647" y1="179" x2="605" y2="179"/>
		<line class="st6" x1="647" y1="170" x2="605" y2="170"/>
		<line class="st6" x1="647" y1="162" x2="619" y2="162"/>
	</g>
	<g>
		<g>
			<polygon class="st3" points="252,305 252,267 225,267 225,252 210.3,267 197,267 197,305 			"/>
		</g>
		<line class="st6" x1="203" y1="272" x2="209" y2="272"/>
		<line class="st6" x1="212" y1="272" x2="218" y2="272"/>
		<line class="st6" x1="203" y1="282" x2="246" y2="282"/>
		<line class="st6" x1="203" y1="291" x2="246" y2="291"/>
		<line class="st6" x1="203" y1="299" x2="231" y2="299"/>
	</g>
	<g>
		<path class="st6" d="M593,269v2.1c0,2.4,1.6,4.9,4,4.9h5c2.4,0,2.9-2.5,2.9-4.9v-1.3c0-2.4-0.5-4.8-2.9-4.8h-4.7h4.4H597
			c-2.4,0-4-1.5-4-4v-1.3c0-2.4,1.6-3.8,4-3.8h5c2.4,0,2.9,1.3,2.9,3.8v2.2"/>
		<circle class="st5" cx="598.9" cy="265.3" r="19.3"/>
		<line class="st6" x1="599" y1="256" x2="599" y2="251"/>
		<line class="st6" x1="599" y1="281" x2="599" y2="277"/>
		<line class="st6" x1="610" y1="265" x2="613" y2="265"/>
		<line class="st6" x1="585" y1="265" x2="588" y2="265"/>
	</g>
	<g>
		<path class="st6" d="M242,199v2.4c0,2.4,2.1,4.6,4.5,4.6h5c2.4,0,3.4-2.2,3.4-4.6v-1.3c0-2.4-1-4.1-3.4-4.1h-4.7h4.4h-4.7
			c-2.4,0-4.5-2.2-4.5-4.7v-1.3c0-2.4,2.1-4.1,4.5-4.1h5c2.4,0,3.4,1.7,3.4,4.1v1.9"/>
		<circle class="st5" cx="248.4" cy="195.6" r="19.3"/>
		<line class="st6" x1="249" y1="187" x2="249" y2="182"/>
		<line class="st6" x1="249" y1="211" x2="249" y2="207"/>
		<line class="st6" x1="260" y1="196" x2="263" y2="196"/>
		<line class="st6" x1="234" y1="196" x2="237" y2="196"/>
	</g>
	<g>
		<path class="st3" d="M169.9,182.3c0-12.1-9.7-21.9-21.8-21.9c-12.1,0-22.1,9.8-22.1,21.9c0,9.4,6.1,17.4,14.1,20.5v7.2h16v-7.4
			C164,199.4,169.9,191.5,169.9,182.3z"/>
		<rect x="140" y="210" class="st6" width="16" height="7"/>
		<line class="st6" x1="149" y1="218" x2="149" y2="270"/>
		<line class="st6" x1="149" y1="211" x2="149" y2="182"/>
		<circle class="st5" cx="148.6" cy="178.6" r="3.7"/>
	</g>
	<path class="st5" d="M161.6,176.5c2.1,0,2.1,2.1,4.1,2.1c2.1,0,2.1-2.1,4.1-2.1c2.1,0,2.1,2.1,4.1,2.1c2.1,0,2.1-2.1,4.1-2.1
		c2.1,0,2.1,2.1,4.1,2.1c2.1,0,2.1-2.1,4.1-2.1c2.1,0,2.1,2.1,4.1,2.1"/>
	<path class="st5" d="M437.1,284.2c2.1,0,2.1,2.1,4.1,2.1c2.1,0,2.1-2.1,4.1-2.1c2.1,0,2.1,2.1,4.1,2.1c2.1,0,2.1-2.1,4.1-2.1
		c2.1,0,2.1,2.1,4.1,2.1c2.1,0,2.1-2.1,4.1-2.1c2.1,0,2.1,2.1,4.1,2.1"/>
	<path class="st5" d="M140.5,287.4c2.1,0,2.1,2.1,4.1,2.1c2.1,0,2.1-2.1,4.1-2.1c2.1,0,2.1,2.1,4.1,2.1c2.1,0,2.1-2.1,4.1-2.1
		c2.1,0,2.1,2.1,4.1,2.1c2.1,0,2.1-2.1,4.1-2.1c2.1,0,2.1,2.1,4.1,2.1"/>
	<path class="st5" d="M710.6,289.5c2.1,0,2.1,2.1,4.1,2.1c2.1,0,2.1-2.1,4.1-2.1c2.1,0,2.1,2.1,4.1,2.1c2.1,0,2.1-2.1,4.1-2.1
		c2.1,0,2.1,2.1,4.1,2.1c2.1,0,2.1-2.1,4.1-2.1s2.1,2.1,4.1,2.1"/>
	<path class="st5" d="M487.8,160.7c2.1,0,2.1,2.1,4.1,2.1c2.1,0,2.1-2.1,4.1-2.1c2.1,0,2.1,2.1,4.1,2.1c2.1,0,2.1-2.1,4.1-2.1
		c2.1,0,2.1,2.1,4.1,2.1c2.1,0,2.1-2.1,4.1-2.1s2.1,2.1,4.1,2.1"/>
	<path class="st5" d="M305.2,191.3c2.1,0,2.1,2.1,4.1,2.1c2.1,0,2.1-2.1,4.1-2.1c2.1,0,2.1,2.1,4.1,2.1c2.1,0,2.1-2.1,4.1-2.1
		c2.1,0,2.1,2.1,4.1,2.1c2.1,0,2.1-2.1,4.1-2.1c2.1,0,2.1,2.1,4.1,2.1"/>
	<path class="st5" d="M660.9,190.2c2.1,0,2.1,2.1,4.1,2.1c2.1,0,2.1-2.1,4.1-2.1c2.1,0,2.1,2.1,4.1,2.1c2.1,0,2.1-2.1,4.1-2.1
		c2.1,0,2.1,2.1,4.1,2.1c2.1,0,2.1-2.1,4.1-2.1s2.1,2.1,4.1,2.1"/>
	<g>
		<g>
			<rect x="24" y="241" class="st1" width="12" height="23"/>
			<rect x="49" y="275" class="st1" width="14" height="21"/>
			<line class="st6" x1="111" y1="282" x2="111" y2="235"/>
			<g>
				<path class="st6" d="M124,218.2v65.5c0,1.2-1.4,2.3-2.5,2.3H112c-1.2,0-1-1.2-1-2.3v-2.5l-25-15.1v-30.4l25-15.1v-2.5
					c0-1.2-0.2-1.2,1-1.2h9.5C122.6,217,124,217,124,218.2z"/>
			</g>
			<path class="st6" d="M87,271.9c0,1.2-0.9,2.1-2.1,2.1H39.1c-1.2,0-2.1-0.9-2.1-2.1v-41.8c0-1.2,0.9-2.1,2.1-2.1h45.8
				c1.2,0,2.1,0.9,2.1,2.1V271.9z"/>
			<line class="st6" x1="63" y1="282" x2="56" y2="282"/>
			<line class="st6" x1="63" y1="289" x2="56" y2="289"/>
			<rect x="45" y="236" class="st6" width="32" height="17"/>
			<line class="st6" x1="78" y1="261" x2="70" y2="261"/>
			<line class="st6" x1="78" y1="267" x2="45" y2="267"/>
			<line class="st6" x1="66" y1="261" x2="59" y2="261"/>
		</g>
		<line class="st6" x1="24" y1="241" x2="24" y2="264"/>
	</g>
	<rect x="523" y="262" class="st6" width="14" height="31"/>
	<rect x="537" y="249" class="st6" width="13" height="44"/>
	<rect x="510" y="279" class="st6" width="13" height="14"/>
	<line class="st6" x1="499" y1="293" x2="569" y2="293"/>
	<polyline class="st6" points="275,211 275,229 291,229 	"/>
	<polyline class="st6" points="538,230 538,211 560,211 	"/>
	<line class="st5" x1="675.9" y1="247.8" x2="665.1" y2="258.5"/>
	<line class="st5" x1="688.5" y1="248.3" x2="698.5" y2="258.3"/>
	<polygon class="st3" points="682.6,255.3 654.1,234 711.1,234 	"/>
	<rect x="654" y="234" class="st6" width="57" height="36"/>
	<g>
		
			<rect x="777.4" y="218.1" transform="matrix(-0.7071 0.7071 -0.7071 -0.7071 1492.863 -172.652)" class="st1" width="9.5" height="9.5"/>
		
			<rect x="756.2" y="176.2" transform="matrix(-0.7071 0.7071 -0.7071 -0.7071 1441.4702 -193.9813)" class="st3" width="9.5" height="50.7"/>
		<polygon class="st1" points="734.9,175.2 746.4,180.3 740,186.7 		"/>
		<line class="st5" x1="778.8" y1="219.5" x2="743" y2="183.6"/>
	</g>
	<polyline class="st6" points="664,171 717.9,171 737.4,151.5 	"/>
	<polyline class="st6" points="729,151 738,151 738,159 	"/>
	<polyline class="st6" points="58,215 58,191 76,191 	"/>
	<line class="st6" x1="80" y1="191" x2="87" y2="191"/>
	<g>
		<rect x="274" y="141" class="st6" width="53" height="9"/>
		<rect x="278" y="150" class="st6" width="44" height="25"/>
		<path class="st1" d="M302,169.5c0,1-0.9,2.5-2,2.5h-0.3c-1.1,0-1.8-1.5-1.8-2.5v-12.9c0-1,0.7-1.7,1.8-1.7h0.3c1.1,0,2,0.7,2,1.7
			V169.5z"/>
		<path class="st1" d="M289,169.5c0,1-0.6,2.5-1.6,2.5h-0.3c-1.1,0-2.1-1.5-2.1-2.5v-12.9c0-1,1-1.7,2.1-1.7h0.3
			c1.1,0,1.6,0.7,1.6,1.7V169.5z"/>
		<path class="st1" d="M315,169.5c0,1-1.2,2.5-2.3,2.5h-0.3c-1.1,0-2.4-1.5-2.4-2.5v-12.9c0-1,1.3-1.7,2.4-1.7h0.3
			c1.1,0,2.3,0.7,2.3,1.7V169.5z"/>
		<rect x="297" y="131" class="st6" width="6" height="10"/>
	</g>
	<path class="st1" d="M589.5,149.6c-1.2,0-2.3,0.2-3.3,0.5c0.2-0.8,0.3-1.7,0.3-2.6c0-5.8-4.7-10.5-10.5-10.5
		c-5.8,0-10.5,4.7-10.5,10.5c0,1,0.2,2,0.4,3c-1.3-0.6-2.7-0.9-4.2-0.9c-5.8,0-10.5,5.4-10.5,11.2c0,5.8,4.7,11.2,10.5,11.2
		c0.8,0,3,0,3,0h5.1h11.8h6.7c0,0,0.9,0,1.3,0c5.8,0,10.5-5.4,10.5-11.2C600.1,155,595.3,149.6,589.5,149.6z"/>
	<line class="st6" x1="576" y1="172" x2="576" y2="184"/>
	<circle class="st5" cx="576" cy="187.6" r="4.4"/>
</g>
</svg>
