<?xml version="1.0" encoding="utf-8"?>
<!-- Generator: Adobe Illustrator 19.0.0, SVG Export Plug-In . SVG Version: 6.00 Build 0)  -->
<svg version="1.1" id="Camada_1" xmlns="http://www.w3.org/2000/svg" xmlns:xlink="http://www.w3.org/1999/xlink" x="0px" y="0px"
	 viewBox="-324 166 150 70" style="enable-background:new -324 166 150 70;" xml:space="preserve">
<style type="text/css">
	.st0{fill:#454C53;}
	.st1{fill:#FFFFFF;}
	.st2{fill:#62C4F3;}
	.st3{fill:none;stroke:#132345;stroke-width:3;stroke-linecap:round;stroke-linejoin:round;stroke-miterlimit:10;}
	.st4{fill:#81C0ED;}
	.st5{fill:#132345;}
</style>
<g id="XMLID_8_">
	<polygon id="XMLID_2_" class="st0" points="-177.8,201.6 -192.2,201.6 -192.2,218.1 -177.8,218.1 -185,209.8 	"/>
	<polygon id="XMLID_1_" class="st0" points="-320.2,201.6 -305.8,201.6 -305.8,218.1 -320.2,218.1 -313,209.8 	"/>
</g>
<g>
	<path class="st1" d="M-292.5,189.7h11.6c1.7,7,3,13.1,3.9,18.1l1-5.1c0.4-2,0.8-3.9,1.3-5.8l1.8-7.3h11.8l4.6,32.6h-9.1l-2.5-22.4
		l-5.7,22.4h-6.2l-5.9-22.5l-2.4,22.5h-8.7L-292.5,189.7z"/>
	<path class="st1" d="M-249.2,189.7h9.2V205h0.2l8.7-15.3h9.6l-9.4,16.7l9,15.9h-10.1l-7.8-13.5h-0.2v13.5h-9.2V189.7z"/>
	<path class="st1" d="M-220.1,189.7h21.9v7.4h-6.3v25.1h-9.3v-25.1h-6.3V189.7z"/>
</g>
<g id="XMLID_54_">
	<g id="XMLID_227_">
		<circle id="XMLID_58_" class="st2" cx="-252.3" cy="206.9" r="11.2"/>
		<circle id="XMLID_61_" class="st3" cx="-252.3" cy="206.9" r="6.1"/>
		<circle id="XMLID_62_" class="st4" cx="-252.3" cy="206.9" r="2"/>
		<line id="XMLID_468_" class="st3" x1="-252.3" y1="206.9" x2="-238.5" y2="193.2"/>
	</g>
	<path id="XMLID_236_" class="st5" d="M-240.9,191.8l-2.5,2.5c-0.1,0.1-0.1,0.2-0.1,0.4l0.8,2.8l3.1-3.1l-0.6-2.4
		C-240.3,191.7-240.7,191.6-240.9,191.8z"/>
	<path id="XMLID_60_" class="st5" d="M-237,195.6l-2.5,2.5c-0.1,0.1-0.2,0.1-0.4,0.1l-2.8-0.8l3.1-3.1l2.4,0.6
		C-236.9,195.1-236.8,195.4-237,195.6z"/>
</g>
</svg>
