<?xml version="1.0" encoding="utf-8"?>
<!-- Generator: Adobe Illustrator 19.0.0, SVG Export Plug-In . SVG Version: 6.00 Build 0)  -->
<svg version="1.1" id="Camada_1" xmlns="http://www.w3.org/2000/svg" xmlns:xlink="http://www.w3.org/1999/xlink" x="0px" y="0px"
	 viewBox="0 0 150 150" style="enable-background:new 0 0 150 150;" xml:space="preserve">
<style type="text/css">
	.st0{fill-rule:evenodd;clip-rule:evenodd;fill:url(#XMLID_18_);}
	.st1{fill:url(#XMLID_19_);}
	.st2{fill:url(#XMLID_21_);}
	.st3{opacity:0.3;fill:#231F20;}
	.st4{opacity:0.6;fill:#231F20;}
	.st5{fill:#FFFFFF;}
	.st6{opacity:0.4;}
	.st7{fill:none;stroke:url(#XMLID_22_);stroke-miterlimit:10;}
	.st8{fill:none;stroke:url(#XMLID_23_);stroke-miterlimit:10;}
	.st9{fill:#00BBCE;}
	.st10{fill:#07DAE5;}
	.st11{fill:url(#XMLID_24_);}
</style>
<radialGradient id="XMLID_18_" cx="-254.8829" cy="6089.0942" r="42.4754" gradientTransform="matrix(1.3419 0 0 0.1795 417.1788 -964.0452)" gradientUnits="userSpaceOnUse">
	<stop  offset="0" style="stop-color:#E2E5E2"/>
	<stop  offset="0.2014" style="stop-color:#EFF1EE"/>
	<stop  offset="0.2857" style="stop-color:#F6F7F5"/>
	<stop  offset="0.3818" style="stop-color:#F8F9F7"/>
	<stop  offset="1" style="stop-color:#FFFFFE"/>
</radialGradient>
<ellipse id="XMLID_208_" class="st0" cx="75.2" cy="128.9" rx="57" ry="7.6"/>
<g id="XMLID_41_">
	<g id="XMLID_42_">
		<linearGradient id="XMLID_19_" gradientUnits="userSpaceOnUse" x1="29.6725" y1="112.079" x2="118.3953" y2="16.5969">
			<stop  offset="0" style="stop-color:#B1B7C2"/>
			<stop  offset="1" style="stop-color:#FFFFFF"/>
		</linearGradient>
		<path id="XMLID_43_" class="st1" d="M50.5,25.5c9.5-10.4,64.4,23.1,66.9,45.9c2.5,22.8-54.7,59-71.1,43.6
			C32,101.7,24.6,53.9,50.5,25.5z"/>
		<linearGradient id="XMLID_21_" gradientUnits="userSpaceOnUse" x1="10.725" y1="124.0862" x2="95.0582" y2="40.6359">
			<stop  offset="0" style="stop-color:#0032C3"/>
			<stop  offset="0.4188" style="stop-color:#0077BA"/>
			<stop  offset="0.8123" style="stop-color:#00B1B2"/>
			<stop  offset="1" style="stop-color:#00C8AF"/>
		</linearGradient>
		<path id="XMLID_206_" class="st2" d="M71,116.2C57.2,118.6,19.1,72,25.3,52.8c6.2-19.2,49.5-27.3,76.7-10.9
			C131.3,59.5,94.2,112.2,71,116.2z"/>
		<g id="XMLID_44_">
			<path id="XMLID_45_" class="st3" d="M93.3,50.5c15.4,6.6,6.6,42.1-4.6,50.9c-11.8,9.3-50.9,5.1-52.5-29.4
				C35.4,56.3,59.9,36.1,93.3,50.5z"/>
			<path id="XMLID_46_" class="st4" d="M93.3,48.9c15.4,6.6,6.6,42.1-4.6,50.9c-11.8,9.3-50.9,5.1-52.5-29.4
				C35.4,54.7,59.9,34.5,93.3,48.9z"/>
			<path id="XMLID_47_" class="st5" d="M93.3,47c15.4,6.6,6.6,42.1-4.6,50.9c-11.8,9.3-50.9,5.1-52.5-29.4
				C35.4,52.8,59.9,32.6,93.3,47z"/>
			<path id="XMLID_48_" class="st5" d="M93.3,46c15.4,6.6,6.6,42.1-4.6,50.9c-11.8,9.3-50.9,5.1-52.5-29.4
				C35.4,51.8,59.9,31.6,93.3,46z"/>
			<g id="XMLID_49_" class="st6">
				<path id="XMLID_50_" class="st5" d="M73,101.3c-8.8,0-17.5-2.8-23.9-7.7c-8-6-12.5-15-13-26.1c-0.2-5.1,2.2-10.7,6.7-15.4
					C49.5,45,59.8,40.9,71,40.9c7.3,0,14.8,1.7,22.4,4.9c4.4,1.9,7.2,6.4,8.1,12.9c1.7,12.9-4.6,31.8-12.7,38.2
					C85.3,99.7,79.5,101.3,73,101.3z M71,41.2c-11.1,0-21.3,4-28.1,11.1c-4.4,4.6-6.8,10.2-6.6,15.2C37.4,90.7,55.5,101,73,101
					c6.5,0,12.2-1.5,15.6-4.2c8-6.3,14.2-25.1,12.6-37.9c-0.8-6.5-3.6-10.9-7.9-12.8C85.7,42.8,78.2,41.2,71,41.2z"/>
			</g>
		</g>
	</g>
</g>
<g id="XMLID_3_">
	<linearGradient id="XMLID_22_" gradientUnits="userSpaceOnUse" x1="166.1945" y1="62.1037" x2="205.9809" y2="62.1037">
		<stop  offset="0" style="stop-color:#0032C3"/>
		<stop  offset="0.4188" style="stop-color:#0077BA"/>
		<stop  offset="0.8123" style="stop-color:#00B1B2"/>
		<stop  offset="1" style="stop-color:#00C8AF"/>
	</linearGradient>
	<path id="XMLID_15_" class="st7" d="M205.4,76.3c-0.2-1.7-0.9-3.6-2.2-5.6c-2.2-3.4-3.4-7.6-3.7-12.3l3.4-2.1
		c0.1-0.1,0.2-0.1,0.2-0.2c0.1-0.1,0.2-0.3,0.3-0.5l1.1-5c0.1-0.5-0.1-1-0.6-1.3l-3.2-1.8c-0.1,0-0.1-0.1-0.2-0.1l3-4.3
		c0.1-0.1,0-0.2,0-0.3l-0.9-0.7c-0.1-0.1-0.2,0-0.3,0l-3.8,4.9c-0.1,0.1-0.1,0.2-0.2,0.3l-1.6,8.5c0,0.1,0,0.1,0,0.2l0.7,2
		c0.3,5.2,1.7,9.8,4.1,13.6c2,3.1,2.5,5.8,1.3,7.3c-0.7,0.8-1.8,1.2-3,0.8c-1.6-0.5-2.6-2.1-2.6-4.2c-0.2-4.3-1.9-8.2-5-11.2
		c-0.7-0.7-1.4-1.2-2-1.7v-0.7h1c1.1,0,1.9-0.8,2.1-1.8l2.1-15.7c0.1-0.6-0.1-1.2-0.5-1.7c-0.4-0.5-1-0.7-1.6-0.7h-24.5
		c-0.6,0-1.2,0.3-1.6,0.7c-0.4,0.5-0.6,1.1-0.5,1.7l2.1,15.7c0.1,1,1,1.8,2.1,1.8h1v9.3h-0.7c-1.2,0-2.1,0.9-2.1,2.1V80
		c0,1.2,0.9,2.1,2.1,2.1h19.6c1.2,0,2.1-0.9,2.1-2.1v-6.5c0-1.2-0.9-2.1-2.1-2.1h-0.7v-6c0.2,0.2,0.4,0.4,0.6,0.5
		c2.7,2.7,4.2,5.9,4.3,9.7c0.1,3.6,2.2,5.5,4.1,6.1c0.5,0.2,1.1,0.3,1.6,0.3c1.4,0,2.8-0.6,3.7-1.8
		C205.3,79.3,205.6,77.9,205.4,76.3L205.4,76.3z M202,50.9l-0.8,3.8l-1.8,0.9l0.4-5.9L202,50.9z M189.4,57.9h-16.6l-1.5-11.5h19.7
		L189.4,57.9z M189.4,57.9"/>
	<linearGradient id="XMLID_23_" gradientUnits="userSpaceOnUse" x1="177.2141" y1="52.5226" x2="182.761" y2="52.5226">
		<stop  offset="0" style="stop-color:#0032C3"/>
		<stop  offset="0.4188" style="stop-color:#0077BA"/>
		<stop  offset="0.8123" style="stop-color:#00B1B2"/>
		<stop  offset="1" style="stop-color:#00C8AF"/>
	</linearGradient>
	<path id="XMLID_10_" class="st8" d="M181,53.3l-2.8-4.2c-0.1-0.1-0.2-0.1-0.3-0.1c-0.1,0.1-0.2,0.2-0.1,0.3l2,4.7
		c-0.2,0.4-0.3,0.9,0,1.3c0.4,0.7,1.2,0.9,1.8,0.5c0.7-0.4,0.9-1.2,0.5-1.8C181.9,53.6,181.4,53.3,181,53.3L181,53.3z M181,53.3"/>
</g>
<g id="XMLID_16_">
	<circle id="XMLID_14_" class="st5" cx="68.9" cy="70.6" r="21.6"/>
	<path id="XMLID_20_" class="st9" d="M68.9,50.1c-11.3,0-20.5,9.2-20.5,20.5c0,11.3,9.2,20.5,20.5,20.5c11.3,0,20.5-9.2,20.5-20.5
		C89.4,59.3,80.2,50.1,68.9,50.1z M68.9,90.4c-10.9,0-19.8-8.8-19.8-19.8c0-10.9,8.8-19.8,19.8-19.8c10.9,0,19.8,8.8,19.8,19.8
		C88.6,81.5,79.8,90.4,68.9,90.4z"/>
	<circle id="XMLID_11_" class="st10" cx="68.9" cy="70.6" r="14.8"/>
	<circle id="XMLID_9_" class="st5" cx="68.9" cy="70.6" r="13.9"/>
	<linearGradient id="XMLID_24_" gradientUnits="userSpaceOnUse" x1="62.7003" y1="70.9665" x2="75.0169" y2="70.9665">
		<stop  offset="0" style="stop-color:#0032C3"/>
		<stop  offset="0.4188" style="stop-color:#0077BA"/>
		<stop  offset="0.8123" style="stop-color:#00B1B2"/>
		<stop  offset="1" style="stop-color:#00C8AF"/>
	</linearGradient>
	<path id="XMLID_8_" class="st11" d="M67.7,78.7c-1.7-0.1-3.4-0.5-5-1.2v-3.9c0.9,0.5,1.9,0.8,3,1.2c1.1,0.3,2,0.5,2.8,0.5
		c0.7,0,1.2-0.1,1.5-0.2c0.3-0.2,0.5-0.4,0.5-0.8c0-0.3-0.1-0.5-0.3-0.7c-0.2-0.2-0.6-0.4-1.1-0.6c-0.5-0.2-1.2-0.5-2.1-0.8
		c-1-0.4-1.8-0.8-2.4-1.2c-0.6-0.5-1.1-1-1.3-1.5c-0.3-0.6-0.4-1.3-0.4-2.1c0-1.3,0.4-2.3,1.2-3c0.8-0.7,2.1-1.2,3.7-1.4v-2.6h2.4
		v2.6c1.6,0.1,3.1,0.5,4.7,1.2l-1.4,3.3c-1.6-0.7-3.1-1.1-4.4-1.1c-0.6,0-1.1,0.1-1.3,0.2c-0.3,0.2-0.4,0.4-0.4,0.7
		c0,0.3,0.1,0.5,0.3,0.6c0.2,0.2,0.5,0.4,1,0.6c0.5,0.2,1.1,0.4,1.9,0.7c1.6,0.6,2.8,1.2,3.5,2c0.7,0.7,1.1,1.7,1.1,2.9
		c0,1.3-0.4,2.4-1.3,3.2c-0.8,0.8-2.1,1.3-3.6,1.5v3.1h-2.4V78.7z"/>
</g>
</svg>
