<?xml version="1.0" encoding="utf-8"?>
<!-- Generator: Adobe Illustrator 19.0.0, SVG Export Plug-In . SVG Version: 6.00 Build 0)  -->
<svg version="1.1" id="Camada_1" xmlns="http://www.w3.org/2000/svg" xmlns:xlink="http://www.w3.org/1999/xlink" x="0px" y="0px"
	 viewBox="0 0 150 150" style="enable-background:new 0 0 150 150;" xml:space="preserve">
<style type="text/css">
	.st0{fill-rule:evenodd;clip-rule:evenodd;fill:url(#XMLID_2_);}
	.st1{fill:url(#XMLID_3_);}
	.st2{fill:url(#XMLID_4_);}
	.st3{opacity:0.3;fill:#231F20;}
	.st4{opacity:0.6;fill:#231F20;}
	.st5{fill:#FFFFFF;}
	.st6{opacity:0.4;}
	.st7{fill:none;stroke:url(#XMLID_5_);stroke-miterlimit:10;}
	.st8{fill:none;stroke:url(#XMLID_6_);stroke-miterlimit:10;}
	.st9{fill:none;stroke:url(#XMLID_7_);stroke-miterlimit:10;}
	.st10{fill:none;stroke:url(#XMLID_9_);stroke-miterlimit:10;}
	.st11{fill:none;stroke:url(#XMLID_10_);stroke-miterlimit:10;}
	.st12{fill:none;stroke:url(#XMLID_11_);stroke-miterlimit:10;}
	.st13{fill:none;stroke:url(#XMLID_12_);stroke-miterlimit:10;}
	.st14{fill:none;stroke:url(#XMLID_13_);stroke-miterlimit:10;}
	.st15{fill:none;stroke:url(#XMLID_15_);stroke-miterlimit:10;}
</style>
<radialGradient id="XMLID_2_" cx="-254.8829" cy="6089.0942" r="42.4754" gradientTransform="matrix(1.3419 0 0 0.1795 417.1788 -964.0452)" gradientUnits="userSpaceOnUse">
	<stop  offset="0" style="stop-color:#E2E5E2"/>
	<stop  offset="0.2014" style="stop-color:#EFF1EE"/>
	<stop  offset="0.2857" style="stop-color:#F6F7F5"/>
	<stop  offset="0.3818" style="stop-color:#F8F9F7"/>
	<stop  offset="1" style="stop-color:#FFFFFE"/>
</radialGradient>
<ellipse id="XMLID_208_" class="st0" cx="75.2" cy="128.9" rx="57" ry="7.6"/>
<g id="XMLID_41_">
	<g id="XMLID_42_">
		<linearGradient id="XMLID_3_" gradientUnits="userSpaceOnUse" x1="29.6725" y1="112.079" x2="118.3953" y2="16.5969">
			<stop  offset="0" style="stop-color:#B1B7C2"/>
			<stop  offset="1" style="stop-color:#FFFFFF"/>
		</linearGradient>
		<path id="XMLID_43_" class="st1" d="M50.5,25.5c9.5-10.4,64.4,23.1,66.9,45.9c2.5,22.8-54.7,59-71.1,43.6
			C32,101.7,24.6,53.9,50.5,25.5z"/>
		<linearGradient id="XMLID_4_" gradientUnits="userSpaceOnUse" x1="10.725" y1="124.0862" x2="95.0582" y2="40.6359">
			<stop  offset="0" style="stop-color:#0032C3"/>
			<stop  offset="0.4188" style="stop-color:#0077BA"/>
			<stop  offset="0.8123" style="stop-color:#00B1B2"/>
			<stop  offset="1" style="stop-color:#00C8AF"/>
		</linearGradient>
		<path id="XMLID_206_" class="st2" d="M71,116.2C57.2,118.6,19.1,72,25.3,52.8c6.2-19.2,49.5-27.3,76.7-10.9
			C131.3,59.5,94.2,112.2,71,116.2z"/>
		<g id="XMLID_44_">
			<path id="XMLID_45_" class="st3" d="M93.3,50.5c15.4,6.6,6.6,42.1-4.6,50.9c-11.8,9.3-50.9,5.1-52.5-29.4
				C35.4,56.3,59.9,36.1,93.3,50.5z"/>
			<path id="XMLID_46_" class="st4" d="M93.3,48.9c15.4,6.6,6.6,42.1-4.6,50.9c-11.8,9.3-50.9,5.1-52.5-29.4
				C35.4,54.7,59.9,34.5,93.3,48.9z"/>
			<path id="XMLID_47_" class="st5" d="M93.3,47c15.4,6.6,6.6,42.1-4.6,50.9c-11.8,9.3-50.9,5.1-52.5-29.4
				C35.4,52.8,59.9,32.6,93.3,47z"/>
			<path id="XMLID_48_" class="st5" d="M93.3,46c15.4,6.6,6.6,42.1-4.6,50.9c-11.8,9.3-50.9,5.1-52.5-29.4
				C35.4,51.8,59.9,31.6,93.3,46z"/>
			<g id="XMLID_49_" class="st6">
				<path id="XMLID_50_" class="st5" d="M73,101.3c-8.8,0-17.5-2.8-23.9-7.7c-8-6-12.5-15-13-26.1c-0.2-5.1,2.2-10.7,6.7-15.4
					C49.5,45,59.8,40.9,71,40.9c7.3,0,14.8,1.7,22.4,4.9c4.4,1.9,7.2,6.4,8.1,12.9c1.7,12.9-4.6,31.8-12.7,38.2
					C85.3,99.7,79.5,101.3,73,101.3z M71,41.2c-11.1,0-21.3,4-28.1,11.1c-4.4,4.6-6.8,10.2-6.6,15.2C37.4,90.7,55.5,101,73,101
					c6.5,0,12.2-1.5,15.6-4.2c8-6.3,14.2-25.1,12.6-37.9c-0.8-6.5-3.6-10.9-7.9-12.8C85.7,42.8,78.2,41.2,71,41.2z"/>
			</g>
		</g>
	</g>
</g>
<linearGradient id="XMLID_5_" gradientUnits="userSpaceOnUse" x1="60.0593" y1="93.8335" x2="79.3624" y2="93.8335">
	<stop  offset="0" style="stop-color:#0032C3"/>
	<stop  offset="0.4188" style="stop-color:#0077BA"/>
	<stop  offset="0.8123" style="stop-color:#00B1B2"/>
	<stop  offset="1" style="stop-color:#00C8AF"/>
</linearGradient>
<path id="XMLID_30_" class="st7" d="M60.5,90.8c3.3,5.2,11.5,5.6,15.1,2.5c-0.1,0-0.1-0.1-0.2-0.1c-0.1-0.1-0.2-0.2-0.3-0.4
	c-0.3-0.5-0.2-0.8,0-0.9c0.1-0.1,0.3-0.2,0.4-0.2c0.9-0.2,2.8-0.4,3.1,0.1c0.4,0.6-0.2,2.1-0.5,3c-0.2,0.4-0.4,0.7-0.9,0.6
	c-0.2-0.1-0.4-0.4-0.7-0.7c-0.7,0.3-1.1,0.6-1.9,1c-3.4,1.6-6.6,1.1-9.9-0.5c-1.3-0.6-2.6-1.6-3.5-2.9
	C61.1,91.8,60.8,91.3,60.5,90.8z"/>
<linearGradient id="XMLID_6_" gradientUnits="userSpaceOnUse" x1="44.2354" y1="62.7777" x2="57.9235" y2="62.7777">
	<stop  offset="0" style="stop-color:#0032C3"/>
	<stop  offset="0.4188" style="stop-color:#0077BA"/>
	<stop  offset="0.8123" style="stop-color:#00B1B2"/>
	<stop  offset="1" style="stop-color:#00C8AF"/>
</linearGradient>
<path id="XMLID_29_" class="st8" d="M57.9,55.4c-6.2,0-10.9,6.7-10.3,11.4c0.1,0,0.1-0.1,0.2-0.1c0.1,0,0.3-0.1,0.5-0.1
	c0.6,0,0.7,0.3,0.8,0.5c0,0.2,0,0.3-0.1,0.5c-0.4,0.9-1.1,2.6-1.7,2.6c-0.7,0-1.7-1.3-2.2-2.1c-0.3-0.4-0.4-0.8,0-1
	c0.2-0.2,0.6-0.1,0.9-0.2c0.1-0.8,0-1.2,0.2-2.2c0.6-3.7,2.7-6.1,5.8-8c1.3-0.8,2.7-1.3,4.3-1.3C56.8,55.3,57.3,55.4,57.9,55.4z"/>
<linearGradient id="XMLID_7_" gradientUnits="userSpaceOnUse" x1="79.9486" y1="61.8848" x2="92.2161" y2="61.8848">
	<stop  offset="0" style="stop-color:#0032C3"/>
	<stop  offset="0.4188" style="stop-color:#0077BA"/>
	<stop  offset="0.8123" style="stop-color:#00B1B2"/>
	<stop  offset="1" style="stop-color:#00C8AF"/>
</linearGradient>
<path id="XMLID_28_" class="st9" d="M90.6,70.3c2.2-5.8-2.4-12.6-7.1-13.6c0,0.1,0,0.1,0,0.2c0,0.1,0,0.3-0.1,0.5
	c-0.2,0.5-0.5,0.6-0.8,0.5c-0.2,0-0.3-0.1-0.4-0.2c-0.7-0.6-2-2-1.8-2.5c0.3-0.7,1.8-1.1,2.7-1.4c0.4-0.1,0.8-0.1,1,0.4
	c0.1,0.2-0.1,0.6-0.2,0.9c0.7,0.4,1.1,0.5,2,0.9c3.3,1.8,4.8,4.6,5.5,8.2c0.3,1.5,0.3,3-0.3,4.5C91.1,69.3,90.8,69.8,90.6,70.3z"/>
<g id="XMLID_63_">
	<g id="XMLID_65_">
		<linearGradient id="XMLID_9_" gradientUnits="userSpaceOnUse" x1="63.5986" y1="52.5841" x2="74.7136" y2="52.5841">
			<stop  offset="0" style="stop-color:#0032C3"/>
			<stop  offset="0.4188" style="stop-color:#0077BA"/>
			<stop  offset="0.8123" style="stop-color:#00B1B2"/>
			<stop  offset="1" style="stop-color:#00C8AF"/>
		</linearGradient>
		<path id="XMLID_27_" class="st10" d="M74.2,52.6c0,0.1,0,0.2,0,0.3c0,0.1,0,0.2,0,0.3c0,0.1,0,0.3-0.1,0.4c0,0.1-0.1,0.3-0.1,0.4
			c-0.1,0.3-0.2,0.5-0.3,0.7c0,0,0,0.1,0,0.1c-0.1,0.1-0.1,0.2-0.2,0.3c0,0,0,0.1-0.1,0.1c-0.2,0.4-0.5,0.8-0.9,1.1
			c0,0-0.1,0.1-0.1,0.1c-0.1,0.1-0.1,0.1-0.2,0.1c0,0-0.1,0.1-0.1,0.1c-0.1,0.1-0.2,0.1-0.3,0.2c0,0,0,0,0,0
			c-0.1,0.1-0.2,0.2-0.4,0.2c-0.1,0.1-0.2,0.1-0.3,0.2c0,0,0,0,0,0c-0.2,0.1-0.5,0.2-0.7,0.3c-0.1,0-0.1,0-0.2,0
			c-0.3,0.1-0.5,0.1-0.8,0.1c-0.1,0-0.2,0-0.3,0c0,0-0.1,0-0.1,0c0,0-0.1,0-0.1,0c-0.1,0-0.2,0-0.3,0c-0.3,0-0.5-0.1-0.8-0.1
			c-0.1,0-0.1,0-0.2,0c-0.3-0.1-0.5-0.2-0.7-0.3c0,0,0,0,0,0c-0.1,0-0.2-0.1-0.3-0.2c-0.1-0.1-0.3-0.2-0.4-0.2c0,0,0,0,0,0
			c-0.1-0.1-0.2-0.1-0.3-0.2c0,0-0.1-0.1-0.1-0.1c-0.1,0-0.1-0.1-0.2-0.1c-0.1-0.1-0.1-0.1-0.2-0.2c-0.3-0.3-0.6-0.6-0.8-1
			c0,0,0-0.1-0.1-0.1c-0.1-0.1-0.1-0.2-0.2-0.3c0,0,0-0.1,0-0.1c-0.1-0.2-0.2-0.5-0.3-0.7c0-0.1-0.1-0.3-0.1-0.4
			c0-0.1,0-0.3-0.1-0.4c0-0.1,0-0.2,0-0.3c0-0.1,0-0.2,0-0.3c0-0.1,0-0.2,0-0.3c0-0.1,0-0.1,0-0.2v0c0,0,0-0.1,0-0.1
			c0,0,0-0.1,0-0.1c0-0.1,0-0.2,0-0.3c0-0.1,0.1-0.3,0.1-0.4c0.1-0.3,0.2-0.5,0.3-0.7c0,0,0,0,0-0.1c0,0,0,0,0-0.1
			c0.1-0.1,0.1-0.2,0.2-0.3c0,0,0-0.1,0.1-0.1c0.2-0.4,0.5-0.8,0.9-1.1c0,0,0.1-0.1,0.1-0.1c0.1-0.1,0.1-0.1,0.2-0.1
			c0,0,0.1-0.1,0.1-0.1c0.1-0.1,0.2-0.1,0.3-0.2c0,0,0,0,0,0c0.2-0.2,0.5-0.3,0.7-0.4c0,0,0,0,0,0c0.2-0.1,0.5-0.2,0.7-0.3
			c0.1,0,0.1,0,0.2,0c0.3-0.1,0.5-0.1,0.8-0.1c0.1,0,0.2,0,0.3,0c0,0,0.1,0,0.1,0c0,0,0.1,0,0.1,0c0.1,0,0.2,0,0.3,0
			c0.3,0,0.5,0.1,0.8,0.1c0.1,0,0.1,0,0.2,0c0.3,0.1,0.5,0.2,0.7,0.3c0,0,0,0,0,0c0.3,0.1,0.5,0.2,0.7,0.4c0,0,0,0,0,0
			c0.1,0.1,0.2,0.1,0.3,0.2c0,0,0.1,0.1,0.1,0.1c0.1,0,0.1,0.1,0.2,0.1c0,0,0.1,0.1,0.1,0.1c0.3,0.3,0.6,0.7,0.9,1.1
			c0,0,0,0.1,0.1,0.1c0.1,0.1,0.1,0.2,0.2,0.3c0,0,0,0.1,0,0.1c0.1,0.2,0.2,0.5,0.3,0.7c0,0.1,0.1,0.3,0.1,0.4c0,0.1,0,0.3,0.1,0.4
			c0,0,0,0.1,0,0.1c0,0,0,0.1,0,0.1C74.2,52.4,74.2,52.5,74.2,52.6z"/>
	</g>
	<linearGradient id="XMLID_10_" gradientUnits="userSpaceOnUse" x1="60.2212" y1="62.7471" x2="78.0602" y2="62.7471">
		<stop  offset="0" style="stop-color:#0032C3"/>
		<stop  offset="0.4188" style="stop-color:#0077BA"/>
		<stop  offset="0.8123" style="stop-color:#00B1B2"/>
		<stop  offset="1" style="stop-color:#00C8AF"/>
	</linearGradient>
	<path id="XMLID_22_" class="st11" d="M77.5,62.5v5.2c0,0.1,0,0.1-0.1,0.1H60.9c-0.1,0-0.2,0-0.2-0.1v-5.2c0-0.1,0-0.2,0-0.3
		c0.1-1.2,0.6-2.4,1.3-3.2c0,0,0-0.1,0.1-0.1c0.4-0.4,0.8-0.7,1.3-1c0,0,0.1,0,0.1,0c0.1-0.1,0.3-0.1,0.4-0.2c0,0,0.1,0,0.1,0
		c0.1,0,0.3-0.1,0.4-0.1c0.2,0.2,0.3,0.3,0.5,0.4c0.5,0.4,1,0.7,1.5,0.9c0.1,0,0.2,0.1,0.3,0.1c0.4,0.1,0.8,0.3,1.2,0.3
		c0.4,0.1,0.8,0.1,1.2,0.1c0.5,0,0.9,0,1.4-0.1c0.1,0,0.1,0,0.2,0c0,0,0,0,0,0c0.1,0,0.2,0,0.2,0c0,0,0,0,0,0c0.2,0,0.4-0.2,0.6-0.3
		c0.1,0,0.2-0.1,0.3-0.1c0.4-0.2,0.8-0.4,1.2-0.7c0,0,0,0,0,0c0,0,0.1,0,0.1-0.1c0.2-0.2,0.5-0.4,0.7-0.6c2.1,0.5,3.6,2.4,3.7,4.7
		C77.6,62.4,77.5,62.5,77.5,62.5z"/>
</g>
<g id="XMLID_54_">
	<g id="XMLID_56_">
		<linearGradient id="XMLID_11_" gradientUnits="userSpaceOnUse" x1="50.2732" y1="72.6489" x2="61.3883" y2="72.6489">
			<stop  offset="0" style="stop-color:#0032C3"/>
			<stop  offset="0.4188" style="stop-color:#0077BA"/>
			<stop  offset="0.8123" style="stop-color:#00B1B2"/>
			<stop  offset="1" style="stop-color:#00C8AF"/>
		</linearGradient>
		<path id="XMLID_21_" class="st12" d="M60.9,72.6c0,0.1,0,0.2,0,0.3c0,0.1,0,0.2,0,0.3c0,0.1,0,0.3-0.1,0.4c0,0.1-0.1,0.3-0.1,0.4
			c-0.1,0.3-0.2,0.5-0.3,0.7c0,0,0,0.1,0,0.1c-0.1,0.1-0.1,0.2-0.2,0.3c0,0,0,0.1-0.1,0.1c-0.2,0.4-0.5,0.8-0.9,1.1
			c0,0-0.1,0.1-0.1,0.1c-0.1,0.1-0.1,0.1-0.2,0.1c0,0-0.1,0.1-0.1,0.1c-0.1,0.1-0.2,0.1-0.3,0.2c0,0,0,0,0,0
			c-0.1,0.1-0.2,0.2-0.4,0.2c-0.1,0.1-0.2,0.1-0.3,0.2c0,0,0,0,0,0c-0.2,0.1-0.5,0.2-0.7,0.3c-0.1,0-0.1,0-0.2,0
			c-0.3,0.1-0.5,0.1-0.8,0.1c-0.1,0-0.2,0-0.3,0c0,0-0.1,0-0.1,0c0,0-0.1,0-0.1,0c-0.1,0-0.2,0-0.3,0c-0.3,0-0.5-0.1-0.8-0.1
			c-0.1,0-0.1,0-0.2,0c-0.3-0.1-0.5-0.2-0.7-0.3c0,0,0,0,0,0c-0.1,0-0.2-0.1-0.3-0.2c-0.1-0.1-0.3-0.2-0.4-0.2c0,0,0,0,0,0
			c-0.1-0.1-0.2-0.1-0.3-0.2c0,0-0.1-0.1-0.1-0.1c-0.1,0-0.1-0.1-0.2-0.1c-0.1-0.1-0.1-0.1-0.2-0.2c-0.3-0.3-0.6-0.6-0.8-1
			c0,0,0-0.1-0.1-0.1c-0.1-0.1-0.1-0.2-0.2-0.3c0,0,0-0.1,0-0.1c-0.1-0.2-0.2-0.5-0.3-0.7c0-0.1-0.1-0.3-0.1-0.4
			c0-0.1,0-0.3-0.1-0.4c0-0.1,0-0.2,0-0.3c0-0.1,0-0.2,0-0.3s0-0.2,0-0.3c0-0.1,0-0.1,0-0.2v0c0,0,0-0.1,0-0.1c0,0,0-0.1,0-0.1
			c0-0.1,0-0.2,0-0.3c0-0.1,0.1-0.3,0.1-0.4c0.1-0.3,0.2-0.5,0.3-0.7c0,0,0,0,0-0.1c0,0,0,0,0-0.1c0.1-0.1,0.1-0.2,0.2-0.3
			c0,0,0-0.1,0.1-0.1c0.2-0.4,0.5-0.8,0.9-1.1c0,0,0.1-0.1,0.1-0.1c0.1-0.1,0.1-0.1,0.2-0.1c0,0,0.1-0.1,0.1-0.1
			c0.1-0.1,0.2-0.1,0.3-0.2c0,0,0,0,0,0c0.2-0.2,0.5-0.3,0.7-0.4c0,0,0,0,0,0c0.2-0.1,0.5-0.2,0.7-0.3c0.1,0,0.1,0,0.2,0
			c0.3-0.1,0.5-0.1,0.8-0.1c0.1,0,0.2,0,0.3,0c0,0,0.1,0,0.1,0c0,0,0.1,0,0.1,0c0.1,0,0.2,0,0.3,0c0.3,0,0.5,0.1,0.8,0.1
			c0.1,0,0.1,0,0.2,0c0.3,0.1,0.5,0.2,0.7,0.3c0,0,0,0,0,0c0.3,0.1,0.5,0.2,0.7,0.4c0,0,0,0,0,0c0.1,0.1,0.2,0.1,0.3,0.2
			c0,0,0.1,0.1,0.1,0.1c0.1,0,0.1,0.1,0.2,0.1c0,0,0.1,0.1,0.1,0.1c0.3,0.3,0.6,0.7,0.9,1.1c0,0,0,0.1,0.1,0.1
			c0.1,0.1,0.1,0.2,0.2,0.3c0,0,0,0.1,0,0.1c0.1,0.2,0.2,0.5,0.3,0.7c0,0.1,0.1,0.3,0.1,0.4c0,0.1,0,0.3,0.1,0.4c0,0,0,0.1,0,0.1
			c0,0,0,0.1,0,0.1C60.9,72.5,60.9,72.6,60.9,72.6z"/>
	</g>
	<linearGradient id="XMLID_12_" gradientUnits="userSpaceOnUse" x1="46.8545" y1="82.7366" x2="64.807" y2="82.7366">
		<stop  offset="0" style="stop-color:#0032C3"/>
		<stop  offset="0.4188" style="stop-color:#0077BA"/>
		<stop  offset="0.8123" style="stop-color:#00B1B2"/>
		<stop  offset="1" style="stop-color:#00C8AF"/>
	</linearGradient>
	<path id="XMLID_16_" class="st13" d="M64.3,82.5v5.2c0,0.1-0.1,0.1-0.2,0.1H47.6c-0.1,0-0.2,0-0.2-0.1v-5.2c0-0.1,0-0.2,0-0.3
		c0.1-1.2,0.6-2.4,1.3-3.2c0,0,0,0,0.1-0.1c0.4-0.4,0.8-0.7,1.3-1c0,0,0.1,0,0.1,0c0.1-0.1,0.3-0.1,0.4-0.2c0,0,0.1,0,0.1,0
		c0.1,0,0.3-0.1,0.4-0.1c0.2,0.2,0.3,0.3,0.5,0.4c0.5,0.4,1,0.7,1.5,0.9c0.1,0,0.2,0.1,0.3,0.1c0.4,0.1,0.8,0.3,1.2,0.3
		c0.4,0.1,0.8,0.1,1.2,0.1c0.5,0,0.9,0,1.4-0.1c0.1,0,0.1,0,0.2,0c0,0,0,0,0,0c0.1,0,0.2,0,0.2,0c0,0,0,0,0,0c0.2,0,0.4-0.2,0.6-0.2
		c0.1,0,0.2-0.1,0.3-0.1c0.4-0.2,0.8-0.4,1.2-0.7c0,0,0,0,0,0c0,0,0.1,0,0.1-0.1c0.2-0.2,0.5-0.4,0.7-0.6c2.1,0.5,3.7,2.4,3.8,4.7
		C64.3,82.4,64.3,82.5,64.3,82.5z"/>
</g>
<g id="XMLID_33_">
	<g id="XMLID_35_">
		<linearGradient id="XMLID_13_" gradientUnits="userSpaceOnUse" x1="78.9753" y1="73.6905" x2="90.1498" y2="73.6905">
			<stop  offset="0" style="stop-color:#0032C3"/>
			<stop  offset="0.4188" style="stop-color:#0077BA"/>
			<stop  offset="0.8123" style="stop-color:#00B1B2"/>
			<stop  offset="1" style="stop-color:#00C8AF"/>
		</linearGradient>
		<path id="XMLID_14_" class="st14" d="M89.6,73.7c0,0.1,0,0.2,0,0.3c0,0.1,0,0.2,0,0.3c0,0.1,0,0.3-0.1,0.4c0,0.1-0.1,0.3-0.1,0.4
			c-0.1,0.3-0.2,0.5-0.3,0.7c0,0,0,0.1,0,0.1c-0.1,0.1-0.1,0.2-0.2,0.3c0,0,0,0.1-0.1,0.1c-0.2,0.4-0.5,0.8-0.9,1.1
			c0,0-0.1,0.1-0.1,0.1c-0.1,0.1-0.1,0.1-0.2,0.1c0,0-0.1,0.1-0.1,0.1c-0.1,0.1-0.2,0.1-0.3,0.2c0,0,0,0,0,0
			c-0.1,0.1-0.2,0.2-0.4,0.2c-0.1,0.1-0.2,0.1-0.3,0.2c0,0,0,0,0,0c-0.2,0.1-0.5,0.2-0.7,0.3c-0.1,0-0.1,0-0.2,0
			c-0.3,0.1-0.5,0.1-0.8,0.1c-0.1,0-0.2,0-0.3,0c0,0-0.1,0-0.1,0c0,0-0.1,0-0.1,0c-0.1,0-0.2,0-0.3,0c-0.3,0-0.5-0.1-0.8-0.1
			c-0.1,0-0.1,0-0.2,0c-0.3-0.1-0.5-0.2-0.7-0.3c0,0,0,0,0,0c-0.1,0-0.2-0.1-0.3-0.2c-0.1-0.1-0.3-0.2-0.4-0.2c0,0,0,0,0,0
			c-0.1-0.1-0.2-0.1-0.3-0.2c0,0-0.1-0.1-0.1-0.1c-0.1,0-0.1-0.1-0.2-0.1c-0.1-0.1-0.1-0.1-0.2-0.2c-0.3-0.3-0.6-0.6-0.8-1
			c0,0,0-0.1-0.1-0.1c-0.1-0.1-0.1-0.2-0.2-0.3c0,0,0-0.1,0-0.1c-0.1-0.2-0.2-0.5-0.3-0.7c0-0.1-0.1-0.3-0.1-0.4
			c0-0.1,0-0.3-0.1-0.4c0-0.1,0-0.2,0-0.3c0-0.1,0-0.2,0-0.3s0-0.2,0-0.3c0-0.1,0-0.1,0-0.2v0c0,0,0-0.1,0-0.1c0,0,0-0.1,0-0.1
			c0-0.1,0-0.2,0.1-0.3c0-0.1,0.1-0.3,0.1-0.4c0.1-0.3,0.2-0.5,0.3-0.7c0,0,0,0,0-0.1s0,0,0-0.1c0.1-0.1,0.1-0.2,0.2-0.3
			c0,0,0-0.1,0.1-0.1c0.2-0.4,0.5-0.8,0.9-1.1c0,0,0.1-0.1,0.1-0.1c0.1-0.1,0.1-0.1,0.2-0.1c0,0,0.1-0.1,0.1-0.1
			c0.1-0.1,0.2-0.1,0.3-0.2c0,0,0,0,0,0c0.2-0.2,0.5-0.3,0.7-0.4c0,0,0,0,0,0c0.2-0.1,0.5-0.2,0.7-0.3c0.1,0,0.1,0,0.2,0
			c0.3-0.1,0.5-0.1,0.8-0.1c0.1,0,0.2,0,0.3,0c0,0,0.1,0,0.1,0c0,0,0.1,0,0.1,0c0.1,0,0.2,0,0.3,0c0.3,0,0.5,0.1,0.8,0.1
			c0.1,0,0.1,0,0.2,0c0.3,0.1,0.5,0.2,0.7,0.3c0,0,0,0,0,0c0.3,0.1,0.5,0.2,0.7,0.4c0,0,0,0,0,0c0.1,0.1,0.2,0.1,0.3,0.2
			c0,0,0.1,0.1,0.1,0.1c0.1,0,0.1,0.1,0.2,0.1c0,0,0.1,0.1,0.1,0.1c0.3,0.3,0.6,0.7,0.9,1.1c0,0,0,0.1,0.1,0.1
			c0.1,0.1,0.1,0.2,0.2,0.3c0,0,0,0.1,0,0.1c0.1,0.2,0.2,0.5,0.3,0.7c0,0.1,0.1,0.3,0.1,0.4c0,0.1,0,0.3,0.1,0.4c0,0,0,0.1,0,0.1
			c0,0,0,0.1,0,0.1C89.6,73.5,89.6,73.6,89.6,73.7z"/>
	</g>
	<linearGradient id="XMLID_15_" gradientUnits="userSpaceOnUse" x1="75.6434" y1="83.5272" x2="93.4818" y2="83.5272">
		<stop  offset="0" style="stop-color:#0032C3"/>
		<stop  offset="0.4188" style="stop-color:#0077BA"/>
		<stop  offset="0.8123" style="stop-color:#00B1B2"/>
		<stop  offset="1" style="stop-color:#00C8AF"/>
	</linearGradient>
	<path id="XMLID_8_" class="st15" d="M93,83.3v5.2c0,0.1,0,0.2-0.1,0.2H76.3c-0.1,0-0.2-0.1-0.2-0.2v-5.2c0-0.1,0-0.2,0-0.3
		c0.1-1.2,0.6-2.4,1.3-3.2c0,0,0,0,0.1-0.1c0.4-0.4,0.8-0.7,1.3-1c0,0,0.1,0,0.1,0c0.1-0.1,0.3-0.1,0.4-0.2c0,0,0.1,0,0.1,0
		c0.1,0,0.3-0.1,0.4-0.1c0.2,0.2,0.3,0.3,0.5,0.4c0.5,0.4,1,0.7,1.5,0.9c0.1,0,0.2,0.1,0.3,0.1c0.4,0.1,0.8,0.3,1.2,0.3
		c0.4,0.1,0.8,0.1,1.2,0.1c0.5,0,0.9-0.1,1.4-0.2c0.1,0,0.1-0.1,0.2-0.1c0,0,0,0,0,0c0.1,0,0.2,0,0.2,0c0,0,0,0,0,0
		c0.2,0,0.4-0.1,0.6-0.2c0.1,0,0.2-0.1,0.3-0.1c0.4-0.2,0.8-0.4,1.2-0.6c0,0,0,0,0,0c0,0,0.1-0.1,0.1-0.1c0.2-0.2,0.5-0.4,0.7-0.6
		c2.1,0.5,3.6,2.4,3.7,4.7C93,83.1,93,83.2,93,83.3z"/>
</g>
</svg>
