<?xml version="1.0" encoding="utf-8"?>
<!-- Generator: Adobe Illustrator 19.0.0, SVG Export Plug-In . SVG Version: 6.00 Build 0)  -->
<svg version="1.1" id="Camada_1" xmlns="http://www.w3.org/2000/svg" xmlns:xlink="http://www.w3.org/1999/xlink" x="0px" y="0px"
	 viewBox="0 0 150 70" style="enable-background:new 0 0 150 70;" xml:space="preserve">
<style type="text/css">
	.st0{fill:#009EFF;}
	.st1{fill:#FFC300;}
	.st2{fill:#F9BA06;}
	.st3{fill:#FFFFFF;}
	.st4{fill:#454C53;}
</style>
<g id="XMLID_7_">
	<path id="XMLID_9_" class="st0" d="M27.5,49.2l3-6.8c2.9,1.9,6.9,3.2,10.7,3.2c3.8,0,5.3-1.1,5.3-2.6c0-5.1-18.4-1.4-18.4-13.4
		c0-5.8,4.7-10.5,14.3-10.5c4.2,0,8.6,1,11.7,2.8l-2.8,6.8c-3.1-1.7-6.1-2.5-9-2.5c-3.8,0-5.2,1.3-5.2,2.9c0,4.9,18.4,1.2,18.4,13.2
		c0,5.6-4.7,10.4-14.3,10.4C35.8,52.7,30.6,51.3,27.5,49.2z"/>
	<path id="XMLID_12_" class="st0" d="M85.7,45v7.1h-26V19.7h25.4v7.1H68.8v5.5h14.4v6.8H68.8V45H85.7z"/>
	<path id="XMLID_14_" class="st0" d="M87.3,35.9c0-9.7,7.6-16.8,18-16.8s18,7.1,18,16.8c0,9.7-7.6,16.8-18,16.8S87.3,45.6,87.3,35.9
		z M114,35.9c0-5.6-3.8-9.2-8.7-9.2c-4.9,0-8.7,3.7-8.7,9.2c0,5.6,3.8,9.2,8.7,9.2C110.1,45.1,114,41.5,114,35.9z"/>
</g>
<g id="XMLID_5_">
	<g id="XMLID_36_">
		<path id="XMLID_39_" class="st1" d="M105,10.4c-5.5,0-9.9,4.4-9.9,9.9s9.9,17,9.9,17s9.9-11.5,9.9-17S110.4,10.4,105,10.4z"/>
	</g>
</g>
<g id="XMLID_4_">
	<g id="XMLID_42_">
		<path id="XMLID_43_" class="st2" d="M105,10.4v26.9c0,0,9.9-11.5,9.9-17S110.4,10.4,105,10.4z"/>
	</g>
</g>
<circle id="XMLID_3_" class="st3" cx="105" cy="20.3" r="6.1"/>
<g id="XMLID_8_">
	<polygon id="XMLID_2_" class="st4" points="146.2,35.6 131.8,35.6 131.8,52.1 146.2,52.1 139,43.8 	"/>
	<polygon id="XMLID_1_" class="st4" points="3.8,35.6 18.2,35.6 18.2,52.1 3.8,52.1 11,43.8 	"/>
</g>
</svg>
