<?xml version="1.0" encoding="utf-8"?>
<!-- Generator: Adobe Illustrator 19.0.0, SVG Export Plug-In . SVG Version: 6.00 Build 0)  -->
<svg version="1.1" id="Camada_1" xmlns="http://www.w3.org/2000/svg" xmlns:xlink="http://www.w3.org/1999/xlink" x="0px" y="0px"
	 viewBox="0 0 600 250" style="enable-background:new 0 0 600 250;" xml:space="preserve">
<style type="text/css">
	.st0{fill:#FFB23B;}
	.st1{fill:#DFDEE4;}
	.st2{fill:#464E72;}
	.st3{fill:#FFCC7E;}
	.st4{fill:none;stroke:#464E72;stroke-width:3;stroke-miterlimit:10;}
	.st5{font-family:'MyriadPro-Regular';}
	.st6{font-size:24.3203px;}
	
		.st7{fill:none;stroke:#464E72;stroke-width:3;stroke-linecap:round;stroke-linejoin:round;stroke-miterlimit:10;stroke-dasharray:12;}
	.st8{fill:none;stroke:#464E72;stroke-width:3;stroke-linecap:round;stroke-miterlimit:10;stroke-dasharray:12;}
	.st9{opacity:0.5;fill:#FFFFFF;enable-background:new    ;}
	.st10{fill:none;stroke:#464E72;stroke-width:3;stroke-linecap:round;stroke-miterlimit:10;}
	.st11{fill:#FFFFFF;}
	.st12{fill:#E0DFE5;}
	.st13{fill:none;stroke:#464E72;stroke-width:3;stroke-linecap:round;stroke-linejoin:round;stroke-miterlimit:10;}
	.st14{fill:none;stroke:#FFB23B;stroke-width:3;stroke-linecap:round;stroke-linejoin:round;stroke-miterlimit:10;}
</style>
<g id="XMLID_15_">
	<polygon id="XMLID_1021_" class="st0" points="24.8,190.9 17.9,194.8 11.1,198.5 11.1,190.9 11.1,183.4 17.9,187.2 	"/>
	<path id="XMLID_1018_" class="st1" d="M302.8,217.4h-13.9V203c0-3.7,3.1-6.7,6.9-6.7l0,0c3.9,0,6.9,3,6.9,6.7L302.8,217.4
		L302.8,217.4z"/>
	<path id="XMLID_20_" class="st1" d="M262.8,196.2c-3.9,0-7,3-7,6.7v39.6H289v-25.2V203c0-3.7,3.1-6.7,6.9-6.7L262.8,196.2
		L262.8,196.2z"/>
	<path id="XMLID_23_" class="st1" d="M576.2,88.6c9.7,0,17.6,7.5,17.6,16.7c0,7.1-4.6,13.1-11.1,15.6c1.2,2.1,2.9,3.9,5,5.5
		c-0.6-0.1-1.1-0.1-1.7-0.2c-3.5-0.6-6.5-2.1-8.7-4.1c-0.4,0-0.7,0-1,0c-9.7,0-17.6-7.5-17.6-16.7C558.6,96.1,566.5,88.6,576.2,88.6
		z"/>
	<path id="XMLID_1009_" class="st1" d="M520,79.7h-34c-2.3,0-4.2-1.8-4.2-4V51.9c0-2.2,1.9-4,4.2-4h34c2.3,0,4.2,1.8,4.2,4v23.8
		C524.3,77.9,522.4,79.7,520,79.7z"/>
	<g id="heart_2_">
		<g id="XMLID_207_">
			<g id="XMLID_208_">
				<path id="XMLID_209_" class="st1" d="M102.7,176.4v2c-0.1,0.5-0.1,1.1-0.4,1.6c-0.5,1.4-1.4,3-2.8,4.6c-0.4,0.6-1,1.2-1.6,1.8
					c-0.4,0.5-1,1-1.5,1.6c-1,1.1-2.2,2.2-3.4,3.3c-1.7,1.6-3.5,3.1-5.4,4.8c-0.2,0.2-0.4,0.4-0.7,0.5c-0.5,0.4-1.2,0.6-1.8,0.8
					c-1.3,0.4-2.7,0.3-3.9-0.1c-0.7-0.2-1.3-0.6-1.8-1c-0.1-0.1-0.1-0.1-0.3-0.2c-1.9-1.7-3.8-3.3-5.5-4.9c-1.3-1.1-2.4-2.3-3.5-3.3
					c-0.5-0.5-1-1-1.4-1.5c-0.6-0.6-1-1.2-1.6-1.8c-1.3-1.6-2.2-3.1-2.8-4.6c-0.1-0.6-0.3-1.1-0.4-1.6v-2c0.1-1.1,0.3-2.1,0.7-3
					c0.6-1.6,1.5-2.9,2.6-3.9c1.6-1.5,3.6-2.3,5.4-2.5c0.6-0.1,1.2-0.1,1.7-0.1c2,0,3.5,0.4,4.8,1c0.7,0.3,1.3,0.7,1.8,1.1
					c0.7,0.6,1.5,1.3,2.2,2.1c0.6-0.6,1.2-1.2,1.8-1.8c0.6-0.5,1.2-0.9,1.8-1.3c1.4-0.8,3.1-1.2,5.2-1.2c0.5,0,1.1,0,1.7,0.1
					c1.8,0.1,3.7,0.9,5.3,2.3c1.1,1,2,2.3,2.7,3.8C102.4,174.2,102.6,175.2,102.7,176.4z"/>
			</g>
		</g>
	</g>
	<path id="XMLID_33_" class="st1" d="M374.3,175.7c-7.4-7.2-13.6-14.4-18.1-21.2c-14.2,6.2-31.5,3.7-43.2-7.5
		c-14.9-14.2-15.1-37-0.7-51.5c-2.3,1.4-4.5,3.1-6.4,5c-15.5,14.8-15.5,38.9,0,53.7c7.5,7.2,17.6,11.1,28.2,11.1
		c5.4,0,10.6-1.1,15.5-3c4.5,6.8,10.6,13.9,17.6,20.5c15.5,14.9,32.7,24.9,42.6,24.9l0,0c2.7,0,4.8-0.7,6.2-2.1
		c1.4-1.3,2.2-3.3,2.2-5.7C409.5,201.8,391.3,192,374.3,175.7z"/>
	<path id="XMLID_996_" class="st1" d="M395.1,188.9H221.9c-5.4,0-9.9-4.2-9.9-9.4V73c0-5.2,4.4-9.4,9.9-9.4h173.2
		c5.4,0,9.9,4.2,9.9,9.4v106.6C404.9,184.7,400.5,188.9,395.1,188.9z"/>
	<path id="XMLID_34_" class="st2" d="M238.3,51.5L252,70h137.9V59.8c0-4.7-3.9-8.4-8.8-8.4L238.3,51.5L238.3,51.5z"/>
	<path id="XMLID_38_" class="st3" d="M205.8,51.5h32.4L251.9,70h137.9v98.3c0,4.7-3.9,8.4-8.8,8.4H205.8V51.5z"/>
	<path id="XMLID_989_" class="st4" d="M379.9,176.8H206.7c-5.4,0-9.9-4.2-9.9-9.4V60.8c0-5.2,4.4-9.4,9.9-9.4h173.2
		c5.4,0,9.9,4.2,9.9,9.4v106.6C389.8,172.6,385.4,176.8,379.9,176.8z"/>
	<polyline id="XMLID_42_" class="st4" points="238.3,51.5 252,70 389.8,70 	"/>
	<ellipse id="XMLID_45_" class="st1" cx="343.9" cy="60.7" rx="3" ry="2.8"/>
	<ellipse id="XMLID_48_" class="st1" cx="359.5" cy="60.7" rx="3" ry="2.8"/>
	<ellipse id="XMLID_51_" class="st1" cx="375.1" cy="60.7" rx="3" ry="2.8"/>
	<path id="XMLID_74_" class="st0" d="M339,133.7h-91.4c-7.4,0-13.5-5.7-13.5-12.8v-2c0-7.1,6-12.8,13.5-12.8H339
		c7.4,0,13.5,5.7,13.5,12.8v2C352.5,127.9,346.5,133.7,339,133.7z"/>
	<text id="XMLID_52_" transform="matrix(1.0475 0 0 1 256.1753 127.8408)" class="st2 st5 st6">A</text>
	<line id="XMLID_56_" class="st4" x1="278.5" y1="115.7" x2="294.5" y2="115.7"/>
	<line id="XMLID_59_" class="st4" x1="278.5" y1="125.9" x2="294.5" y2="125.9"/>
	<line id="XMLID_62_" class="st4" x1="256.1" y1="136.2" x2="297" y2="136.2"/>
	<line id="XMLID_65_" class="st4" x1="256.1" y1="146.4" x2="302.6" y2="146.4"/>
	<line id="XMLID_68_" class="st4" x1="256.1" y1="156.7" x2="313" y2="156.7"/>
	<path id="XMLID_71_" class="st1" d="M147.7,123.6v-15.9l10-1.6c0.5-1.6,1.2-3,1.9-4.4l-5.9-7.9l11.8-11.2l8.3,5.7
		c1.5-0.7,3.1-1.3,4.6-1.8l1.7-9.6h8.3v17.8c-12.3,0-22.2,9.5-22.2,21.2s9.9,21.2,22.2,21.2v17.8h-8.3l-1.7-9.6
		c-1.6-0.5-3.1-1.1-4.6-1.8l-8.3,5.7l-11.8-11.2l5.9-7.9c-0.7-1.4-1.4-2.9-1.9-4.4L147.7,123.6z"/>
	<path id="XMLID_77_" class="st1" d="M445.4,223.2v-5.6l-3.6-0.6c-0.1-0.6-0.4-1.1-0.7-1.6l2.1-2.8l-4.2-4l-3,2
		c-0.5-0.3-1-0.5-1.6-0.6l-0.6-3.4H431h-2.9l-0.6,3.4c-0.6,0.1-1.1,0.4-1.6,0.6l-3-2l-4.2,4l2.1,2.8c-0.3,0.5-0.5,1-0.7,1.6
		l-3.6,0.6v5.6l3.6,0.6c0.1,0.6,0.4,1.1,0.7,1.6l-2.1,2.8l4.2,4l3-2c0.5,0.3,1,0.5,1.6,0.6l0.6,3.4h2.9h2.9l0.6-3.4
		c0.6-0.1,1.1-0.4,1.6-0.6l3,2l4.2-4l-2.1-2.8c0.3-0.5,0.5-1,0.7-1.6L445.4,223.2z M431,227.8c-4.3,0-7.9-3.3-7.9-7.5
		c0-4.1,3.5-7.5,7.9-7.5c4.3,0,7.9,3.3,7.9,7.5C438.9,224.5,435.3,227.8,431,227.8z"/>
	<path id="XMLID_82_" class="st7" d="M390.7,115h18.7c19.6,0,35.6,15.2,35.6,34v20.1c0,25.1,21.3,45.4,47.5,45.4l0,0
		c26.3,0,47.5-20.3,47.5-45.4l0,0c0-18.1,15.4-32.9,34.4-32.9H600"/>
	<path id="XMLID_83_" class="st8" d="M196.8,163.8h-26.2c-24.5,0-44.3-18.9-44.3-42.3v-20.1c0-23.4-19.8-42.3-44.3-42.3H1"/>
	<g id="XMLID_84_">
		<path id="XMLID_73_" class="st1" d="M506,193.3l-27.7-1.3c-2.4-0.1-4.2-2.1-4.2-4.4l1-18.9c0.1-2.3,2.2-4,4.6-4l27.7,1.3
			c2.4,0.1,4.2,2.1,4.2,4.4l-1,18.9C510.4,191.6,508.4,193.4,506,193.3z"/>
		<path id="XMLID_72_" class="st4" d="M503.3,188.7l-27.7-1.3c-2.4-0.1-4.2-2.1-4.2-4.4l1-18.9c0.1-2.3,2.2-4,4.6-4l27.7,1.3
			c2.4,0.1,4.2,2.1,4.2,4.4l-1,18.9C507.7,187,505.7,188.8,503.3,188.7z"/>
		<path id="XMLID_893_" class="st0" d="M483.9,174.2l0.3-5.1c0.1-1.2,1.4-1.8,2.5-1.2l4.5,2.8l4.5,2.8c1,0.6,1,2.1-0.1,2.6l-4.8,2.3
			l-4.8,2.3c-1.1,0.6-2.4-0.3-2.3-1.4L483.9,174.2z"/>
	</g>
	<g id="XMLID_85_">
		<path id="XMLID_889_" class="st9" d="M363.4,98.9c-12.8-12.2-33.5-12.2-46.2,0c-12.8,12.2-12.8,31.9,0,44.1
			c12.8,12.2,33.5,12.2,46.2,0C376.1,130.8,376.1,111.1,363.4,98.9z"/>
		<path id="XMLID_886_" class="st4" d="M367.6,94.9c-15.1-14.4-39.6-14.4-54.6,0c-15.1,14.4-15.1,37.7,0,52.2
			c15.1,14.4,39.6,14.4,54.6,0C382.7,132.6,382.7,109.3,367.6,94.9z"/>
		<path id="XMLID_883_" class="st10" d="M367,118.9c-0.1-2.9-0.7-5.7-1.9-8.4"/>
		<path id="XMLID_880_" class="st10" d="M359.4,102.1c-10.2-9.8-26.8-9.8-37,0"/>
		<path id="XMLID_95_" class="st11" d="M423.2,194.1c-0.1,1.8-0.7,3.2-1.9,4.2c-4.2,4-14.7,1.1-26.9-6.7c-1.9-1.2-3.8-2.5-5.7-3.9
			c-4.8-3.5-9.7-7.5-14.4-12.1c-7.4-7.2-13.6-14.4-18-21.2c2.2-0.9,4.3-2.1,6.3-3.5c1.8-1.2,3.5-2.5,5.1-4.1c3.4-3.3,6-6.9,7.9-10.8
			c7,4.2,14.7,10.1,22.2,17.2c4.8,4.6,9.1,9.3,12.7,13.9c1.5,1.8,2.8,3.7,4.1,5.5C420.4,181.4,423.7,189.1,423.2,194.1z"/>
		<path id="XMLID_98_" class="st12" d="M423.2,194.1c-9.2,1.3-27.7-8.8-44.9-25.3c-6.2-5.9-11.5-12-15.8-17.7
			c1.8-1.2,3.5-2.5,5.1-4.1c3.4-3.3,6-6.9,7.9-10.8c7,4.2,14.7,10.1,22.2,17.2C413.9,168.9,424,185.5,423.2,194.1z"/>
		<path id="XMLID_873_" class="st4" d="M367.6,147c-3.4,3.3-7.2,5.7-11.4,7.5c4.4,6.7,10.6,14,18.1,21.2
			c19.6,18.7,40.7,28.9,47.2,22.7c6.5-6.2-4.2-26.3-23.8-45c-7.4-7.2-15.2-13-22.2-17.2C373.6,140.1,371,143.8,367.6,147z"/>
		<g id="XMLID_99_">
			<path id="XMLID_100_" class="st2" d="M410.4,167.2c-2.8,3.9-6,7.7-9.7,11.2c-3.7,3.5-7.7,6.7-12,9.3c1.9,1.4,3.9,2.7,5.7,3.9
				c3.8-2.5,7.5-5.5,10.9-8.8c3.3-3.3,6.4-6.7,9-10.2C413.2,170.9,411.9,169.1,410.4,167.2z"/>
		</g>
	</g>
	<g id="XMLID_102_">
		<path id="XMLID_105_" class="st1" d="M84.7,101c-0.6,0-1.3,0.1-1.9,0.1c0.1-0.8,0.2-1.6,0.2-2.3c0-8.1-6.8-14.6-15.3-14.6
			c-7.3,0-13.4,4.9-15,11.4c-0.8-0.1-1.7-0.2-2.6-0.2c-8.4,0-15.3,6.5-15.3,14.6s6.8,14.6,15.3,14.6h34.4c6.8,0,12.3-5.3,12.3-11.8
			C97,106.3,91.4,101,84.7,101z"/>
		<path id="XMLID_108_" class="st4" d="M79.5,97.1c-0.6,0-1.3,0.1-1.9,0.1c0.1-0.8,0.2-1.6,0.2-2.3c0-8.1-6.8-14.6-15.3-14.6
			c-7.3,0-13.4,4.9-15,11.4c-0.8-0.1-1.7-0.2-2.6-0.2c-8.4,0-15.3,6.5-15.3,14.6c0,8.1,6.8,14.6,15.3,14.6h34.4
			c6.8,0,12.3-5.3,12.3-11.8C91.8,102.4,86.3,97.1,79.5,97.1z"/>
		<polygon id="XMLID_111_" class="st0" points="69.2,114.7 69.2,99.2 52.4,99.2 52.4,114.7 45.9,114.7 60.8,132 75.6,114.7 		"/>
		<polygon id="XMLID_114_" class="st13" points="69.2,114.7 69.2,99.2 52.4,99.2 52.4,114.7 45.9,114.7 60.8,132 75.6,114.7 		"/>
	</g>
	<path id="XMLID_115_" class="st8" d="M75.6,242.6V237c0-12.5,10.6-22.6,23.7-22.6h113.6c15.5,0,28.1-12,28.1-26.9v-10.8"/>
	<path id="XMLID_116_" class="st8" d="M1,133.7h10.6c12.9,0,23.3,10,23.3,22.2v86.7"/>
	<path id="XMLID_119_" class="st7" d="M390.7,89.8h148.5c11.1,0,20.1-8.6,20.1-19.2l0,0c0-10.5,9-19.2,20.1-19.2H600"/>
	<g id="XMLID_120_">
		<path id="XMLID_848_" class="st1" d="M143.5,190.5v-7c0-1.6,1.9-2.6,3.3-1.8l6.4,3.5l6.4,3.5c1.5,0.8,1.5,2.8,0,3.6l-6.4,3.5
			l-6.4,3.5c-1.5,0.8-3.3-0.2-3.3-1.8V190.5z"/>
		<path id="XMLID_844_" class="st1" d="M165.8,190.5v-7c0-1.6,1.9-2.6,3.3-1.8l6.4,3.5l6.4,3.5c1.5,0.8,1.5,2.8,0,3.6l-6.4,3.5
			l-6.4,3.5c-1.5,0.8-3.3-0.2-3.3-1.8V190.5z"/>
		<path id="XMLID_841_" class="st0" d="M141,185.8v-7c0-1.6,1.9-2.6,3.3-1.8l6.4,3.5l6.4,3.5c1.5,0.8,1.5,2.8,0,3.6l-6.4,3.5
			l-6.4,3.5c-1.5,0.8-3.3-0.2-3.3-1.8V185.8z"/>
		<path id="XMLID_838_" class="st0" d="M163.2,185.8v-7c0-1.6,1.9-2.6,3.3-1.8l6.4,3.5l6.4,3.5c1.5,0.8,1.5,2.8,0,3.6l-6.4,3.5
			l-6.4,3.5c-1.5,0.8-3.3-0.2-3.3-1.8V185.8z"/>
		<path id="XMLID_834_" class="st4" d="M141,185.8v-7c0-1.6,1.9-2.6,3.3-1.8l6.4,3.5l6.4,3.5c1.5,0.8,1.5,2.8,0,3.6l-6.4,3.5
			l-6.4,3.5c-1.5,0.8-3.3-0.2-3.3-1.8V185.8z"/>
		<path id="XMLID_831_" class="st4" d="M163.2,185.8v-7c0-1.6,1.9-2.6,3.3-1.8l6.4,3.5l6.4,3.5c1.5,0.8,1.5,2.8,0,3.6l-6.4,3.5
			l-6.4,3.5c-1.5,0.8-3.3-0.2-3.3-1.8V185.8z"/>
	</g>
	<g id="heart_1_">
		<g id="XMLID_216_">
			<g id="XMLID_217_">
				<path id="XMLID_218_" class="st4" d="M99.6,170.8v2c-0.1,0.5-0.1,1.1-0.4,1.6c-0.5,1.4-1.4,3-2.8,4.6c-0.4,0.6-1,1.2-1.6,1.8
					c-0.4,0.5-1,1-1.5,1.6c-1,1.1-2.2,2.2-3.4,3.3c-1.7,1.6-3.5,3.1-5.4,4.8c-0.2,0.2-0.4,0.4-0.7,0.5c-0.5,0.4-1.2,0.6-1.8,0.8
					c-1.3,0.4-2.7,0.3-3.9-0.1c-0.7-0.2-1.3-0.6-1.8-1c-0.1-0.1-0.1-0.1-0.3-0.2c-1.9-1.7-3.8-3.3-5.5-4.9c-1.3-1.1-2.4-2.3-3.5-3.3
					c-0.5-0.5-1-1-1.4-1.5c-0.6-0.6-1-1.2-1.6-1.8c-1.3-1.6-2.2-3.1-2.8-4.6c-0.1-0.6-0.3-1.1-0.4-1.6v-2c0.1-1.1,0.3-2.1,0.7-3
					c0.6-1.6,1.5-2.9,2.6-3.9c1.6-1.5,3.6-2.3,5.4-2.5c0.6-0.1,1.2-0.1,1.7-0.1c2,0,3.5,0.4,4.8,1c0.7,0.3,1.3,0.7,1.8,1.1
					c0.7,0.6,1.5,1.3,2.2,2.1c0.6-0.6,1.2-1.2,1.8-1.8c0.6-0.5,1.2-0.9,1.8-1.3c1.4-0.8,3.1-1.2,5.2-1.2c0.5,0,1.1,0,1.7,0.1
					c1.8,0.1,3.7,0.9,5.3,2.3c1.1,1,2,2.3,2.7,3.8C99.2,168.6,99.5,169.6,99.6,170.8z"/>
			</g>
		</g>
	</g>
	<g id="XMLID_121_">
		<path id="XMLID_136_" class="st4" d="M146,65h-4.8c-2.9,0-5.2,1.8-5.2,4l0,0c0,2.2,2.3,4,5.2,4h1.4c1.9,0,3.4,1.2,3.4,2.6l0,0
			c0,1.5-1.6,2.6-3.4,2.6H136"/>
		<line id="XMLID_137_" class="st4" x1="141.1" y1="65" x2="141.1" y2="60.7"/>
		<line id="XMLID_138_" class="st4" x1="141.1" y1="82.5" x2="141.1" y2="78.2"/>
	</g>
	<g id="XMLID_139_">
		<path id="XMLID_142_" class="st4" d="M466.9,107.5h-4.8c-2.9,0-5.2,1.8-5.2,4l0,0c0,2.2,2.3,4,5.2,4h1.4c1.9,0,3.4,1.2,3.4,2.6
			l0,0c0,1.5-1.6,2.6-3.4,2.6h-6.6"/>
		<line id="XMLID_143_" class="st4" x1="462.1" y1="107.5" x2="462.1" y2="103.2"/>
		<line id="XMLID_144_" class="st4" x1="462.1" y1="124.9" x2="462.1" y2="120.8"/>
	</g>
	<g id="XMLID_145_">
		<path id="XMLID_148_" class="st1" d="M510.3,112.6c-9.8,0-18.2,6.4-21.6,15.4c3.4,9,11.8,15.4,21.6,15.4s18.2-6.4,21.6-15.4
			C528.4,119,520,112.6,510.3,112.6z"/>
		<ellipse id="XMLID_151_" class="st3" cx="507.5" cy="123.8" rx="9.5" ry="9.1"/>
		<path id="XMLID_154_" class="st4" d="M507.5,108.4c-9.8,0-18.2,6.4-21.6,15.4c3.4,9,11.8,15.4,21.6,15.4s18.2-6.4,21.6-15.4
			C525.6,114.8,517.3,108.4,507.5,108.4z"/>
		<ellipse id="XMLID_155_" class="st4" cx="507.5" cy="123.8" rx="9.5" ry="9.1"/>
	</g>
	<path id="XMLID_156_" class="st1" d="M440.3,51.7l2.1,4c0.4,0.8,1.2,1.3,2.1,1.5l4.7,0.6c2.3,0.3,3.2,3,1.6,4.5l-3.4,3.2
		c-0.7,0.6-1,1.5-0.8,2.3l0.8,4.5c0.4,2.2-2,3.8-4,2.8l-4.2-2.1c-0.8-0.4-1.8-0.4-2.6,0l-4.2,2.1c-2.1,1.1-4.5-0.6-4-2.8l0.8-4.5
		c0.1-0.8-0.1-1.8-0.8-2.3l-3.4-3.2c-1.6-1.6-0.7-4.2,1.6-4.5l4.7-0.6c0.9-0.1,1.7-0.6,2.1-1.5l2.1-4
		C436.4,49.7,439.3,49.7,440.3,51.7z"/>
	<path id="XMLID_157_" class="st1" d="M19.4,70.1l1.3,2.4c0.2,0.5,0.7,0.8,1.3,0.8l2.8,0.4c1.3,0.2,1.9,1.8,0.9,2.7l-2,1.9
		c-0.4,0.4-0.6,0.9-0.4,1.4l0.4,2.7c0.2,1.3-1.2,2.3-2.4,1.7l-2.5-1.3c-0.5-0.2-1-0.2-1.6,0l-2.5,1.3c-1.2,0.6-2.7-0.4-2.4-1.7
		l0.4-2.7c0.1-0.5-0.1-1.1-0.4-1.4l-2-1.9c-1-0.9-0.4-2.5,0.9-2.7l2.8-0.4c0.5-0.1,1-0.4,1.3-0.8l1.3-2.4
		C17,68.9,18.8,68.9,19.4,70.1z"/>
	<path id="XMLID_795_" class="st4" d="M585,228.3h-24.8c-4.5,0-8.2-3.5-8.2-7.8v-46.4c0-4.3,3.6-7.8,8.2-7.8H585
		c4.5,0,8.2,3.5,8.2,7.8v46.4C593.2,224.9,589.5,228.3,585,228.3z"/>
	<path id="XMLID_792_" class="st4" d="M585.2,223.4H560c-4.4,0-8-3.4-8-7.6V179c0-4.2,3.6-7.6,8-7.6h25.1c4.4,0,8,3.4,8,7.6v36.8
		C593.2,220,589.7,223.4,585.2,223.4z"/>
	<path id="XMLID_791_" class="st2" d="M585.2,223.4H560c-4.4,0-8-3.4-8-7.6V179c0-4.2,3.6-7.6,8-7.6h25.1c4.4,0,8,3.4,8,7.6v36.8
		C593.2,220,589.7,223.4,585.2,223.4z"/>
	<polyline id="XMLID_162_" class="st14" points="565.9,194.3 572.6,200.2 581,188.5 	"/>
	<path id="XMLID_165_" class="st4" d="M515.6,75.4h-32.8c-2.2,0-3.9-1.7-3.9-3.8V49.8c0-2.1,1.8-3.8,3.9-3.8h8.2
		c1,0,2.1,0.4,2.8,1.1l4.2,4.2h17.6c2.2,0,3.9,1.7,3.9,3.8v16.5C519.5,73.7,517.8,75.4,515.6,75.4z"/>
	<path id="XMLID_168_" class="st4" d="M571.6,88.6c9.7,0,17.6,7.5,17.6,16.7c0,7.1-4.6,13.1-11.1,15.6c1.2,2.1,2.9,3.9,5,5.5
		c-0.6-0.1-1.1-0.1-1.7-0.2c-3.5-0.6-6.5-2.1-8.7-4.1c-0.4,0-0.7,0-1,0c-9.7,0-17.6-7.5-17.6-16.7C554.1,96.1,561.9,88.6,571.6,88.6
		z"/>
	<line id="XMLID_169_" class="st8" x1="352" y1="176.8" x2="352" y2="242.6"/>
	<path id="XMLID_659_" class="st4" d="M297.4,214.7h-13.9v-14.4c0-3.7,3.1-6.7,6.9-6.7l0,0c3.9,0,6.9,3,6.9,6.7L297.4,214.7
		L297.4,214.7z"/>
	<path id="XMLID_173_" class="st4" d="M257.4,193.6c-3.9,0-7,3-7,6.7v37h33.2v-22.6v-14.4c0-3.7,3.1-6.7,6.9-6.7L257.4,193.6
		L257.4,193.6z"/>
	<line id="XMLID_176_" class="st4" x1="11.1" y1="181.2" x2="11.1" y2="208.6"/>
	<polygon id="XMLID_472_" class="st13" points="24.8,190.9 17.9,194.8 11.1,198.5 11.1,190.9 11.1,183.4 17.9,187.2 	"/>
	<polygon id="XMLID_24_" class="st0" points="565.6,34.3 558.6,38.1 551.8,41.9 551.8,34.3 551.8,26.7 558.6,30.6 	"/>
	<line id="XMLID_180_" class="st4" x1="551.8" y1="24.6" x2="551.8" y2="52"/>
	<polygon id="XMLID_18_" class="st13" points="565.6,34.3 558.6,38.1 551.8,41.9 551.8,34.3 551.8,26.7 558.6,30.6 	"/>
</g>
</svg>
