<?xml version="1.0" encoding="utf-8"?>
<!-- Generator: Adobe Illustrator 19.0.0, SVG Export Plug-In . SVG Version: 6.00 Build 0)  -->
<svg version="1.1" id="Camada_1" xmlns="http://www.w3.org/2000/svg" xmlns:xlink="http://www.w3.org/1999/xlink" x="0px" y="0px"
	 viewBox="0 0 300 150" style="enable-background:new 0 0 300 150;" xml:space="preserve">
<style type="text/css">
	.st0{fill:none;stroke:#FF8D00;stroke-width:2;stroke-miterlimit:10;}
	.st1{fill:#FF8D00;}
	.st2{fill:#FFC300;}
	.st3{fill:#FFE799;}
	.st4{fill:#FFCF33;}
	.st5{fill:#DBE4E9;}
	.st6{fill:#C5C8CA;}
	.st7{fill:#949698;}
	.st8{fill:none;stroke:#DBE4E9;stroke-width:3;stroke-linecap:round;stroke-miterlimit:10;}
	.st9{fill:#B5B7BA;}
	.st10{fill:#454C53;}
	.st11{fill:#F25C21;}
	.st12{fill:#009EFF;}
	.st13{fill:#59D3FE;}
	.st14{fill:#FFFFFF;}
	.st15{fill:none;stroke:#F25C21;stroke-width:4;stroke-linecap:round;stroke-miterlimit:10;}
	.st16{fill:#BDEDFF;}
	.st17{fill:#D2DDE3;}
	.st18{clip-path:url(#XMLID_3_);}
	.st19{clip-path:url(#SVGID_2_);fill:#59D3FE;}
	.st20{fill:#E04819;}
	.st21{fill:#E4EBEE;}
	.st22{fill:#F7B806;}
</style>
<g>
	<g>
		<polyline class="st0" points="33.2,109 54.5,82.9 74.1,118.5 102,77.6 127.6,102 168.3,70.2 205.7,120 235.3,80.8 257.2,104.1 		
			"/>
		<g>
			<ellipse class="st1" cx="235.4" cy="79.2" rx="3.9" ry="3.7"/>
			<ellipse class="st2" cx="235.4" cy="79.2" rx="2" ry="1.9"/>
		</g>
		<g>
			<ellipse class="st1" cx="205.7" cy="120.6" rx="3.9" ry="3.7"/>
			<ellipse class="st2" cx="205.7" cy="120.6" rx="2" ry="1.9"/>
		</g>
		<g>
			<ellipse class="st1" cx="74.1" cy="119.1" rx="3.9" ry="3.7"/>
			<ellipse class="st2" cx="74.1" cy="119.1" rx="2" ry="1.9"/>
		</g>
		<g>
			<ellipse class="st1" cx="54.5" cy="82.9" rx="3.9" ry="3.7"/>
			<ellipse class="st2" cx="54.5" cy="82.9" rx="2" ry="1.9"/>
		</g>
		<g>
			<ellipse class="st1" cx="33.2" cy="108.9" rx="3.9" ry="3.7"/>
			<ellipse class="st2" cx="33.2" cy="108.9" rx="2" ry="1.9"/>
		</g>
		<line class="st0" x1="257.2" y1="104.1" x2="271" y2="88.7"/>
		<g>
			<ellipse class="st1" cx="257.2" cy="104.1" rx="3.9" ry="3.7"/>
			<ellipse class="st2" cx="257.2" cy="104.1" rx="2" ry="1.9"/>
		</g>
	</g>
	<g>
		<polygon class="st3" points="244.8,56.6 217,56.6 217,124.8 249.7,124.8 249.7,62 		"/>
		<polygon class="st2" points="245,56.5 249.7,62 245,62 		"/>
		<rect x="222.4" y="67.6" class="st4" width="21.9" height="1.6"/>
		<rect x="222.4" y="71.9" class="st4" width="21.9" height="1.6"/>
		<rect x="222.4" y="76.1" class="st4" width="21.9" height="1.6"/>
		<rect x="222.4" y="80.4" class="st4" width="21.9" height="1.6"/>
		<rect x="222.4" y="84.7" class="st4" width="21.9" height="1.6"/>
		<rect x="222.4" y="89" class="st4" width="21.9" height="1.6"/>
		<rect x="222.4" y="93.3" class="st4" width="21.9" height="1.6"/>
		<rect x="222.4" y="97.6" class="st4" width="21.9" height="1.6"/>
		<rect x="222.4" y="101.8" class="st4" width="21.9" height="1.6"/>
		<rect x="222.4" y="106.1" class="st4" width="21.9" height="1.6"/>
		<rect x="222.4" y="110.4" class="st4" width="21.9" height="1.6"/>
		<rect x="222.4" y="114.7" class="st4" width="21.9" height="1.6"/>
		<rect x="222.4" y="119" class="st4" width="21.9" height="1.6"/>
	</g>
	<g>
		<g>
			<path class="st5" d="M214,103h1.4c3.9,0,7,3.1,7,7v9.9c0,3.9-3.1,7-7,7H214c-3.9,0-7-3.1-7-7V110C207,106.2,210.2,103,214,103z"
				/>
			<path class="st6" d="M207,117.4v2.5c0,3.9,3.4,7.1,7.7,7.1c4.3,0,7.7-3.2,7.7-7.1v-2.5H207z"/>
			<path class="st7" d="M214.7,126.9C214.7,126.9,214.7,126.9,214.7,126.9l0-9.6H207v2.5C207,123.8,210.5,126.9,214.7,126.9z"/>
		</g>
		<path class="st8" d="M215.1,122.1v19.9c0,3.3-2.9,6.1-6.6,6.1h-6.9c-3.6,0-6.6-2.7-6.6-6.1v-10.4c0-3.3-2.9-6.1-6.6-6.1l0,0
			c-3.6,0-6.6-2.7-6.6-6.1v-8.9"/>
	</g>
	<g>
		<rect x="75.1" y="18.7" class="st3" width="6.7" height="42.2"/>
		<rect x="95.3" y="36.3" class="st3" width="6.7" height="24.6"/>
		<rect x="105.4" y="26.3" class="st3" width="6.7" height="34.6"/>
		<polygon class="st3" points="94.5,14 88.6,6.6 82.7,14 84,14 84,62 92,62 92,14 		"/>
	</g>
	<g>
		<path class="st9" d="M57.8,120.9H44.2v-2.5c0-1.1,0.9-2,2-2h9.7c1.1,0,2,0.9,2,2V120.9z"/>
		<path class="st10" d="M59.7,124.4H42.3v-1.5c0-1.7,1.3-3,3-3h11.5c1.7,0,3,1.3,3,3V124.4z"/>
		<path class="st11" d="M45.7,116.4l0.6-7l-1.1-4.3c-0.6-2.5,0.4-5,2.7-6.5l7-4.5v3.4l3,1.5l2.4,7.5c0.1,0.5-0.3,1.1-0.8,1.2
			l-1.9,0.8c-0.6,0.3-1.3,0.1-1.7-0.3l-2-2l2.9,10.3H45.7z"/>
		<path class="st10" d="M55.4,102.8c-0.4,0.4-1.2,0.4-1.6,0c-0.4-0.4-0.4-1.1,0-1.5"/>
	</g>
	<g>
		<path class="st12" d="M82.4,49.8c0-0.4,0-0.8-0.1-1.2l1.4-2.1l-2.3-3.6l-2.7,0c-0.7-0.5-1.5-0.7-2.3-1L75,40h-4.6l-1.3,1.9
			c-0.8,0.3-1.6,0.6-2.3,1.1L64,42.9l-2.3,3.6l1.4,2.1C63.1,49,63,49.4,63,49.8c0,0.4,0,0.8,0.1,1.2l-1.4,2.1l2.3,3.6l2.7,0
			c0.7,0.5,1.5,0.9,2.3,1.2l1.3,2.1H75l1.3-2.1c0.8-0.3,1.6-0.7,2.3-1.2l2.7,0l2.3-3.6L82.3,51C82.4,50.6,82.4,50.2,82.4,49.8z
			 M72.7,53.6c-2.3,0-4.2-1.7-4.2-3.8c0-2.1,1.9-3.8,4.2-3.8s4.2,1.7,4.2,3.8C76.9,51.9,75,53.6,72.7,53.6z"/>
	</g>
	<path class="st11" d="M66.8,65.6c0-0.3,0-0.6-0.1-0.9l1.1-1.6L66,60.3l-2.1,0c-0.5-0.4-1.1-0.5-1.8-0.8l-1-1.5h-3.5l-1,1.5
		c-0.6,0.2-1.2,0.5-1.8,0.9l-2.1-0.1L51,63l1.1,1.6c0,0.3-0.1,0.6-0.1,0.9s0,0.6,0.1,0.9L51,68.1l1.8,2.8l2.1,0
		c0.5,0.4,1.1,1,1.8,1.2l1,1.9h3.5l1-1.9c0.6-0.2,1.2-0.7,1.8-1.1l2.1-0.1l1.8-2.8l-1.1-1.6C66.7,66.2,66.8,65.9,66.8,65.6z
		 M59.4,68.5c-1.8,0-3.2-1.3-3.2-2.9c0-1.6,1.4-2.9,3.2-2.9s3.2,1.3,3.2,2.9C62.6,67.2,61.1,68.5,59.4,68.5z"/>
	<path class="st1" d="M67,32.3c-0.1-0.2-0.3-0.4-0.4-0.6l0.1-1.4l-2.2-1.3l-1.4,0.7c-0.5-0.1-1.1-0.2-1.6-0.2l-1.4-0.9l-2.3,1.1
		l0,1.5c-0.3,0.4-0.6,0.8-0.8,1.2l-1.4,0.7l-0.1,2.4l1.3,0.7c0.1,0.2,0.2,0.4,0.3,0.6c0.1,0.2,0.3,0.4,0.4,0.6l-0.1,1.4l2.2,1.3
		l1.4-0.7c0.5,0.1,1,0.2,1.5,0.1l1.3,0.8l2.3-1.1l0-1.4c0.3-0.4,0.6-0.8,0.8-1.2l1.4-0.7l0.1-2.4L67.3,33
		C67.2,32.7,67.2,32.5,67,32.3z M63.3,36.5c-1.2,0.6-2.6,0.1-3.2-0.9c-0.6-1-0.2-2.3,1-2.9c1.2-0.6,2.6-0.1,3.2,0.9
		C64.9,34.7,64.4,36,63.3,36.5z"/>
	<g>
		<g>
			<g>
				<polygon class="st13" points="263.1,43.3 234.2,55.2 225.2,49.7 227,39.9 255.9,28 				"/>
				<path class="st14" d="M229.1,48.1c-0.4-0.8,0-1.7,0.8-2c0.8-0.3,1.8,0,2.2,0.8c0.4,0.8,0,1.7-0.8,2
					C230.5,49.2,229.5,48.9,229.1,48.1z"/>
			</g>
			<g>
				<path class="st14" d="M236.9,42.7l-2.2,0.9l-0.7-1.5l6.5-2.7l0.7,1.5l-2.2,0.9l2.5,5.2l-2,0.8L236.9,42.7z"/>
				<path class="st14" d="M247.8,42.9l-3.1,1.3l0.1,1.5l-2.1,0.9l0-8.1l2-0.8l6.4,5.4L249,44L247.8,42.9z M246.5,41.7l-1.9-1.8
					l0.1,2.5L246.5,41.7z"/>
				<path class="st14" d="M254.4,37.6l1.8-0.7l1.3,2.8c-0.6,0.9-1.6,1.7-2.6,2.1c-2.3,0.9-4.7,0.2-5.6-1.9c-1-2.1,0-4.2,2.4-5.2
					c1.4-0.6,2.7-0.6,3.7-0.1l-0.8,1.6c-0.7-0.3-1.4-0.3-2.1,0c-1.2,0.5-1.7,1.6-1.2,2.8c0.5,1.1,1.7,1.6,3,1.1
					c0.4-0.2,0.7-0.4,1-0.7L254.4,37.6z"/>
			</g>
		</g>
		<path class="st15" d="M230.6,47.5c0,0-5.4,3.2-5.4,12"/>
	</g>
	<g>
		<ellipse class="st13" cx="87.8" cy="84.7" rx="16.3" ry="15.2"/>
		<path class="st2" d="M87.6,69.5c-8.9,0.1-16,6.9-16,15.2c0,0.1,0,0.2,0,0.4h16V69.5z"/>
	</g>
	<g>
		<path class="st16" d="M225.9,74.5c-0.1-0.6-0.3-1.1-0.4-1.7c-0.5-1.2-1.4-2.2-2.6-3.1c-0.7-0.3-1.4-0.7-2-1
			c-1.4-0.5-2.8-0.7-4.3-0.7l0-0.2c-0.5-1-1.2-1.9-2.3-2.6l-1.8-0.9c-1.2-0.5-2.6-0.7-3.9-0.6c-1,0-2,0.2-2.9,0.7
			c-1,0.3-1.8,0.8-2.5,1.4c-0.7,0.6-1.2,1.3-1.5,2.1c-0.4,0.7-0.5,1.4-0.4,2.2c-0.1,0-0.2,0-0.2,0c-0.8,0-1.5,0.2-2.1,0.5
			c-0.7,0.2-1.3,0.6-1.8,1c-0.5,0.4-0.9,1-1.1,1.5c-0.2,0.4-0.3,0.9-0.3,1.4H225.9z"/>
		<rect x="130.3" y="102" class="st6" width="32.1" height="22.2"/>
		<path class="st17" d="M194.1,111.9H98.7c-2.7,0-4.9-2.2-4.9-4.9V44.1c0-2.7,2.2-4.9,4.9-4.9h95.3c2.7,0,4.9,2.2,4.9,4.9V107
			C198.9,109.7,196.7,111.9,194.1,111.9z"/>
		<path class="st10" d="M198.9,97.8V42.3c0-1.7-1.5-3-3.3-3H97.1c-1.8,0-3.3,1.4-3.3,3v55.6H198.9z"/>
		<g>
			<defs>
				<rect id="XMLID_1_" x="99.6" y="44.8" width="93.5" height="48"/>
			</defs>
			<use xlink:href="#XMLID_1_"  style="overflow:visible;fill:#FFFFFF;"/>
			<clipPath id="XMLID_3_">
				<use xlink:href="#XMLID_1_"  style="overflow:visible;"/>
			</clipPath>
			<g class="st18">
				<g>
					<defs>
						<ellipse id="SVGID_1_" cx="146.4" cy="93.9" rx="37.8" ry="35.2"/>
					</defs>
					<use xlink:href="#SVGID_1_"  style="overflow:visible;fill:#BDEDFF;"/>
					<clipPath id="SVGID_2_">
						<use xlink:href="#SVGID_1_"  style="overflow:visible;"/>
					</clipPath>
					<path class="st19" d="M113.3,75.4c-0.4,2.9,0.6,4.4,0,5.8c-0.6,1.4-1.4,3.9-0.8,5.6c0.6,1.7,1.6,5.4,2.5,5.5
						c0.9,0.1-0.6-4,0.2-2.7c0.9,1.3,0.9,3.3,2.4,4.6c1.5,1.3,3.6,1.1,5.2,2.4c1.6,1.3,3.2,3.2,4.7,3c0,0-0.1,1-0.9,2.7
						c-0.8,1.7-0.9,3.7,0.1,4.9c1,1.2,1.9,3,2.8,3.9c0.9,0.9,1.5,5.7,1.3,8.1c-0.2,2.4,1,7.8,3.7,9c2.7,1.2,0-0.6-0.5-2.1
						c-0.5-1.5,0.4-5,1.7-5.5c1.3-0.5,2.5-2.5,3.5-3.9c1-1.4,3.5-2,4.2-3.7c0.8-1.7,0.4-3.7,0.9-4.6c0.4-0.9,1.6-2.9-1-4.1
						c-2.6-1.2-3.7-0.6-3.8-1.7c-0.1-1.1-0.8-2.3-2.6-2.8c-1.8-0.5-3.5-1.5-5.5-1.7c-2-0.2-2.5,1.3-3.6,0.5
						c-1.1-0.8-1.9-1.6-2.4-2.6c-0.4-1-1.7-0.4-1.6-1c0.1-0.6,1.8-2.3-0.1-1.7c-1.9,0.6-3.7,0.4-3.6-1.2c0.1-1.6,2.5-2.2,3.5-2.4
						c1-0.2,1.7,0.9,2.9,1.6c1.2,0.7,0.1-1,0.8-2.2c0.6-1.2,3.1-1.1,3.5-2.8c0.3-1.7-0.1-3.1,1.8-3.3c1.9-0.2,4,0.1,4.2-0.8
						c0.2-0.9-2.3,0.3-2.4-0.8c-0.1-1.1,2.2-2.6,2.8-1.5c0.6,1.1,2.3,1.2,2.5,0.8c0.2-0.4,0-1.1-0.8-2.8c-0.8-1.7-1.5-1.2-2.2-3.1
						c-0.6-1.9-1.7,0.1-2.8-0.9c-1.1-1-2.4-3.1-2.6-1.3c-0.2,1.8-0.2,2.8-1.2,4.2c-1,1.4-1.4,0.3-2.3-0.6c-0.9-0.9-2.8-1.8-2.2-2.6
						c0.6-0.8,1.3-2.9,2.3-2.3c1,0.6,2.5,0.6,2.3-0.4c-0.2-1,0-1.4,0.4-1.9c0.4-0.5,1.9-1.4,1.9,0.4c0,1.8-0.2,2.3,1.3,2.5
						c1.5,0.2,3.2,0.3,3.1-0.6c-0.1-0.9,0.4-0.7,0-2.2c-0.4-1.5-1.7-1.6-3.1-2.3c-1.4-0.7-2.2-1.8-3.3-1.4c-1.2,0.4-1.3,0.8-1.4,1.9
						c-0.1,1.1-0.8,1.5-1.2,1c-0.4-0.5,0.1-2.1-1.5-1.1c-1.6,1-2.3,2.7-3.1,1.5c-0.9-1.2,1.3-3.3-1-2.4c-2.3,0.9-3.9,1.9-2.7,2.3
						c1.2,0.4,2.4,1.1,1.2,1.5c-1.2,0.4-3.6-0.3-4.4,0.5C115.7,71.3,113.3,75.4,113.3,75.4z"/>
					<path class="st19" d="M126.1,64.5c0,1.1,0.3,2,1.4,1c1.1-1,1.7-2.2,2.5-1.7c0.8,0.5,2,0.4,2.6,0.3c0.5,0,0.6-1.5,2.2-1.3
						c1.5,0.2,1-0.3,2.6-1.1c1.6-0.8,5.1-2.2,1.5-1.8c-3.6,0.4-3.8-0.5-6.3,1c-2.5,1.5-3,1.5-3.7,1.9c-0.6,0.4-1.4-1.2-2.3,0
						C125.7,64,126.1,63.4,126.1,64.5z"/>
					<path class="st19" d="M139,61.4c-1.3,1-3.2,2.5-1.7,2.5c1.5,0,2.2-0.7,3.1,0.2c0.8,1,0.5,2.5,0.5,3.2c0,0.7-0.4,2.3,0.6,4.3
						c1.1,2,1.2,3.3,2.3,2c1.1-1.3,3.7-3.8,5-4c1.3-0.2,2.6-0.7,3.2-1.7c0.6-1,0-2,1.1-2.7c1.1-0.7,0.9-1.6,1.2-2.7
						c0.3-1.1,3.2-1.1,1.9-1.7c-1.3-0.6-3.7-1-6.5-0.7C146.9,60.4,141.4,59.5,139,61.4z"/>
					<path class="st19" d="M127.1,92.5c-0.7,1-0.3,1.1,0.4,1.3c0.8,0.2-0.3,1.4,0.5,1.5c0.9,0.1,2.8,0.6,3.3,0
						c0.5-0.6-0.9-0.4-1.8-1C128.6,93.6,127.6,91.7,127.1,92.5z"/>
					<path class="st19" d="M179.3,108.8c-1.2,0.5-0.6,1.4-1.7,2c-1.1,0.6-0.6,0.8-1,2.2c-0.3,1.4,0.1,2.2,0.9,1.1
						C178.2,113.1,180.6,108.2,179.3,108.8z"/>
					<path class="st19" d="M185.5,92c-0.3-1.7-2.7-17.2-2.7-17.2s-6.4-3.8-7.4-3c-1.1,0.8-2.9,0.7-2.7-0.1c0.2-0.8,1.6-0.6-0.8-2.1
						c-2.4-1.5-2.8-2.8-4.6-0.9c-1.8,1.9-2.3,3.5-3.3,4c-1.1,0.5-1.9,2.1-0.8,2.5c1.2,0.4,1.3,0,2.3,0.8c1,0.8,2.3,0.6,2.5,0.1
						c0.2-0.5,0.4-2.1,0.5-2.7c0.1-0.6,1.2-2.6,1.1-1c-0.1,1.6,1.5,1.6,0.4,2.7c-1.1,1.1-0.4,2-2.6,2.2c-2.2,0.2-2.3-1-3.5-0.4
						c-1.2,0.6-1.1,1-1.5,1.6c-0.4,0.6-2.7,1.8-2.7,1.8s-1.8-0.6-1,0.5c0.9,1.1,1.6,2.4,0.9,2.5c-0.8,0.1-2.8-1-2.8,0.2
						c0,1.2-0.3,2.5,0.5,2.8c0.6,0.2,1,0.7,1.6,0.6c-0.4,0.2-0.8,0.4-1.1,0.8c-0.8,1-0.3,2.8-2,3.4c-1.7,0.6-1.7,1.3-2,2.6
						c-0.3,1.3,0,4.6,0.4,4.9c0.4,0.3,1.2,2.8,3,2.6c1.8-0.2,3.8-0.3,4.4,0c0.6,0.3,1.7-0.6,2,1.7c0.3,2.3,1.1,2.6,1.5,3.8
						c0.4,1.2-0.2,3.7,0,5.2c0.2,1.5,1.7,4.1,1.7,5.4c0,1.3,1.6,1.9,2.5,1.4c0.9-0.5,2.7-1.5,3.5-3.1c0.8-1.6,0.8-2.4,1.9-4.5
						c1.2-2.1,0.9-3.6,1.4-5.2c0.5-1.6,1.8-2.7,3.6-4.5c1.8-1.8,1.5-2.8,0-2.7c-1.5,0.1-2.4-1.2-3.2-2.8c-0.8-1.6-1.6-5.6-1-4.3
						c0.6,1.3,1.9,4.9,3.2,5.5c1.3,0.6,3.7-1,4.2-1.6c0.5-0.6,0.3-2.3-1.1-3c-1.4-0.7-0.5-1.3,0.9-0.5
						C184.2,92.9,185.8,93.7,185.5,92z M174,87.6c-0.1,0.8,0.3,2.1-2,1.6c-2.4-0.5-2.4-1.7-3.3-0.8c-1,0.9-2.2,1.7-3.6,0.3
						c-1.4-1.4-1.2-1.8-1.9-1.9c-0.5-0.1-2.3-0.4-3.8,0c0.1-0.1,0.2-0.1,0.4-0.3c1.1-0.9,0.9-1.2,2-2.2c1.2-1,2-1.9,2.9-1
						c0.9,0.9,2.7,1.1,2,2.1c-0.6,1-0.2,1.6,0.5,1c0.8-0.6,1.8-1,1.1-1.8c-0.8-0.8-1.5-2.9-0.4-1.5c1.1,1.4,1.4,2.1,2,2.9
						c0.6,0.8,1.3,1.3,1.5,0.8c0.2-0.5-0.1-1.6,0.2-1.8c0.3-0.2,0,1.7,1,1.8C173.6,86.9,174.1,86.8,174,87.6z M176.5,84.2
						c-0.8-0.4-2.2,0-3.9,0.5c-1.7,0.5-0.3-1.1,0.4-2.2c0.7-1,0.3,0.3,1.8,0.4C176.4,83,177.3,84.6,176.5,84.2z M180.3,87.3
						c-0.3,0.3-0.9-1.4-1.2-2.2c-0.3-0.8-0.3-2.2,0.6-3c1.1-1,0.6,1.3,0.6,2.5C180.3,85.8,180.6,87,180.3,87.3z"/>
					<path class="st19" d="M159.5,75.1c-0.7,0.2-1.2,1.4-0.9,2c0.3,0.6-0.3-0.3-1.2,0.2c-0.9,0.5-2.1,1.9-1,2c1.2,0.1,1-0.8,2-0.4
						c1.1,0.4,2.3,0.3,2.3-0.7C160.8,77.2,160.6,74.8,159.5,75.1z"/>
					<path class="st19" d="M152.5,70.4c-0.6,0.1-0.9,1.6,0.5,1.8c1.4,0.2,3.9-0.3,3-1.1C155.1,70.3,154,70.2,152.5,70.4z"/>
				</g>
			</g>
		</g>
		<path class="st17" d="M165.3,124.2h-37.9c-0.9,0-1.5-0.7-1.5-1.5v-0.1c0-0.9,0.7-1.5,1.5-1.5h37.9c0.9,0,1.5,0.7,1.5,1.5v0.1
			C166.9,123.5,166.2,124.2,165.3,124.2z"/>
		<g>
			<polygon class="st11" points="158,83 158,73 136,73 136,83 119,83 119,92.8 173,93 173,83 			"/>
			<polygon class="st20" points="158,83 158,73 146,73 146,93 173,93 173,83 			"/>
		</g>
		<g>
			<path class="st11" d="M192.5,59.8c0,0-2.6-4-2.8-4.2c-0.2-0.2-4.5-2.6-4.5-2.6s-5.2,0.1-8.1,4.8l1.8-0.1l-7.2,14.8l15.6-7
				l-0.1,1.7C192.5,64.7,192.5,59.8,192.5,59.8z"/>
			<path class="st1" d="M191.3,58c0,0-1.4-2.2-1.5-2.3c-0.1-0.1-2.5-1.4-2.5-1.4s-2.9,0-4.4,2.6l1,0l-7.2,10.7l11.8-6.4l0,0.9
				C191.3,60.7,191.3,58,191.3,58z"/>
			<path class="st12" d="M195.6,40l-8.2,0.7c-1.4,0.1-2.6,1-3.1,2.2l-2.4,7.8l6.7-2.3L195.6,40z"/>
			<path class="st12" d="M206.6,50.2l-0.7,7.6c-0.1,1.3-1,2.4-2.3,2.9l-8.3,2.2l2.5-6.2L206.6,50.2z"/>
			<path class="st21" d="M197.4,57.2c0,0,8.2-2.8,16.7-10.7c6.1-5.6,4.1-17.3,4.1-17.3s-12-2.2-18.6,3.9
				c-7.8,7.3-11.5,15.6-11.5,15.6L197.4,57.2z"/>
			<path class="st11" d="M218.3,37.4c0.6-4.4,0-8.3,0-8.3s-4.2-0.8-9-0.2L218.3,37.4z"/>
			<path class="st13" d="M198.4,39.4c2.5-2.3,6.5-2.3,8.9,0c2.5,2.3,2.5,6,0,8.3c-2.5,2.3-6.5,2.3-8.9,0
				C195.9,45.4,195.9,41.7,198.4,39.4z"/>
			<path class="st14" d="M199.8,40.7c1.7-1.5,4.4-1.5,6,0c1.7,1.5,1.7,4.1,0,5.6c-1.7,1.5-4.4,1.5-6,0
				C198.2,44.8,198.2,42.3,199.8,40.7z"/>
			<polygon class="st2" points="188.2,48.4 185.1,53.3 192.3,60 197.5,57 			"/>
		</g>
		<g>
			<g>
				<g>
					<path class="st2" d="M161.6,39.9c0,7.8-6.8,14.1-15.2,14.1c-8.4,0-15.2-6.3-15.2-14.1V27.4h30.3V39.9z"/>
				</g>
				<g>
					<rect x="142.6" y="47.8" class="st2" width="7.6" height="22.4"/>
				</g>
				<g>
					<path class="st2" d="M157.8,75.4H135v-2.2c0-3.6,2.9-6.4,6.4-6.4h9.9c3.6,0,6.4,2.9,6.4,6.4V75.4z"/>
				</g>
				<g>
					<path class="st2" d="M134.8,46.4c-7,0-12.8-5.3-12.8-11.9V33h26.4l-1,2.1C146.9,36.2,141.8,46.4,134.8,46.4z M125.3,35.9
						c0.8,4.3,4.7,7.5,9.5,7.5c3.3,0,6.8-4.4,8.6-7.5H125.3z"/>
				</g>
				<g>
					<path class="st2" d="M158,46.4c-3.1,0-6.2-2-9.2-5.8c-2.1-2.7-3.4-5.4-3.4-5.5l-1-2.1h26.4v1.5C170.7,41,165,46.4,158,46.4z
						 M149.3,35.9c1.9,3.1,5.3,7.5,8.6,7.5c4.8,0,8.7-3.3,9.5-7.5H149.3z"/>
				</g>
				<path class="st22" d="M147,27.4V54c8.1-0.3,14.5-6.5,14.5-14.1V27.4H147z"/>
			</g>
			<g>
				<path class="st14" d="M149.2,33.3v13.8H145V36.4h-2.8v-3H149.2z"/>
			</g>
		</g>
		<path class="st16" d="M101.7,104.2c-0.1-0.4-0.2-0.8-0.3-1.3c-0.3-0.9-0.9-1.7-1.7-2.4c-0.4-0.3-0.9-0.5-1.3-0.8
			c-0.9-0.4-1.9-0.6-2.9-0.5c-0.4,0-0.8,0.1-1.2,0.2c-0.1-0.3-0.1-0.5-0.2-0.8c-0.3-1-0.9-1.8-1.7-2.4c-0.4-0.3-0.9-0.5-1.3-0.8
			c-1-0.4-2-0.6-3-0.5c-0.8,0-1.5,0.2-2.2,0.6c-0.2,0.1-0.3,0.1-0.5,0.2c-0.3-0.7-0.8-1.3-1.4-1.8l-1.2-0.7
			c-0.9-0.4-1.8-0.5-2.7-0.5c-0.7,0-1.4,0.2-2,0.5c-0.7,0.2-1.3,0.6-1.7,1.2c-0.5,0.5-0.9,1.1-1,1.8c-0.3,0.6-0.4,1.3-0.3,1.9
			c0,0,0,0.1,0,0.1c-0.4,0.1-0.8,0.2-1.1,0.4c-0.6,0.2-1,0.5-1.4,1c-0.2,0.2-0.4,0.4-0.5,0.7c-0.3,0-0.5,0-0.8,0
			c-0.7,0-1.4,0.2-2,0.5c-0.7,0.2-1.2,0.6-1.7,1.2c-0.5,0.5-0.8,1.1-1,1.7c-0.1,0.2-0.2,0.4-0.2,0.6H101.7z"/>
		<path class="st16" d="M77.6,77.6c0-0.2-0.1-0.5-0.1-0.7c-0.3-0.9-0.9-1.7-1.7-2.4l-1.3-0.8c-0.9-0.4-1.9-0.6-2.9-0.5
			c-0.8,0-1.5,0.2-2.1,0.6c-0.2,0.1-0.3,0.1-0.5,0.2c0-0.1,0-0.2-0.1-0.3c-0.2-0.7-0.6-1.2-1.2-1.7c-0.3-0.2-0.6-0.4-0.9-0.6
			c-0.7-0.3-1.4-0.4-2.1-0.4c-0.6,0-1.1,0.2-1.5,0.4c-0.5,0.2-1,0.5-1.3,0.9c-0.4,0.4-0.6,0.8-0.8,1.3c-0.1,0.3-0.2,0.5-0.2,0.8
			c-0.4-0.1-0.8-0.1-1.2-0.1c-1.9,0-3.7,1.4-4.3,3.1H77.6z"/>
		<path class="st16" d="M185.4,98.4H228c-0.6-1.3-1.4-2.5-2.6-3.4c-0.7-0.4-1.4-0.9-2.1-1.3c-1.5-0.7-3.1-1-4.8-0.8
			c-1.3,0-2.4,0.4-3.5,1c0,0-0.1,0-0.1,0.1c-0.4-0.5-0.9-1-1.4-1.5c-0.7-0.4-1.4-0.8-2.1-1.3c-0.9-0.4-1.8-0.7-2.8-0.8
			c0.1-0.6,0.2-1.2,0.1-1.8c-0.1-0.6-0.3-1.2-0.4-1.9c-0.5-1.3-1.2-2.4-2.3-3.2c-0.6-0.4-1.2-0.7-1.8-1.1c-1.3-0.6-2.6-0.8-4-0.7
			c-1.1,0-2,0.3-2.9,0.8c-1,0.4-1.9,0.9-2.5,1.7c-0.8,0.8-1.3,1.6-1.5,2.6c-0.4,0.9-0.6,1.8-0.4,2.8c0,0.2,0.1,0.4,0.1,0.6
			c-0.2,0-0.5,0-0.7,0c-1,0-1.9,0.3-2.7,0.7c-0.9,0.3-1.7,0.9-2.4,1.6c-0.7,0.7-1.2,1.5-1.4,2.4c-0.4,0.8-0.5,1.7-0.4,2.6
			C185.3,97.8,185.3,98.1,185.4,98.4z"/>
		<path class="st16" d="M80.7,66.1c0.1-0.1,0.1-0.1,0.2-0.2c0.4-0.2,0.8-0.5,1.1-0.7c0.8-0.4,1.7-0.5,2.6-0.5c0.5,0,1,0.1,1.4,0.3
			c0.2-0.4,0.5-0.7,0.9-1c0.6-0.6,1.7-1,2.6-1.2c0.9-0.2,1.8-0.1,2.7,0.2c0.6,0.2,1.1,0.4,1.5,0.8c0.1-0.2,0.2-0.4,0.3-0.7
			c0.4-0.6,0.9-1,1.5-1.3c0.4-0.3,0.8-0.5,1.2-0.6c0.6-0.2,1.2-0.3,1.8-0.3c0.1-0.4,0.3-0.7,0.5-1c0.3-0.3,0.6-0.6,0.9-0.9
			c0.4-0.2,0.7-0.5,1.1-0.7c0.6-0.3,1.2-0.4,1.9-0.4c0.6-0.1,1.3,0,1.9,0.2c0,0,0,0,0,0c0.9,0.3,1.6,0.7,2.2,1.4
			c0.6,0.6,1,1.4,1.1,2.2c0,0.2,0,0.3,0,0.5c0.7-0.3,1.4-0.4,2.1-0.4c0.4,0,0.8,0.1,1.2,0.2c0.3,0.1,0.8,0.4,1.2,0.6
			c0.7,0.4,1.2,1,1.6,1.7c0.2,0.3,0.3,0.7,0.4,1.1c0.1,0.2,0.1,0.5,0.1,0.7H80.7z"/>
	</g>
</g>
</svg>
